<svg width="250" height="250" viewBox="0 0 250 250" fill="none" xmlns="http://www.w3.org/2000/svg">
<path d="M227.846 122.835C227.821 122.97 227.801 123.11 227.766 123.25C225.766 134.537 220.756 145.074 213.266 153.75C209.68 157.898 205.656 161.646 201.266 164.93C196.958 168.15 192.396 171.016 187.626 173.5C183.175 175.823 178.594 177.888 173.906 179.685C173.131 179.99 172.346 180.285 171.566 180.57C167.724 181.985 163.814 183.206 159.851 184.23C155.27 185.415 150.628 186.352 145.946 187.035C141.181 187.736 136.383 188.19 131.571 188.395C126.781 188.6 121.971 188.58 117.176 188.34C112.076 188.073 106.996 187.573 101.936 186.84C96.6424 186.073 91.3991 185.062 86.2057 183.805C84.6524 183.435 83.1024 183.042 81.5557 182.625C77.3857 181.505 73.0957 180.335 68.8207 178.99C62.5407 176.99 56.2907 174.67 50.5507 171.58C46.6503 169.522 42.9982 167.024 39.6657 164.135C37.946 162.614 36.3228 160.988 34.8057 159.265C34.6257 159.07 34.4507 158.87 34.3057 158.665C29.6906 153.292 26.1529 147.08 23.8857 140.37C22.4589 136.167 21.58 131.798 21.2707 127.37C21.1015 124.864 21.1199 122.348 21.3257 119.845C22.3801 107.394 27.6299 95.6691 36.2157 86.59C37.4169 85.3206 38.6907 84.1219 40.0307 83C45.5707 78.355 51.8957 75.145 58.3207 72.06C63.3907 69.625 68.5257 67.28 73.4007 64.365C74.9107 63.4683 76.3924 62.5083 77.8457 61.485C80.1726 59.8194 82.3951 58.0127 84.5007 56.075C87.7807 53.075 90.8857 49.875 94.0907 46.79C96.2107 44.75 98.3757 42.755 100.661 40.91C102.084 39.76 103.554 38.68 105.071 37.67C109.094 34.9611 113.403 32.7041 117.921 30.94C122.642 29.0724 127.548 27.7098 132.556 26.875C145.502 24.6893 158.791 25.8282 171.176 30.185C172.396 30.6217 173.602 31.0883 174.796 31.585C178.565 33.1599 182.206 35.0255 185.686 37.165C190.463 40.1078 194.948 43.4999 199.081 47.295C207.241 54.769 214.039 63.6058 219.171 73.41C221.827 78.4665 223.984 83.7699 225.611 89.245C227.234 94.6711 228.265 100.257 228.686 105.905C229.104 111.561 228.821 117.248 227.846 122.835Z" fill="#A2B1FF"/>
<path opacity="0.5" d="M227.846 122.835C227.821 122.97 227.801 123.11 227.766 123.25C225.766 134.537 220.756 145.074 213.266 153.75C209.68 157.898 205.656 161.646 201.266 164.93C196.958 168.15 192.396 171.016 187.626 173.5C183.175 175.823 178.594 177.888 173.906 179.685C173.131 179.99 172.346 180.285 171.566 180.57C167.724 181.985 163.814 183.206 159.851 184.23C155.27 185.415 150.628 186.352 145.946 187.035C141.181 187.736 136.383 188.19 131.571 188.395C126.781 188.6 121.971 188.58 117.176 188.34C112.076 188.073 106.996 187.573 101.936 186.84C96.6424 186.073 91.3991 185.062 86.2057 183.805C84.6524 183.435 83.1024 183.042 81.5557 182.625C77.3857 181.505 73.0957 180.335 68.8207 178.99C62.5407 176.99 56.2907 174.67 50.5507 171.58C46.6503 169.522 42.9982 167.024 39.6657 164.135C37.946 162.614 36.3228 160.988 34.8057 159.265C34.6257 159.07 34.4507 158.87 34.3057 158.665C29.6906 153.292 26.1529 147.08 23.8857 140.37C22.4589 136.167 21.58 131.798 21.2707 127.37C21.1015 124.864 21.1199 122.348 21.3257 119.845C22.3801 107.394 27.6299 95.6691 36.2157 86.59C37.4169 85.3206 38.6907 84.1219 40.0307 83C45.5707 78.355 51.8957 75.145 58.3207 72.06C63.3907 69.625 68.5257 67.28 73.4007 64.365C74.9107 63.4683 76.3924 62.5083 77.8457 61.485C80.1726 59.8194 82.3951 58.0127 84.5007 56.075C87.7807 53.075 90.8857 49.875 94.0907 46.79C96.2107 44.75 98.3757 42.755 100.661 40.91C102.084 39.76 103.554 38.68 105.071 37.67C109.094 34.9611 113.403 32.7041 117.921 30.94C122.642 29.0724 127.548 27.7098 132.556 26.875C145.502 24.6893 158.791 25.8282 171.176 30.185C172.396 30.6217 173.602 31.0883 174.796 31.585C178.565 33.1599 182.206 35.0255 185.686 37.165C190.463 40.1078 194.948 43.4999 199.081 47.295C207.241 54.769 214.039 63.6058 219.171 73.41C221.827 78.4665 223.984 83.7699 225.611 89.245C227.234 94.6711 228.265 100.257 228.686 105.905C229.104 111.561 228.821 117.248 227.846 122.835Z" fill="white"/>
<g opacity="0.6">
<path d="M210.281 59.4999L133.416 109L199.076 47.2949C203.161 51.0274 206.911 55.1114 210.281 59.4999Z" fill="white"/>
<path d="M225.606 89.2451L133.416 109L219.166 73.4351C221.821 78.4836 223.978 83.7786 225.606 89.2451Z" fill="white"/>
<path d="M227.846 122.835C227.821 122.97 227.801 123.11 227.766 123.25L133.416 109L228.681 105.93C229.098 111.578 228.818 117.256 227.846 122.835Z" fill="white"/>
<path d="M222.616 139.405C220.158 144.587 217.015 149.415 213.271 153.76L133.416 109L222.616 139.405Z" fill="white"/>
<path d="M201.256 164.94C196.951 168.156 192.393 171.019 187.626 173.5L133.416 109L201.256 164.94Z" fill="white"/>
<path d="M173.906 179.685C173.131 179.99 172.346 180.285 171.566 180.57C167.725 181.985 163.815 183.207 159.851 184.23L133.416 109L173.906 179.685Z" fill="white"/>
<path d="M145.946 187.035C141.181 187.736 136.383 188.19 131.571 188.395L133.416 109L145.946 187.035Z" fill="white"/>
<path d="M133.416 109L117.176 188.34C112.076 188.073 106.996 187.573 101.936 186.84L133.416 109Z" fill="white"/>
<path d="M133.416 109L86.2063 183.805C84.653 183.435 83.103 183.042 81.5563 182.625C77.3863 181.505 73.0963 180.335 68.8213 178.99L133.416 109Z" fill="white"/>
<path d="M133.416 109L50.5512 171.58C46.6507 169.522 42.9987 167.024 39.6662 164.135C37.9464 162.614 36.3232 160.988 34.8062 159.265C34.6262 159.07 34.4512 158.87 34.3062 158.665L133.416 109Z" fill="white"/>
<path d="M133.416 109L23.8662 140.37C22.4394 136.167 21.5605 131.798 21.2512 127.37C21.082 124.864 21.1004 122.348 21.3062 119.845L133.416 109Z" fill="white"/>
<path d="M133.416 109L27.1011 99.5C29.4925 94.781 32.5561 90.434 36.1961 86.595C37.4036 85.3233 38.6841 84.1229 40.0311 83L133.416 109Z" fill="white"/>
<path d="M133.416 109L58.3213 72.0798C63.3913 69.6448 68.5263 67.2998 73.4013 64.3848L133.416 109Z" fill="white"/>
<path d="M133.416 109L84.501 56.075C87.781 53.075 90.886 49.875 94.091 46.79L133.416 109Z" fill="white"/>
<path d="M133.416 109L105.066 37.6699C109.089 34.961 113.399 32.704 117.916 30.9399L133.416 109Z" fill="white"/>
<path d="M147.846 25.8299L133.416 109L132.551 26.8749C137.602 26.0194 142.726 25.6693 147.846 25.8299Z" fill="white"/>
<path d="M185.681 37.1651L133.416 109L171.171 30.1851C172.391 30.6217 173.598 31.0884 174.791 31.5851C178.56 33.1599 182.201 35.0256 185.681 37.1651Z" fill="white"/>
</g>
<path d="M187.255 142.065V64.0002C187.255 62.7497 186.758 61.5504 185.874 60.6661C184.99 59.7819 183.79 59.2852 182.54 59.2852H71.44C70.189 59.2852 68.9892 59.7818 68.1042 60.6658C67.2192 61.5499 66.7213 62.7492 66.72 64.0002V142.065H187.255Z" fill="#0B40B6"/>
<path d="M179.8 66.375H74.425V134.585H179.8V66.375Z" fill="white"/>
<path d="M66.7198 142.065L49.0798 178.21H205.435L187.255 142.065H66.7198Z" fill="white" stroke="#0B40B6" stroke-width="0.567552" stroke-miterlimit="10"/>
<path d="M205.84 178.47H48.655V180.68H205.84V178.47Z" fill="#0B40B6"/>
<path d="M82.0652 144.21L80.5002 147.945H88.4502L89.8852 144.21H82.0652ZM72.3702 148.47L70.4152 152.89H77.8752L79.7202 148.47H72.3702ZM70.1802 153.415L68.2252 157.83H75.8102L77.6552 153.415H70.1802ZM95.8852 153.415L94.5702 157.83H101L101.965 153.415H95.8852ZM109.885 148.47L109.3 152.89H115.395L115.795 148.47H109.885ZM102.53 153.415L101.53 157.83H108.1L108.685 153.415H102.53ZM109.235 153.415L108.655 157.83H114.94L115.345 153.415H109.235ZM116.33 148.47L115.925 152.89H121.89L122.11 148.47H116.33ZM116.715 144.21L116.375 147.945H122.135L122.325 144.21H116.715ZM128.545 148.47H122.635L122.415 152.89H128.59L128.545 148.47ZM115.87 153.415L115.47 157.83H121.645L121.86 153.415H115.87ZM128.6 153.415H122.39L122.165 157.83H128.635L128.6 153.415ZM134.945 153.415H129.12L129.16 157.83H135.185L134.945 153.415ZM140.665 144.21H135L135.2 147.945H141.05L140.665 144.21ZM141.11 148.47H135.21L135.445 152.89H141.58L141.11 148.47ZM146.805 144.21H141.185L141.58 147.945H147.37L146.805 144.21ZM147.455 148.47H141.635L142.1 152.89H148.125L147.455 148.47ZM141.63 153.415H135.5L135.735 157.83H142.12L141.63 153.415ZM148.21 153.415H142.16L142.625 157.83H148.89L148.21 153.415ZM179.15 148.47H173.33L174.875 152.89H180.875L179.15 148.47ZM163.35 158.355H156.465L157.315 162.915H164.5L163.35 158.355ZM174.5 153.415H169.62L171.01 157.83H176.05L174.5 153.415ZM181.055 153.415H175.055L176.595 157.83H182.77L181.055 153.415ZM76.1552 158.355L74.2502 162.915H82.6902L84.4452 158.355H76.1552ZM191.35 163.44H185.5L187.63 168.91H187.065L184.94 163.44H65.7352L63.3152 168.91H193.685L191.35 163.44ZM68.0002 158.355L66.0002 162.915H73.7202L75.6202 158.355H68.0002ZM183 158.355H176.785L178.375 162.915H184.75L183 158.355ZM189.2 158.355H183.54L185.32 162.915H191.13L189.2 158.355ZM187.1 153.415H181.625L183.34 157.83H188.96L187.1 153.415ZM176.25 158.355H171.2L172.635 162.915H177.845L176.25 158.355ZM170.645 158.355H163.885L165.06 162.915H172.06L170.645 158.355ZM155.955 158.355H149.5L150.2 162.915H156.78L155.955 158.355ZM148.985 158.355H142.68L143.155 162.915H149.655L148.985 158.355ZM142.17 158.355H135.74L135.985 162.915H142.63L142.17 158.355ZM135.23 158.355H129.165L129.215 162.915H135.455L135.23 158.355ZM128.66 158.355H122.16L121.935 162.915H128.71L128.66 158.355ZM115.435 158.355L115.02 162.915H121.405L121.635 158.355H115.435ZM108.6 158.355L108 162.915H114.5L114.92 158.355H108.6ZM101.46 158.355L100.46 162.915H107.46L108.055 158.355H101.46ZM94.4602 158.355L93.1052 162.915H99.9452L100.945 158.355H94.4602ZM85.0552 158.355L83.3002 162.915H92.5002L93.8602 158.355H85.0552ZM169.11 153.415H162.66L163.79 157.83H170.5L169.11 153.415ZM185.01 148.47H179.705L181.425 152.89H186.85L185.01 148.47ZM183.26 144.37L183.195 144.21H178.05L179.5 147.945H184.745L183.26 144.37ZM177.5 144.21H171.845L173.145 147.945H178.94L177.5 144.21ZM171.295 144.21H166.735L167.91 147.945H172.6L171.295 144.21ZM172.795 148.47H168.085L169.48 152.89H174.34L172.795 148.47ZM167.535 148.47H161.355L162.49 152.89H168.905L167.535 148.47ZM166.195 144.21H160.265L161.225 147.945H167.345L166.195 144.21ZM162.105 153.415H155.555L156.37 157.83H163.215L162.105 153.415ZM155.04 153.415H148.735L149.415 157.83H155.835L155.04 153.415ZM160.84 148.47H154.635L155.455 152.89H161.955L160.84 148.47ZM159.745 144.21H153.845L154.54 147.945H160.68L159.745 144.21ZM154.12 148.47H148L148.68 152.89H154.94L154.12 148.47ZM153.335 144.21H147.335L147.905 147.945H154L153.335 144.21ZM134.695 148.47H129.065L129.115 152.89H134.915L134.695 148.47ZM134.47 144.21H129.025L129.06 147.945H134.65L134.47 144.21ZM128.52 144.21H122.845L122.66 147.945H128.535L128.52 144.21ZM110.465 144.21L109.965 147.945H115.86L116.2 144.21H110.465ZM104.56 144.21L103.74 147.945H109.445L109.945 144.21H104.56ZM103.625 148.47L102.66 152.89H108.79L109.37 148.47H103.625ZM98.6252 144.21L97.5002 147.945H103.175L103.99 144.21H98.6252ZM97.3552 148.47L96.0502 152.89H102.1L103.07 148.47H97.3552ZM90.4552 144.21L89.0002 147.945H96.9452L98.0502 144.21H90.4552ZM88.8202 148.47L87.1202 152.89H95.5002L96.8152 148.47H88.8202ZM86.9152 153.415L85.2202 157.83H94.0302L95.3452 153.415H86.9152ZM78.2302 153.415L76.3852 157.83H84.6502L86.3502 153.415H78.2302ZM80.2952 148.47L78.4502 152.89H86.5502L88.2502 148.47H80.2952ZM74.2602 144.21L72.6052 147.945H79.9452L81.5052 144.21H74.2602ZM172.76 148.47H168.05L169.445 152.89H174.305L172.76 148.47Z" fill="#0B40B6"/>
<path d="M83.0551 163.44L82.9551 163.705L82.4651 163.515L82.4901 163.44H83.0551Z" fill="#0B40B6"/>
<path d="M74.0349 163.44L73.9849 163.565L73.6799 163.44H74.0349Z" fill="#0B40B6"/>
<path d="M156.59 80.7852H98.3902C95.3692 80.7852 92.9202 83.2342 92.9202 86.2551V107.3C92.9202 110.321 95.3692 112.77 98.3902 112.77H156.59C159.611 112.77 162.06 110.321 162.06 107.3V86.2551C162.06 83.2342 159.611 80.7852 156.59 80.7852Z" fill="#A2B1FF" stroke="#2E353A" stroke-width="0.851913" stroke-miterlimit="10"/>
<path d="M101.001 127.28H154.091C154.861 127.279 155.618 127.077 156.286 126.693C156.954 126.309 157.51 125.757 157.899 125.092C158.288 124.427 158.497 123.672 158.504 122.902C158.511 122.131 158.317 121.372 157.941 120.7L131.391 73.3402C131.006 72.6566 130.447 72.0876 129.77 71.6916C129.093 71.2956 128.322 71.0869 127.538 71.0869C126.754 71.0869 125.983 71.2956 125.306 71.6916C124.629 72.0876 124.07 72.6566 123.686 73.3402L97.1355 120.7C96.7584 121.374 96.5641 122.134 96.572 122.906C96.5799 123.677 96.7897 124.433 97.1806 125.099C97.5715 125.764 98.1298 126.316 98.7999 126.698C99.4701 127.081 100.229 127.282 101.001 127.28Z" fill="#0B40B6"/>
<path d="M103.63 124.465H151.445C153.275 124.465 154.445 122.39 153.535 120.705L129.63 75.8351C129.436 75.4466 129.137 75.12 128.768 74.8917C128.398 74.6634 127.972 74.5425 127.538 74.5425C127.103 74.5425 126.678 74.6634 126.308 74.8917C125.938 75.12 125.64 75.4466 125.445 75.8351L101.54 120.705C100.64 122.39 101.8 124.465 103.63 124.465Z" stroke="white" stroke-width="0.425664" stroke-miterlimit="10"/>
<path d="M126.715 109.815H128.055C129.085 109.815 129.95 108.845 130.055 107.565L131.375 93.0651C131.51 91.5651 130.57 90.2451 129.375 90.2451H125.18C123.955 90.2451 123.01 91.5901 123.18 93.1101L124.715 107.61C124.84 108.87 125.7 109.815 126.715 109.815Z" fill="white"/>
<path d="M130 114.95C130 115.488 129.841 116.014 129.542 116.461C129.243 116.908 128.818 117.257 128.321 117.463C127.824 117.669 127.277 117.723 126.749 117.618C126.222 117.513 125.737 117.254 125.357 116.873C124.976 116.493 124.717 116.008 124.612 115.481C124.507 114.953 124.561 114.406 124.767 113.909C124.973 113.412 125.322 112.987 125.769 112.688C126.216 112.389 126.742 112.23 127.28 112.23C128.001 112.23 128.693 112.517 129.203 113.027C129.713 113.537 130 114.229 130 114.95Z" fill="white"/>
<path d="M196.78 200.2C192.63 193.84 193.525 192.89 192.74 190.2C191.955 187.51 187.81 181.61 186.43 179.135C185.05 176.66 184.43 163.945 184.43 163.945C184.644 162.432 184.272 160.894 183.39 159.645C183.39 159.645 183.715 157.145 183.845 153.76C183.975 150.375 182.68 149.305 181.965 148.26C181.25 147.215 179.095 141.015 178.465 140.52C177.835 140.025 176.62 142.345 176.62 142.345C176.025 145.04 178.745 150.235 178.745 150.235L177.7 156.5L174.43 151.81C174.43 151.81 172.33 141.81 171 140.49C169.67 139.17 164.64 142 164.64 142C164.026 141.252 163.324 140.58 162.55 140C161.08 138.85 151.82 143.375 151.82 143.375C150.41 142.06 146.905 139.96 144.98 141.07C143.055 142.18 138.59 151.045 140.305 152.14C142.02 153.235 145.965 150.3 145.965 150.3C145.965 150.3 150.965 153.325 151.82 155.59C152.675 157.855 154.82 166.9 155.06 168.81C155.3 170.72 153.78 175.515 153.78 175.515C151.53 168.765 143.725 162.86 140.955 162.975C138.185 163.09 138.67 164.945 139.02 166.105C139.37 167.265 142.88 170.215 142.88 170.215L145.095 174.77C145.095 174.77 152.155 190.175 153.145 191.82C154.135 193.465 155.445 193.54 155.445 193.54L170.63 199.315C174.63 203.315 185.98 228.44 185.98 228.44C212.915 234.525 215.095 218.375 215.095 218.375C215.095 218.375 200.94 206.56 196.78 200.2ZM156.19 147.875L158.465 147.28L159.325 147.605L162.325 154.605L156.19 147.875Z" fill="white"/>
<path d="M186.43 229.45C186.43 229.45 173.58 200.8 170.63 199.33C167.68 197.86 156.095 194.485 153.78 192.585C151.465 190.685 144.28 171.945 142.615 169.84C140.95 167.735 137.56 166.26 139.035 163.73C140.51 161.2 149.145 164.995 153.78 175.525C153.78 175.525 155.255 170.89 155.045 168.365C154.885 166.48 153.21 160.155 152.365 157.05C152.023 155.803 151.397 154.653 150.535 153.69C149.852 152.88 149.073 152.156 148.215 151.535C146.715 150.61 145.375 150.18 144.715 148.265" stroke="#407BFF" stroke-width="0.567552" stroke-linecap="round" stroke-linejoin="round"/>
<path d="M145.925 150.085C145.925 150.085 143.47 152.3 141.88 152.38C140.29 152.46 139.88 152.22 139.88 150.71C139.88 149.2 143.55 141.8 145 141.085C146.45 140.37 150.09 141.96 151.84 143.63C153.59 145.3 162.57 154.845 162.57 154.845L159.235 147.37C158.791 147.297 158.385 147.077 158.082 146.745C157.779 146.413 157.597 145.988 157.565 145.54" stroke="#407BFF" stroke-width="0.567552" stroke-linecap="round" stroke-linejoin="round"/>
<path d="M164.645 142C164.645 142 169.24 139.04 171 140.465C172.76 141.89 173.245 151.105 175.43 153.62C177.615 156.135 178.96 157.975 179.46 160.405" stroke="#407BFF" stroke-width="0.567552" stroke-linecap="round" stroke-linejoin="round"/>
<path d="M177.83 156.66C178.282 154.543 178.591 152.398 178.755 150.24C177.269 147.882 176.528 145.131 176.63 142.345C176.63 142.345 177.43 140.945 178.47 140.525C179.51 140.105 180.555 146.85 182.68 149.295C184.805 151.74 183.39 159.635 183.39 159.635C183.39 159.635 184.95 161.88 184.43 163.935C184.43 163.935 185.75 177.185 186.43 179.125C187.11 181.065 191.75 186.885 192.845 190.5C193.94 194.115 194.195 196.575 197.485 201.215C200.775 205.855 215.54 218.765 215.54 218.765" stroke="#407BFF" stroke-width="0.567552" stroke-linecap="round" stroke-linejoin="round"/>
<path d="M151.82 143.63C151.82 143.63 160.355 139.37 162.55 140.015C164.745 140.66 167.255 147.055 168.875 150.13C170.495 153.205 170.735 154.42 172.76 156.525C174.785 158.63 175.105 159.275 175.43 161.055" stroke="#407BFF" stroke-width="0.567552" stroke-linecap="round" stroke-linejoin="round"/>
<path d="M165.08 157.55C165.623 158.091 166.054 158.735 166.347 159.444C166.639 160.153 166.788 160.913 166.785 161.68" stroke="#407BFF" stroke-width="0.567552" stroke-linecap="round" stroke-linejoin="round"/>
<g opacity="0.5">
<path d="M168.94 197.045C166.345 195.835 162.635 193.96 159.88 193.19C156.69 192.3 153.41 190.475 152.705 187.015C152.501 186.094 152.592 185.132 152.964 184.265C153.336 183.399 153.972 182.671 154.78 182.185C158.1 180.33 160.735 184.73 164.22 182.03C165.018 181.386 165.649 180.56 166.062 179.621C166.474 178.682 166.655 177.658 166.59 176.635C166.455 173.635 164.85 170.93 163.665 168.17C162.48 165.41 161.845 162.355 163.2 159.515C163.34 159.176 163.558 158.874 163.835 158.635C165.085 157.68 166.625 159.925 167.625 160.405C169.36 161.24 171.25 158.115 173.15 158.405C175.05 158.695 175.875 160.405 176.2 164.16C177.87 161.195 180.865 161.305 181.23 163.565C181.85 167.44 183.605 173.2 183.86 175.475C184.7 183.005 189.64 182.845 191.42 190.21C193.66 199.475 197.77 204.285 202.99 208.435C205.08 210.095 206.63 212.31 208.585 214.125C208.81 214.332 209.021 214.554 209.215 214.79C210.915 216.84 208.615 219.75 206.165 218.705C204.624 218.048 203.001 217.603 201.34 217.385C193.77 216.385 185.64 220.845 180.735 213.67C176.47 207.42 176.605 200.63 168.94 197.045Z" fill="#A2B1FF"/>
<path opacity="0.2" d="M168.94 197.045C166.345 195.835 162.635 193.96 159.88 193.19C156.69 192.3 153.41 190.475 152.705 187.015C152.501 186.094 152.592 185.132 152.964 184.265C153.336 183.399 153.972 182.671 154.78 182.185C158.1 180.33 160.735 184.73 164.22 182.03C165.018 181.386 165.649 180.56 166.062 179.621C166.474 178.682 166.655 177.658 166.59 176.635C166.455 173.635 164.85 170.93 163.665 168.17C162.48 165.41 161.845 162.355 163.2 159.515C163.34 159.176 163.558 158.874 163.835 158.635C165.085 157.68 166.625 159.925 167.625 160.405C169.36 161.24 171.25 158.115 173.15 158.405C175.05 158.695 175.875 160.405 176.2 164.16C177.87 161.195 180.865 161.305 181.23 163.565C181.85 167.44 183.605 173.2 183.86 175.475C184.7 183.005 189.64 182.845 191.42 190.21C193.66 199.475 197.77 204.285 202.99 208.435C205.08 210.095 206.63 212.31 208.585 214.125C208.81 214.332 209.021 214.554 209.215 214.79C210.915 216.84 208.615 219.75 206.165 218.705C204.624 218.048 203.001 217.603 201.34 217.385C193.77 216.385 185.64 220.845 180.735 213.67C176.47 207.42 176.605 200.63 168.94 197.045Z" fill="white"/>
</g>
<path d="M35.0601 222.795C35.0601 222.795 43.0601 239.385 64.2201 232.795L77.3601 204.625C77.3601 204.625 88.2851 196.855 93.2751 194.175C98.2651 191.495 104.07 188.7 105 187.245C105.93 185.79 109.795 175.475 110.155 172.92C110.515 170.365 110.93 168.64 111.355 166.705C111.78 164.77 111.715 161.86 109.285 163.465C106.855 165.07 105.12 166.425 104.285 170.495C103.45 174.565 99 176.73 99 176.73C99 176.73 100.5 164.63 103.035 161.68C105.57 158.73 111.78 152.18 111.78 152.18C111.78 152.18 115.28 155.05 117.705 153.645C120.13 152.24 112.905 144.33 110.475 145.145C109.605 145.179 108.762 145.46 108.045 145.955L103.695 142.585C103.695 142.585 101.165 139.945 99.8301 140.635C98.4951 141.325 96.375 144.375 96.375 144.375C96.375 144.375 93.51 140.715 91.115 140.925C88.72 141.135 85.335 144.46 84.21 146.13C83.085 147.8 80.1051 152.89 79.3751 153.89C79.3751 153.89 80.49 146.725 80.465 145.145C80.44 143.565 80.8251 138.035 79.1901 138.04C77.5551 138.045 76.6901 143.04 75.8351 146.815C74.9801 150.59 74.5151 152.48 73.3901 154.735C72.2651 156.99 68.2301 171.565 68.2301 171.565C68.2301 171.565 63.3601 185.735 62.0951 188.315C60.8301 190.895 58.2801 195.14 56.7201 197.04C55.1601 198.94 35.0601 222.795 35.0601 222.795Z" fill="white"/>
<path d="M108.045 145.925C108.045 145.925 104.61 143.205 101.51 140.925C98.4099 138.645 93.6099 150.025 89.7099 153.225C85.8099 156.425 84.6099 157.125 83.6099 159.525" stroke="#407BFF" stroke-width="0.567552" stroke-linecap="round" stroke-linejoin="round"/>
<path d="M93.2201 147.07C92.6883 148.727 91.9704 150.319 91.0801 151.815" stroke="#407BFF" stroke-width="0.567552" stroke-linecap="round" stroke-linejoin="round"/>
<path d="M100.885 151.74C101.336 150.02 101.489 148.236 101.34 146.465" stroke="#407BFF" stroke-width="0.567552" stroke-linecap="round" stroke-linejoin="round"/>
<path d="M79.19 154.115C79.19 154.115 82.055 138.185 79.19 138.01C76.325 137.835 76.325 148.39 74.215 152.7C72.105 157.01 67.795 174.425 64.8 181.9C61.805 189.375 60.23 192.365 58.03 195.355C55.83 198.345 34.46 223.5 34.46 223.5" stroke="#407BFF" stroke-width="0.567552" stroke-linecap="round" stroke-linejoin="round"/>
<path d="M96.3752 144.345C96.3752 144.345 92.8752 140.475 90.3752 140.91C87.8752 141.345 84.7552 144.625 81.7452 150.055C78.7352 155.485 76.1152 157.91 73.9102 159.5C71.7052 161.09 72.1052 164.105 71.2002 165.41" stroke="#407BFF" stroke-width="0.567552" stroke-linecap="round" stroke-linejoin="round"/>
<path d="M82.0901 162.195C81.849 163.006 81.7294 163.849 81.7351 164.695" stroke="#407BFF" stroke-width="0.567552" stroke-linecap="round" stroke-linejoin="round"/>
<path d="M63.79 233.7C63.79 233.7 75.895 207.535 77.36 204.605C77.36 204.605 84.085 199.345 88.485 196.78C92.885 194.215 103.155 189.2 104.985 187.245C106.815 185.29 109.14 176.12 109.875 173.92C110.61 171.72 110.24 169.64 111.34 166.705C112.44 163.77 111.34 162.395 109.14 163.39C106.94 164.385 104.74 168.415 104.25 170.495C103.76 172.575 99 176.73 99 176.73C99 176.73 100 167.66 103.035 161.68C103.035 161.68 109.89 153.625 111.78 152.18C111.78 152.18 115.625 154.745 117.705 153.645C119.785 152.545 116.97 149.85 115.26 147.895C113.55 145.94 110.49 143.985 108.045 145.945C105.6 147.905 97.165 155.265 93.375 157.57C89.585 159.875 89.585 160.245 88.875 162.325" stroke="#407BFF" stroke-width="0.567552" stroke-linecap="round" stroke-linejoin="round"/>
<g opacity="0.5">
<path d="M88.3349 195.13C91.6898 193.507 94.941 191.679 98.07 189.655C101.11 187.755 105.33 184.325 103.07 180.755C101.52 177.845 95.45 183.15 92.8899 180.43C92.3752 179.864 92.0577 179.146 91.985 178.385C91.625 175.035 94.8249 171.925 95.1999 168.575C95.4649 166.265 95.26 160.85 91.58 159.72C89.32 159.025 88.1999 162.195 88.1999 165.54C86.9499 162.935 86.0499 160.245 83.79 160.63C81.735 160.745 80.72 162.435 80.79 165.94C78.12 165.44 78.135 163.2 77.79 161.04C77.465 159.085 74.79 158.96 73.385 159.765C71.98 160.57 70.3599 166.62 69.9649 168.115C65.6299 184.465 61.465 193.725 51.92 204.77C50.12 206.86 48.5 208.445 46.78 210.395C46.5244 210.695 46.3685 211.068 46.3336 211.461C46.2988 211.854 46.3867 212.248 46.5854 212.588C46.784 212.929 47.0836 213.2 47.4426 213.363C47.8017 213.526 48.2026 213.574 48.59 213.5C55.2 212.235 62.305 206.865 68.22 210.315C69.0019 210.788 69.8769 211.086 70.785 211.19C75.415 211.645 74.46 206.14 76.625 203.575C79.5 200.205 84.3449 196.96 88.3349 195.13Z" fill="#A2B1FF"/>
<path opacity="0.2" d="M88.3349 195.13C91.6898 193.507 94.941 191.679 98.07 189.655C101.11 187.755 105.33 184.325 103.07 180.755C101.52 177.845 95.45 183.15 92.8899 180.43C92.3752 179.864 92.0577 179.146 91.985 178.385C91.625 175.035 94.8249 171.925 95.1999 168.575C95.4649 166.265 95.26 160.85 91.58 159.72C89.32 159.025 88.1999 162.195 88.1999 165.54C86.9499 162.935 86.0499 160.245 83.79 160.63C81.735 160.745 80.72 162.435 80.79 165.94C78.12 165.44 78.135 163.2 77.79 161.04C77.465 159.085 74.79 158.96 73.385 159.765C71.98 160.57 70.3599 166.62 69.9649 168.115C65.6299 184.465 61.465 193.725 51.92 204.77C50.12 206.86 48.5 208.445 46.78 210.395C46.5244 210.695 46.3685 211.068 46.3336 211.461C46.2988 211.854 46.3867 212.248 46.5854 212.588C46.784 212.929 47.0836 213.2 47.4426 213.363C47.8017 213.526 48.2026 213.574 48.59 213.5C55.2 212.235 62.305 206.865 68.22 210.315C69.0019 210.788 69.8769 211.086 70.785 211.19C75.415 211.645 74.46 206.14 76.625 203.575C79.5 200.205 84.3449 196.96 88.3349 195.13Z" fill="white"/>
</g>
<path d="M180.935 162.855C181.392 163.773 181.587 164.799 181.5 165.82" stroke="#407BFF" stroke-width="0.567552" stroke-linecap="round" stroke-linejoin="round"/>
<path d="M158.725 147.215L156.19 147.875" stroke="#407BFF" stroke-width="0.567552" stroke-linecap="round" stroke-linejoin="round"/>
<path d="M175.065 163.39C175.492 164.235 175.608 165.203 175.395 166.125" stroke="#407BFF" stroke-width="0.567552" stroke-linecap="round" stroke-linejoin="round"/>
</svg>
