<svg width="34" height="34" viewBox="0 0 34 34" fill="none" xmlns="http://www.w3.org/2000/svg">
<path fill-rule="evenodd" clip-rule="evenodd" d="M8.24094 0H20.4005L30.6005 10.2V29.5737C30.6005 32.0205 28.483 34 25.8748 34H8.13528C5.51798 34 3.40051 32.0205 3.40051 29.5737V4.42623C3.40047 1.97946 5.62359 0 8.24094 0Z" fill="#D92D20"/>
<path d="M20.4222 6.936V0L30.6004 10.2H23.8149C20.7615 10.2 20.2808 8.024 20.4222 6.936Z" fill="white" fill-opacity="0.3"/>
<path d="M8.87063 27.7046V21.1567H11.4546C11.9439 21.1567 12.3672 21.2446 12.7246 21.4204C13.085 21.5933 13.3618 21.8408 13.5552 22.1631C13.7515 22.4854 13.8496 22.8662 13.8496 23.3057C13.8496 23.7451 13.75 24.126 13.5508 24.4482C13.3545 24.7676 13.0762 25.0151 12.7158 25.1909C12.3555 25.3667 11.9292 25.4546 11.437 25.4546H10.2241V27.7046H8.87063ZM10.2241 24.3208H11.3667C11.7241 24.3208 12.0069 24.23 12.2149 24.0483C12.4229 23.8638 12.5269 23.6162 12.5269 23.3057C12.5269 22.9922 12.4229 22.7446 12.2149 22.563C12.0069 22.3813 11.7241 22.2905 11.3667 22.2905H10.2241V24.3208ZM16.8687 27.7046H14.5572V21.1567H16.895C17.5513 21.1567 18.1197 21.29 18.6001 21.5566C19.0806 21.8232 19.4512 22.2012 19.7119 22.6904C19.9727 23.1797 20.1031 23.7583 20.1031 24.4263C20.1031 25.0972 19.9727 25.6787 19.7119 26.1709C19.4512 26.6602 19.0791 27.0381 18.5957 27.3047C18.1153 27.5713 17.5396 27.7046 16.8687 27.7046ZM15.9107 26.5664H16.7984C17.4605 26.5664 17.9497 26.3818 18.2661 26.0127C18.5825 25.6436 18.7407 25.1147 18.7407 24.4263C18.7407 23.7378 18.5811 23.2104 18.2617 22.8442C17.9453 22.478 17.4619 22.2949 16.8115 22.2949H15.9107V26.5664ZM20.8677 27.7046V21.1567H25.4204V22.3169H22.2212V23.9253H25.2007V25.0503H22.2212V27.7046H20.8677Z" fill="white"/>
</svg>
