<svg width="240" height="201" viewBox="0 0 240 201" fill="none" xmlns="http://www.w3.org/2000/svg">
<path d="M141.675 200.538C195.978 200.538 240 156.516 240 102.213C240 47.9089 195.978 3.88721 141.675 3.88721C87.3713 3.88721 43.3495 47.9089 43.3495 102.213C43.3495 156.516 87.3713 200.538 141.675 200.538Z" fill="#F6F7FF"/>
<path d="M117.419 184.97C79.409 183.461 41.3987 181.952 3.38841 180.443C0.776296 180.339 -0.610824 178.183 0.259674 175.62C17.5197 124.126 25.7878 71.4103 24.7931 19.1916C24.7321 16.5924 26.7743 14.572 29.3864 14.6757C67.3967 16.1849 105.407 17.694 143.417 19.2031C145.915 19.2694 148.262 21.6314 148.283 24.0946C149.277 76.3135 141.01 129.029 123.75 180.523C122.961 182.954 119.907 185.102 117.419 184.97Z" fill="#B4C0FF"/>
<path d="M139.429 200.533C101.419 199.024 63.4087 197.515 25.3984 196.006C22.7863 195.902 21.3992 193.745 22.2697 191.183C39.5297 139.689 47.7978 86.9728 46.8031 34.7541C46.7421 32.155 48.7843 30.1344 51.3964 30.2382C89.4067 31.7474 127.417 33.2565 165.427 34.7656C167.925 34.8319 170.272 37.1939 170.293 39.6571C171.288 91.876 163.02 144.591 145.76 196.086C144.971 198.517 141.917 200.665 139.429 200.533Z" fill="#0049D4"/>
<path d="M132.696 190.613C94.6554 190.613 56.6152 190.613 18.5749 190.613C15.9608 190.613 14.4767 188.513 15.2294 185.919C30.1228 133.78 35.9776 80.7779 32.6019 28.6398C32.4223 26.0451 34.3703 23.9452 36.9844 23.9452C75.0246 23.9452 113.065 23.9452 151.105 23.9452C153.603 23.9123 156.055 26.1795 156.189 28.6398C159.565 80.7782 153.71 133.78 138.817 185.919C138.139 188.379 135.186 190.646 132.696 190.613Z" fill="white"/>
<path d="M123.571 51.3839C104.767 51.3839 85.9622 51.3839 67.1576 51.3839C67.1245 49.3435 67.102 48.3237 67.0449 46.2856C85.8495 46.2856 104.654 46.2856 123.458 46.2856C123.516 48.3238 123.538 49.3435 123.571 51.3839Z" fill="#3353F8" fill-opacity="0.25"/>
<path d="M143.774 66.7113C111.487 66.7113 79.2005 66.7113 46.9138 66.7113C46.9523 64.665 46.9657 63.6422 46.9803 61.5977C79.2671 61.5977 111.554 61.5977 143.841 61.5977C143.826 63.6422 143.813 64.665 143.774 66.7113Z" fill="#3353F8" fill-opacity="0.25"/>
<path d="M77.3815 133.359C65.1346 133.359 52.8876 133.359 40.6407 133.359C40.9875 131.309 41.1551 130.284 41.4783 128.233C53.7253 128.233 65.9723 128.233 78.2191 128.233C77.8959 130.284 77.7284 131.309 77.3815 133.359Z" fill="#3353F8" fill-opacity="0.25"/>
<path d="M134.635 148.723C102.348 148.723 70.0609 148.723 37.7742 148.723C38.1917 146.677 38.3945 145.653 38.7886 143.605C71.0754 143.605 103.362 143.605 135.649 143.605C135.255 145.653 135.052 146.677 134.635 148.723Z" fill="#3353F8" fill-opacity="0.25"/>
<path d="M131.315 163.727C99.0283 163.727 66.7415 163.727 34.4548 163.727C34.9413 161.687 35.1786 160.666 35.6416 158.624C67.9283 158.624 100.215 158.624 132.502 158.624C132.039 160.666 131.802 161.687 131.315 163.727Z" fill="#3353F8" fill-opacity="0.25"/>
<path d="M95.3585 112.451C95.1082 112.469 94.8583 112.468 94.6085 112.446C93.136 112.316 91.693 111.432 90.4998 110.003C88.5869 111.707 85.3122 113.266 82.85 112.894C79.9354 112.455 78.3951 109.815 77.2919 107.625C76.7533 106.556 76.3673 105.135 76.0562 103.689C72.3242 106.792 68.5001 109.627 64.4931 112.34C64.0433 111.58 63.8176 111.2 63.3647 110.44C67.6121 107.557 71.8184 104.575 75.6297 101.094C75.1354 96.3712 75.5086 90.9218 77.8996 86.3955C79.317 83.7121 82.8951 77.9387 86.2305 78.8677C88.4557 79.4874 88.3602 83.0596 88.263 84.6922C88.254 84.8459 88.2465 84.9832 88.2409 85.0957C87.9167 91.6839 82.7808 97.1774 78.1306 101.818C78.4184 103.578 78.8727 105.183 79.4534 106.505C80.5059 108.899 81.9228 110.349 83.4694 110.587C85.0956 110.837 87.1791 109.804 89.2562 108.145C89.0844 107.826 88.924 107.489 88.7732 107.144C87.4886 104.205 87.1373 100.355 89.0152 97.3413C90.6874 94.6573 93.9374 92.8153 96.9812 92.4645C98.4322 92.2973 99.6528 92.639 100.113 93.3731C101.549 95.6646 99.2661 99.5385 97.705 101.928C96.2384 104.174 94.3454 106.518 92.3585 108.382C93.2047 109.398 94.2467 110.125 95.0818 110.121C98.3626 110.106 101.845 105.33 103.921 102.63C106.064 99.8417 107.302 98.29 108.669 99.0399C109.818 99.6705 109.305 101.137 108.7 102.834C108.123 104.449 107.211 107.101 107.982 107.912C109.846 109.873 115.256 107.743 117.844 106.956C118.061 107.835 118.169 108.275 118.381 109.155C114.688 110.295 108.599 112.535 106.036 109.416C104.846 107.97 105.412 105.488 106.075 103.485C105.949 103.644 105.823 103.801 105.706 103.953C103.133 107.3 99.721 111.699 95.3585 112.451ZM97.2154 94.7687C97.0281 94.7823 96.8119 94.8093 96.5647 94.8563C94.7268 95.2058 92.1611 96.4889 90.9691 98.4453C89.6307 100.642 90.0018 104.018 90.9384 106.034C91.0048 106.177 91.0703 106.329 91.1399 106.472C92.2982 105.342 93.4674 104.059 94.3785 102.788C96.0705 100.428 98.0182 97.8141 98.2159 94.8753C98.174 94.8421 97.8719 94.7212 97.2154 94.7687ZM85.3123 81.0726C82.901 82.4457 81.1709 84.9459 79.966 87.3449C78.1313 90.9974 77.5949 95.1392 77.8247 99.0102C81.4923 95.1001 85.6566 90.4888 85.9123 85.1374C85.9183 85.0116 85.9263 84.8582 85.9363 84.6868C86.0982 81.9163 85.7184 81.1914 85.3789 81.0735C85.3579 81.0712 85.3359 81.0709 85.3123 81.0726Z" fill="#3353F8"/>
<path d="M113.063 94.9801C113.056 95.8814 112.314 96.6652 111.41 96.7307C110.505 96.7961 109.781 96.1184 109.789 95.2172C109.796 94.3159 110.532 93.5322 111.436 93.4668C112.34 93.4013 113.07 94.0788 113.063 94.9801Z" fill="#3353F8"/>
<path d="M60.7702 113.788C60.729 114.609 60.0232 115.323 59.1968 115.383C58.3704 115.442 57.7366 114.825 57.7783 114.004C57.8199 113.183 58.5208 112.468 59.3467 112.409C60.1728 112.349 60.8114 112.967 60.7702 113.788Z" fill="#3353F8"/>
<path d="M39.7189 12.6152L55.2209 33.9176C55.7456 34.6387 56.8857 34.29 56.9173 33.3987L57.807 8.26172L39.7189 12.6152Z" fill="#3A3168"/>
<path d="M51.5775 18.0266C57.9189 16.1898 62.1065 11.41 60.9307 7.35042C59.7549 3.29088 53.661 1.48894 47.3195 3.32567C40.9781 5.1624 36.7906 9.94227 37.9664 14.0018C39.1422 18.0613 45.2361 19.8633 51.5775 18.0266Z" fill="#F6F7FF"/>
<mask id="mask0_233_5313" style="mask-type:luminance" maskUnits="userSpaceOnUse" x="43" y="3" width="197" height="198">
<path d="M141.675 200.538C195.978 200.538 240 156.516 240 102.213C240 47.9089 195.978 3.88721 141.675 3.88721C87.3711 3.88721 43.3494 47.9089 43.3494 102.213C43.3494 156.516 87.3711 200.538 141.675 200.538Z" fill="white"/>
</mask>
<g mask="url(#mask0_233_5313)">
<g opacity="0.3">
<path d="M236.23 118.729L233.397 118.267L209.439 114.374L208.152 117.712L168.656 108.106L168.656 108.105C168.499 107.064 168.244 105.474 167.894 103.567L167.894 103.566C167.648 102.229 167.355 100.736 167.014 99.1644L166.607 97.128L166.553 97.121C164.586 88.7421 161.352 79.1779 156.847 79.2317C155.856 77.619 154.378 76.1698 152.162 75.6407C151.569 75.4959 150.921 75.4181 150.217 75.4224C150.115 75.1771 150.013 74.9344 149.907 74.6966C148.795 72.1755 147.483 70.1335 146.098 69.9586C144.995 69.8185 143.795 69.8356 142.654 69.9323C141.68 70.012 140.752 70.1497 139.954 70.2926L139.951 70.2934L139.923 70.212C139.908 70.167 139.899 70.1449 139.899 70.1449L139.804 69.8822C139.305 68.4747 137.869 67.6271 136.396 67.8706C130.602 68.8279 116.714 71.5468 113.272 76.0783C108.891 81.8439 123.39 78.784 126.622 77.5129C129.857 76.241 131.569 76.537 132.265 78.3729C132.623 79.3171 134.271 86.3247 135.358 93.0647L135.606 94.664C136.459 100.42 136.783 105.6 135.38 106.111C132.225 107.261 126.696 104.909 125.097 99.6941C124.766 98.6166 124.43 97.238 124.067 95.7389L124.065 95.7331C123.733 94.3623 123.379 92.8914 122.987 91.4569L122.985 91.4487H122.984C121.731 86.867 120.092 82.6649 117.559 83.329C114.96 84.0084 114.037 86.7131 114.094 90.2911L114.093 90.2909L114.094 90.3117C114.103 90.8417 114.133 91.3907 114.183 91.9551L114.184 91.9878L114.185 91.9881C114.343 93.7577 114.687 95.6766 115.151 97.6318C116.77 104.447 116.703 113.758 131.675 123.542C140.169 129.094 169.233 144.931 192.786 157.593L191.033 162.143L203.224 169.193L204.914 170.17L242.285 191.786L268.074 123.908L236.23 118.729Z" fill="#F6F7FF"/>
</g>
</g>
<mask id="mask1_233_5313" style="mask-type:luminance" maskUnits="userSpaceOnUse" x="43" y="3" width="197" height="198">
<path d="M141.675 200.538C195.978 200.538 240 156.516 240 102.213C240 47.9089 195.978 3.88721 141.675 3.88721C87.3711 3.88721 43.3494 47.9089 43.3494 102.213C43.3494 156.516 87.3711 200.538 141.675 200.538Z" fill="white"/>
</mask>
<g mask="url(#mask1_233_5313)">
<path d="M246.476 111.766L231.307 161.07C217.268 155.319 149.613 127.517 135.415 120.125C119.55 111.868 118.696 102.595 116.412 95.9732C114.129 89.3477 113.324 83.0102 117.396 81.5026C121.463 79.9934 124.408 92.0143 126.513 97.0434C128.619 102.075 134.354 103.869 137.379 102.414C140.405 100.958 132.414 76.8765 131.54 75.1184C130.666 73.3602 128.934 73.2348 125.84 74.8199C122.749 76.4041 108.624 80.8808 112.414 74.7109C115.391 69.8616 128.943 65.7843 134.614 64.2594C136.056 63.8718 137.569 64.5733 138.204 65.9247L138.324 66.1766C138.324 66.1766 138.336 66.1978 138.355 66.2411L138.391 66.3193L138.393 66.3182C139.174 66.0973 140.084 65.8685 141.045 65.693C142.171 65.484 143.363 65.3485 144.475 65.379C145.871 65.4162 147.378 67.3186 148.733 69.7177C148.862 69.9439 148.987 70.1752 149.114 70.4093C149.813 70.3355 150.466 70.349 151.071 70.4344C153.328 70.7422 154.941 72.0383 156.087 73.5452C163.04 72.7711 169.234 95.3795 170.69 101.111C170.69 101.111 170.69 101.111 170.691 101.114L246.476 111.766Z" fill="#FDC8AA"/>
<path d="M153.075 79.6728C153.1 79.5875 153.099 74.7401 151.07 70.4349C150.466 70.3495 149.813 70.3361 149.113 70.4098C149.113 70.4098 152.034 76.7707 153.075 79.6728Z" fill="#EFA37D"/>
<path d="M145.001 80.3591C143.237 76.3369 138.983 67.541 138.393 66.3181C139.174 66.0972 140.084 65.8684 141.045 65.6929C143.357 71.112 145.001 80.3591 145.001 80.3591Z" fill="#EFA37D"/>
<path d="M136.474 91.001L169.483 96.6681L167.567 90.3882L136.068 89.4258L136.474 91.001Z" fill="#EFA37D"/>
<path d="M160.163 99.6328L240.245 132.017L246.639 111.789L160.163 99.6328Z" fill="#EFA37D"/>
<path d="M271.183 107.017L252.224 177.111L212.9 159.291L211.122 158.484L210.33 158.126L198.295 152.674L211.892 103.321L236.117 104.828L237.101 104.889L238.983 105.007L271.183 107.017Z" fill="#113D92"/>
<path d="M202.007 74.7104L201.041 81.8286L199.742 91.3739L110.011 88.6323L104.552 83.4144L112.044 80.5939L202.007 74.7104Z" fill="#3353F8"/>
<path d="M202.007 77.0508L201.041 84.1689L111.537 86.4928L112.044 82.9342L202.007 77.0508Z" fill="#3A3168"/>
<path d="M205.163 83.5146C204.981 88.0329 202.139 91.469 199.744 91.3726C197.349 91.2762 196.307 87.6838 196.489 83.1655C196.671 78.6473 199.613 74.6128 202.008 74.7092C204.403 74.8056 205.345 78.9963 205.163 83.5146Z" fill="#3A3168"/>
<path d="M114.893 90.4519L125.097 93.2089L123.597 89.0464L114.634 88.7725L114.893 90.4519Z" fill="#EFA37D"/>
<path d="M237.101 104.889C233.854 125.451 224.233 143.89 210.33 158.126L198.295 152.674L211.892 103.321L236.117 104.828L237.101 104.889Z" fill="#0049D4"/>
<path d="M209.895 148.894C210.374 147.362 209.521 145.732 207.989 145.253C206.457 144.773 204.827 145.627 204.348 147.159C203.869 148.69 204.722 150.321 206.254 150.8C207.785 151.279 209.416 150.426 209.895 148.894Z" fill="white"/>
</g>
</svg>
