<svg width="250" height="228" viewBox="0 0 250 228" fill="none" xmlns="http://www.w3.org/2000/svg">
<path d="M163.356 172.716C122.766 185.238 82.1766 197.761 41.5869 210.283C39.2926 211.023 37.3197 209.274 37.2356 206.984C33.1143 145.314 3.78976 88.6216 0.00948901 26.9471C-0.126641 24.8793 1.21023 22.6935 3.48533 22.8107C39.5252 25.5705 75.5651 28.3305 111.605 31.0917C113.649 31.3071 115.469 32.7794 116 34.7815C126.964 81.4723 155.826 121.543 166.788 168.189C167.142 170.37 165.281 172.121 163.356 172.716Z" fill="#C7DEFF"/>
<path d="M107.4 56.6721C77.7455 56.3938 48.0913 56.1159 18.437 55.8381C16.7173 55.822 15.0199 54.23 14.6739 52.2806C14.328 50.3312 15.4576 48.7826 17.1676 48.8235C46.6563 49.5291 76.1449 50.2348 105.634 50.9409C107.344 50.9817 109.111 52.2909 109.604 53.8611C110.096 55.4314 109.119 56.6882 107.4 56.6721Z" fill="white"/>
<path d="M113.51 73.8575C83.4241 74.8958 53.3378 75.9344 23.2516 76.9729C21.5069 77.0332 19.6919 75.5078 19.2163 73.5653C18.7407 71.6227 19.7791 70.0191 21.5161 69.9843C51.4693 69.3858 81.4227 68.7871 111.376 68.1887C113.113 68.1541 114.99 69.387 115.583 70.9395C116.177 72.4921 115.255 73.7973 113.51 73.8575Z" fill="white"/>
<path d="M120.426 90.887C89.982 93.281 59.5383 95.6753 29.0946 98.0693C27.3291 98.2081 25.4427 96.7468 24.8898 94.8054C24.337 92.8642 25.3228 91.1995 27.0817 91.0869C57.4132 89.1461 87.7446 87.2052 118.076 85.2644C119.835 85.1519 121.784 86.3103 122.436 87.8496C123.088 89.3893 122.191 90.7481 120.426 90.887Z" fill="white"/>
<path d="M127.683 107.809C96.9209 111.602 66.1584 115.395 35.3959 119.188C33.612 119.408 31.6983 118.008 31.1208 116.062C30.5433 114.117 31.5167 112.384 33.2946 112.191C63.9536 108.867 94.6126 105.542 125.272 102.217C127.05 102.024 129.034 103.11 129.703 104.64C130.372 106.171 129.467 107.59 127.683 107.809Z" fill="white"/>
<path d="M141.765 142.604C110.312 149.435 78.8588 156.267 47.4057 163.098C45.5817 163.494 43.7451 162.214 43.2826 160.242C42.82 158.27 43.9019 156.377 45.7187 156.01C77.0486 149.68 108.379 143.351 139.709 137.022C141.525 136.655 143.475 137.595 144.046 139.122C144.618 140.648 143.589 142.208 141.765 142.604Z" fill="white"/>
<path d="M147.194 159.504C115.316 167.889 83.4378 176.275 51.5597 184.661C49.711 185.148 47.9726 183.922 47.6462 181.929C47.3197 179.935 48.5227 177.953 50.3626 177.497C82.0899 169.632 113.817 161.767 145.545 153.902C147.384 153.446 149.269 154.317 149.729 155.849C150.189 157.38 149.043 159.017 147.194 159.504Z" fill="white"/>
<path opacity="0.48" d="M130.417 92.922C112.085 93.2322 93.7536 93.5424 75.4222 93.8527C74.3591 93.8707 73.3209 92.9278 73.1027 91.7474C72.8845 90.5669 73.5652 89.6086 74.623 89.6062C92.8644 89.5648 111.106 89.5233 129.347 89.4819C130.405 89.4796 131.504 90.2421 131.802 91.1841C132.1 92.1263 131.48 92.9041 130.417 92.922Z" fill="#C7DEFF"/>
<path d="M178.339 171.206C136.654 179.374 94.9691 187.542 53.2844 195.71C50.9248 196.204 49.1476 194.256 49.3055 191.97C51.7169 130.209 28.5402 70.7385 31.291 9.00953C31.3739 6.93899 32.934 4.90642 35.184 5.26315C70.7312 11.8117 106.278 18.3605 141.825 24.9103C143.835 25.3402 145.49 26.9964 145.807 29.0434C151.781 76.6305 176.252 119.524 182.229 167.066C182.351 169.273 180.315 170.817 178.339 171.206Z" fill="#1774FF"/>
<path d="M134.944 49.9036C105.485 46.4966 76.0255 43.0902 46.5662 39.6839C44.8578 39.4864 43.3379 37.724 43.1996 35.749C43.0614 33.774 44.3481 32.3533 46.0443 32.5744C75.2937 36.3887 104.543 40.203 133.792 44.0179C135.489 44.239 137.108 45.7274 137.432 47.3408C137.756 48.9544 136.652 50.1011 134.944 49.9036Z" fill="#C7DEFF"/>
<path d="M139.206 67.6381C109.179 65.495 79.1507 63.352 49.1229 61.2089C47.3816 61.0847 45.7377 59.3762 45.4697 57.3944C45.2018 55.4125 46.4037 53.9274 48.1347 54.0762C77.9838 56.6426 107.833 59.209 137.682 61.7757C139.413 61.9245 141.149 63.3487 141.576 64.9552C142.002 66.5619 140.948 67.7625 139.206 67.6381Z" fill="#C7DEFF"/>
<path d="M144.286 85.302C113.759 84.4692 83.2331 83.6367 52.7067 82.8039C50.9365 82.7555 49.2147 81.1033 48.8699 79.1144C48.5251 77.1258 49.6811 75.5744 51.4422 75.648C81.809 76.9197 112.176 78.1912 142.543 79.4628C144.304 79.5366 146.119 80.8943 146.605 82.4939C147.091 84.0938 146.056 85.3504 144.286 85.302Z" fill="#C7DEFF"/>
<path d="M149.717 102.896C118.726 103.421 87.7345 103.945 56.7435 104.47C54.9464 104.5 53.1912 102.906 52.8223 100.91C52.4533 98.9148 53.6041 97.2947 55.3925 97.2907C86.2312 97.2206 117.07 97.1505 147.909 97.0806C149.697 97.0766 151.555 98.3656 152.059 99.9583C152.563 101.551 151.514 102.866 149.717 102.896Z" fill="#C7DEFF"/>
<path d="M160.047 138.983C128.048 142.456 96.0498 145.929 64.0513 149.403C62.1957 149.604 60.5045 148.137 60.2526 146.127C60.0008 144.117 61.2765 142.349 63.1219 142.175C94.9449 139.188 126.768 136.202 158.591 133.215C160.436 133.041 162.276 134.182 162.683 135.76C163.09 137.339 161.902 138.781 160.047 138.983Z" fill="#C7DEFF"/>
<path d="M163.662 156.362C131.077 161.335 98.4914 166.31 65.9061 171.284C64.0165 171.572 62.4171 170.17 62.3029 168.153C62.1887 166.137 63.5941 164.293 65.4719 164.033C97.8522 159.561 130.232 155.089 162.613 150.617C164.49 150.358 166.272 151.423 166.568 152.994C166.864 154.566 165.552 156.073 163.662 156.362Z" fill="#C7DEFF"/>
<path d="M105.615 130.586L104.624 129.164C107.03 127.487 109.083 125.403 110.757 122.944C109.055 119.92 108.459 116.677 109.242 114.383C109.774 112.825 111.801 110.867 113.413 110.353C114.371 110.048 114.998 110.291 115.355 110.548C116.34 111.257 116.532 112.857 115.942 115.439C115.516 117.307 114.773 119.276 114.226 120.399C113.79 121.293 113.315 122.153 112.803 122.976C112.864 123.068 112.926 123.161 112.988 123.252C114.674 125.708 116.832 127.277 118.62 127.347C120.716 127.429 122.535 124.561 123.866 122.468C124.932 120.789 125.637 119.68 126.616 119.587C126.905 119.559 127.191 119.675 127.379 119.898C127.704 120.283 127.597 120.678 127.448 121.225C127.208 122.108 126.709 123.946 127.548 125.08C128.595 126.496 130.887 127.284 132.656 126.837C136.051 125.979 136.894 119.653 137.212 117.271C137.262 116.892 137.302 116.592 137.342 116.369C137.369 116.218 137.394 116.11 137.424 116.018C137.584 115.521 137.976 115.339 138.289 115.335C138.295 115.335 138.3 115.335 138.306 115.335C139.148 115.335 139.366 116.239 139.449 116.581C139.546 116.985 139.635 117.537 139.737 118.177C140.157 120.805 140.861 125.203 143.341 126.808C147.962 129.797 155.685 125.893 160.299 123.561L160.333 123.543L161.115 125.09L161.081 125.107C157.494 126.921 152.153 129.62 147.409 129.62C145.611 129.62 143.899 129.233 142.4 128.263C139.979 126.696 138.964 123.42 138.413 120.669C137.745 123.85 136.355 127.69 133.081 128.517C130.649 129.131 127.607 128.074 126.155 126.111C125.532 125.268 125.345 124.281 125.352 123.361C125.344 123.373 125.336 123.385 125.328 123.398C123.799 125.803 121.716 129.081 118.714 129.081C118.661 129.081 118.607 129.08 118.553 129.078C116.272 128.989 113.753 127.294 111.765 124.525C110.054 126.896 107.996 128.925 105.615 130.586ZM114.262 111.943C114.179 111.943 114.032 111.964 113.81 112.05C112.722 112.476 111.217 113.963 110.882 114.943C110.33 116.559 110.71 118.921 111.822 121.239C112.119 120.72 112.401 120.187 112.668 119.639C113.155 118.639 113.859 116.777 114.253 115.054C114.759 112.836 114.48 112.053 114.342 111.954C114.334 111.949 114.307 111.943 114.262 111.943Z" fill="#071F4D"/>
<path d="M128.013 118.521C127.899 118.521 127.783 118.498 127.672 118.451C127.232 118.262 127.029 117.753 127.217 117.313C127.392 116.903 127.48 116.699 127.655 116.29C127.843 115.85 128.352 115.646 128.792 115.834C129.232 116.022 129.436 116.531 129.248 116.971C129.073 117.38 128.985 117.585 128.81 117.995C128.669 118.324 128.349 118.521 128.013 118.521Z" fill="#071F4D"/>
<path d="M72.5583 134.151L72.4014 132.425C79.7033 131.761 87.062 131.096 94.2732 130.448L94.4283 132.174C87.2177 132.822 79.8595 133.487 72.5583 134.151Z" fill="#071F4D"/>
<path d="M49.5483 190.742C48.7397 190.742 47.9791 190.471 47.349 189.948C46.4254 189.181 45.9084 187.954 45.9655 186.666C46.4368 155.999 40.5159 125.53 34.7899 96.0655C31.8881 81.1331 28.8875 65.6923 26.755 50.4124C24.3623 33.269 23.3412 18.148 23.6331 4.18543C23.6546 2.87041 24.2154 1.61307 25.1332 0.823582C25.8895 0.173094 26.8131 -0.100386 27.8046 0.0328787C27.8073 0.033237 27.81 0.0335951 27.8126 0.0340966C63.5047 5.74083 99.1967 11.448 134.889 17.1561C134.892 17.1566 134.895 17.1571 134.898 17.1577C137.072 17.5692 138.855 19.3374 139.235 21.4575C139.235 21.4606 139.236 21.4637 139.236 21.4668C142.782 45.1616 151.061 67.9628 159.068 90.0133C160.505 93.9717 161.991 98.065 163.426 102.098C163.487 102.267 163.398 102.453 163.229 102.513C163.06 102.574 162.874 102.485 162.814 102.316C161.38 98.2848 159.894 94.1926 158.457 90.235C154.45 79.1992 150.306 67.7875 146.804 56.3981C142.875 43.62 140.19 32.2263 138.595 21.5679C138.26 19.7105 136.693 18.1608 134.782 17.7969C99.0941 12.0894 63.4025 6.38243 27.7147 0.676345C26.9137 0.569805 26.1676 0.790839 25.5569 1.31609C24.7892 1.97646 24.301 3.08055 24.2827 4.19747C23.6335 35.2499 29.6294 66.1036 35.4278 95.9415C38.2932 110.686 41.2561 125.933 43.3834 141.024C45.7704 157.956 46.8275 172.891 46.6152 186.681C46.6151 186.684 46.615 186.688 46.6149 186.691C46.5655 187.779 46.9951 188.809 47.7642 189.448C48.4583 190.024 49.3525 190.222 50.2823 190.004L70.8199 185.474C70.9949 185.435 71.1685 185.546 71.2071 185.721C71.2458 185.896 71.1351 186.07 70.9599 186.108L50.4263 190.638C50.1301 190.707 49.8362 190.742 49.5483 190.742Z" fill="#071F4D"/>
<path d="M121.256 192.548L108.462 197.365L105.319 198.55L84.6866 202.687C81.9251 194.25 69.7849 157.048 68.3143 150.24C67.632 147.087 67.5107 141.369 67.6038 135.722C61.8879 135.989 61.2208 124.615 62.2496 116.309C62.5918 113.538 64.6711 112.778 67.3526 113.034C67.3591 113.034 67.3656 113.036 67.3743 113.036C68.0198 113.099 68.702 113.22 69.4016 113.387C69.4666 112.902 69.6268 112.341 69.9431 111.715C70.3373 110.931 70.9806 110.045 71.9964 109.087C73.1054 108.039 74.8772 108.308 76.8438 109.228C76.8438 109.228 76.8459 109.228 76.8482 109.23C76.8525 109.233 76.859 109.235 76.8634 109.239C77.2792 109.432 77.7016 109.655 78.1305 109.902C78.2734 109.332 78.5376 108.68 79.0033 107.974C79.4582 107.281 80.1058 106.534 81.0219 105.767C83.2831 103.868 87.7104 107.753 91.1759 111.544C91.1759 111.544 91.2018 111.572 91.2495 111.624C91.1087 104.697 90.9311 85.1495 93.2855 80.5014C93.2855 80.5014 93.2877 80.5014 93.2877 80.4992C93.5649 79.9491 93.879 79.609 94.2342 79.5224C98.2412 78.5477 101.308 108.295 101.453 122.012C101.499 126.326 101.131 131.315 100.726 136.298V136.309C99.8397 147.165 98.7826 158.008 101.453 161.865C104.802 166.704 117.693 186.942 121.256 192.548Z" fill="white"/>
<path d="M121.256 192.548L108.462 197.365L89.2373 158.064C90.7578 157.713 91.0112 157.529 94.6673 155.872C97.117 154.763 99.4216 143.639 100.725 136.309C99.8396 147.165 98.7826 158.007 101.453 161.865C104.802 166.704 117.693 186.942 121.256 192.548Z" fill="#C7DEFF"/>
<path d="M87.9529 117.968C87.9529 117.968 86.2114 111.471 79.0032 107.975C78.5375 108.681 78.2733 109.333 78.1304 109.902C78.1304 109.902 85.6404 115.036 87.9529 117.968Z" fill="#C7DEFF"/>
<path d="M69.4016 113.387C69.4666 112.902 69.6268 112.341 69.9431 111.715C76.2417 113.168 81.6717 118.709 81.6717 118.709C81.6717 118.709 71.8037 113.617 69.4016 113.387Z" fill="#C7DEFF"/>
<path d="M95.6333 116.92C94.951 115.679 91.7715 112.193 91.2494 111.624C91.1086 104.697 90.931 85.1495 93.2854 80.5015C92.0313 89.1739 95.6333 116.92 95.6333 116.92Z" fill="#C7DEFF"/>
<path d="M68.4435 119.629C68.4435 119.629 65.6097 118.665 65.0141 119.629C64.4185 120.594 63.6416 136.682 67.6039 135.722C67.6039 135.722 67.884 122.906 68.4435 119.629Z" fill="#C7DEFF"/>
<path d="M122.175 194.318C122.068 194.318 121.962 194.264 121.9 194.167C121.9 194.166 121.567 193.64 120.982 192.723C119.333 190.128 104.768 167.226 101.186 162.05C98.5888 158.299 99.4003 148.435 100.259 137.991C100.711 132.495 101.179 126.812 101.128 122.015C101.057 115.252 100.292 105.27 99.2266 97.1764C97.9424 87.4249 96.3445 81.1626 94.8427 79.9951C94.5914 79.7998 94.4189 79.8121 94.3108 79.8384C93.7321 79.9792 92.3241 81.5427 91.752 92.9896C91.4072 99.8864 91.4927 107.621 91.5742 111.617C91.5778 111.797 91.4353 111.945 91.256 111.949C91.0765 111.954 90.9282 111.81 90.9246 111.631C90.8428 107.626 90.7574 99.8739 91.103 92.9573C91.6929 81.155 93.1287 79.4574 94.1572 79.207C94.5264 79.1173 94.8912 79.2097 95.2415 79.4822C97.3688 81.1358 98.933 89.971 99.8708 97.0916C100.94 105.209 101.706 115.222 101.778 122.009C101.829 126.835 101.36 132.534 100.907 138.045C100.477 143.274 100.07 148.212 100.077 152.42C100.084 157.065 100.622 160.094 101.72 161.68C105.309 166.866 119.881 189.778 121.531 192.374C122.115 193.292 122.449 193.819 122.449 193.819C122.545 193.97 122.5 194.171 122.349 194.267C122.295 194.301 122.235 194.318 122.175 194.318Z" fill="#071F4D"/>
<path d="M96.0385 117.788C95.9381 117.788 95.8391 117.742 95.7756 117.655C95.7547 117.626 93.6596 114.755 91.0091 111.843C88.9243 109.554 87.0725 107.863 85.5053 106.818C83.5716 105.528 82.1334 105.258 81.2308 106.016C79.7267 107.278 78.7896 108.613 78.4455 109.981C78.4017 110.155 78.2252 110.261 78.0512 110.217C77.8771 110.174 77.7715 109.997 77.8153 109.823C78.1935 108.319 79.2021 106.87 80.8131 105.519C82.8106 103.84 86.4028 105.821 91.4897 111.405C94.1653 114.345 96.2801 117.243 96.3011 117.272C96.4067 117.417 96.3746 117.621 96.2295 117.726C96.1717 117.768 96.1048 117.788 96.0385 117.788Z" fill="#071F4D"/>
<path d="M87.9529 118.293C87.8675 118.293 87.7823 118.26 87.7184 118.193C87.6671 118.14 82.5345 112.817 77.968 110.184C75.223 108.602 73.2889 108.313 72.2196 109.324C70.7424 110.719 69.9027 112.1 69.7236 113.431C69.6996 113.608 69.5358 113.733 69.3582 113.709C69.1804 113.685 69.0557 113.522 69.0796 113.344C69.2791 111.862 70.1854 110.351 71.7733 108.852C73.0758 107.62 75.2692 107.879 78.2926 109.621C82.9401 112.301 88.1354 117.689 88.1873 117.743C88.3115 117.873 88.3073 118.078 88.1779 118.202C88.1149 118.263 88.0338 118.293 87.9529 118.293Z" fill="#071F4D"/>
<path d="M67.4075 136.052C66.2385 136.052 65.2183 135.59 64.3723 134.676C61.2961 131.355 61.1324 122.685 61.9271 116.269C62.0852 114.992 62.6069 114.038 63.4775 113.433C64.7513 112.549 66.7697 112.427 69.4766 113.071C75.0101 114.385 81.7739 118.516 81.8416 118.558C81.9945 118.652 82.0423 118.852 81.9483 119.004C81.8544 119.157 81.6543 119.205 81.5015 119.111C81.4346 119.07 74.7578 114.993 69.3264 113.703C66.8068 113.104 64.9637 113.192 63.8482 113.967C63.1257 114.469 62.7082 115.248 62.5719 116.349C62.1303 119.915 62.0518 123.561 62.3509 126.617C62.7032 130.216 63.5671 132.851 64.8491 134.235C65.6202 135.067 66.5162 135.448 67.5886 135.398C67.7694 135.389 67.9199 135.528 67.9283 135.707C67.9366 135.886 67.7981 136.038 67.6188 136.047C67.5479 136.05 67.4774 136.052 67.4075 136.052Z" fill="#071F4D"/>
<path d="M68.0534 124.146C67.9792 124.146 67.9048 124.121 67.8438 124.069C65.6838 122.242 64.8631 119.833 64.8293 119.732C64.7725 119.562 64.8645 119.378 65.0348 119.321C65.2049 119.264 65.3888 119.356 65.4456 119.526C65.4556 119.556 66.2502 121.87 68.2635 123.573C68.4005 123.689 68.4176 123.894 68.3017 124.031C68.2373 124.107 68.1457 124.146 68.0534 124.146Z" fill="#071F4D"/>
<path d="M85.2439 159.122C85.0803 159.122 84.9395 158.998 84.9214 158.832C84.902 158.654 85.0307 158.493 85.2091 158.474C91.0206 157.84 94.4539 155.623 94.488 155.601C94.638 155.503 94.8394 155.544 94.9378 155.694C95.0363 155.844 94.9945 156.046 94.8445 156.144C94.7003 156.239 91.2451 158.469 85.2796 159.12C85.2676 159.121 85.2557 159.122 85.2439 159.122Z" fill="#071F4D"/>
<path d="M85.2453 204.714C85.1089 204.714 84.9819 204.627 84.9368 204.491C84.9368 204.491 84.7353 203.88 84.3778 202.788C80.898 192.157 69.4325 156.956 67.9967 150.309C67.4058 147.578 67.1643 142.668 67.2789 135.717C67.352 131.181 67.5645 126.734 67.7299 123.802C67.8692 121.277 67.9889 119.622 67.9902 119.606C68.0032 119.427 68.1595 119.291 68.3377 119.305C68.5167 119.318 68.6512 119.474 68.6382 119.653C68.637 119.669 68.5176 121.319 68.3786 123.838C68.2136 126.765 68.0015 131.203 67.9286 135.727C67.8148 142.629 68.0514 147.489 68.6317 150.172C70.061 156.788 81.5179 191.963 84.9953 202.586C85.3525 203.677 85.5538 204.287 85.5539 204.287C85.6101 204.458 85.5175 204.641 85.3471 204.698C85.3134 204.709 85.279 204.714 85.2453 204.714Z" fill="#071F4D"/>
<path d="M141.174 206.339L83.621 222.583L81.6716 203.523L84.6866 202.687L121.256 192.548L125.424 191.394L141.174 206.339Z" fill="#1774FF"/>
<path d="M91.5523 223.639C91.4222 223.639 91.2993 223.56 91.2494 223.431C91.1844 223.264 91.2673 223.076 91.4346 223.011L140.561 203.927L127.832 192.628L80.5674 205.434C80.394 205.48 80.2158 205.378 80.1689 205.205C80.1219 205.032 80.2243 204.853 80.3975 204.806L127.832 191.955C127.937 191.927 128.05 191.953 128.132 192.026L141.39 203.794C141.475 203.869 141.514 203.983 141.494 204.094C141.474 204.206 141.398 204.299 141.292 204.34L91.6699 223.617C91.6312 223.632 91.5914 223.639 91.5523 223.639Z" fill="#071F4D"/>
<path d="M91.8349 212.763C92.0672 211.331 91.0951 209.983 89.6636 209.75C88.232 209.518 86.8832 210.49 86.6509 211.922C86.4186 213.353 87.3907 214.702 88.8222 214.934C90.2538 215.167 91.6026 214.195 91.8349 212.763Z" fill="white"/>
<path d="M228.327 173.515L205.222 203.375C197.089 195.816 157.918 159.326 150.099 150.602C141.362 140.855 143.168 134.283 143.311 129.159C143.456 124.032 144.539 119.484 147.717 119.501C150.892 119.516 149.809 128.509 149.954 132.497C150.099 136.486 153.565 139.194 156.012 138.977C158.46 138.76 159.196 120.205 159.051 118.775C158.906 117.346 157.751 116.813 155.224 117.101C152.698 117.389 141.869 116.813 146.055 113.564C149.345 111.01 159.679 111.712 163.957 112.13C165.044 112.236 165.9 113.107 165.986 114.196L166.004 114.4C166.004 114.4 166.006 114.417 166.008 114.452L166.012 114.515H166.015C166.606 114.565 167.288 114.643 167.992 114.77C168.817 114.918 169.669 115.132 170.422 115.44C171.369 115.825 171.91 117.517 172.22 119.51C172.25 119.698 172.276 119.889 172.302 120.081C172.801 120.211 173.245 120.389 173.637 120.603C175.103 121.396 175.874 122.7 176.27 124.028C181.233 125.29 179.645 142.373 179.164 146.675C179.164 146.675 179.164 146.675 179.164 146.677L228.327 173.515Z" fill="white"/>
<path d="M172.627 127.448C172.666 127.396 173.916 124.076 173.636 120.603C173.244 120.389 172.8 120.211 172.302 120.082C172.302 120.082 172.663 125.192 172.627 127.448Z" fill="#C7DEFF"/>
<path d="M166.92 125.837C166.749 122.627 166.103 115.505 166.015 114.515C166.606 114.565 167.288 114.643 167.992 114.771C168.178 119.079 166.92 125.837 166.92 125.837Z" fill="#C7DEFF"/>
<path d="M158.335 130.928L179.483 143.321L179.79 138.526L158.463 129.744L158.335 130.928Z" fill="#C7DEFF"/>
<path d="M143.695 124.986L149.973 129.505L150.019 126.267L143.95 123.769L143.695 124.986Z" fill="#C7DEFF"/>
<path d="M172.335 142.947L218.837 185.78L228.433 173.573L172.335 142.947Z" fill="#C7DEFF"/>
<path d="M230.527 175.04C230.474 175.04 230.421 175.028 230.372 175.001L228.171 173.801L179.008 146.962C178.998 146.957 178.988 146.951 178.978 146.944L172.179 143.233C172.022 143.147 171.964 142.949 172.05 142.792C172.135 142.634 172.333 142.576 172.49 142.662L179.32 146.39C179.33 146.395 179.34 146.402 179.349 146.408L228.482 173.23L230.683 174.43C230.84 174.516 230.898 174.713 230.812 174.871C230.753 174.979 230.642 175.04 230.527 175.04Z" fill="#071F4D"/>
<path d="M179.164 147C179.152 147 179.14 146.999 179.128 146.998C178.95 146.978 178.821 146.817 178.841 146.639C179.074 144.559 179.597 139.186 179.434 134.222C179.237 128.249 178.116 124.832 176.19 124.342C176.016 124.298 175.911 124.121 175.955 123.947C176 123.774 176.177 123.668 176.35 123.713C178.617 124.29 179.873 127.818 180.083 134.201C180.248 139.206 179.721 144.617 179.487 146.711C179.468 146.877 179.328 147 179.164 147Z" fill="#071F4D"/>
<path d="M176.591 128.862C176.411 128.862 176.266 128.717 176.266 128.537C176.266 128.478 176.273 128.39 176.283 128.257C176.334 127.592 176.469 125.826 175.959 124.121C175.369 122.143 174.111 120.89 172.22 120.396C172.046 120.35 171.943 120.173 171.988 119.999C172.033 119.825 172.211 119.722 172.384 119.767C174.51 120.323 175.922 121.725 176.582 123.935C177.126 125.755 176.984 127.609 176.931 128.306C176.923 128.407 176.916 128.503 176.916 128.537C176.916 128.717 176.77 128.862 176.591 128.862Z" fill="#071F4D"/>
<path d="M206.702 205.075C206.622 205.075 206.543 205.046 206.48 204.988L205.001 203.613C197.174 196.338 157.732 159.605 149.857 150.818C146.432 146.998 144.305 143.325 143.355 139.591C142.53 136.353 142.714 133.597 142.877 131.165C142.924 130.461 142.968 129.795 142.986 129.15C143.068 126.249 143.434 123.939 144.074 122.284C144.87 120.221 146.09 119.176 147.698 119.176C147.705 119.176 147.712 119.176 147.718 119.176C148.22 119.178 148.657 119.367 149.017 119.738C150.492 121.255 150.391 125.568 150.301 129.372C150.274 130.536 150.248 131.636 150.279 132.485C150.345 134.31 151.178 136.059 152.565 137.283C153.644 138.235 154.922 138.747 155.984 138.653C156.085 138.644 156.192 138.539 156.263 138.452C157.069 137.477 157.785 133.856 158.277 128.257C158.677 123.703 158.788 119.403 158.728 118.808C158.682 118.354 158.522 118.022 158.239 117.794C157.719 117.376 156.745 117.255 155.261 117.424C154.188 117.546 151.804 117.511 149.67 117.24C146.847 116.881 145.229 116.242 144.861 115.339C144.603 114.704 144.938 114.02 145.856 113.307C147.335 112.159 150.286 111.52 154.627 111.408C158.076 111.319 161.621 111.575 163.989 111.807C165.235 111.928 166.211 112.922 166.31 114.171L166.336 114.488L167.244 125.81C167.258 125.989 167.125 126.146 166.946 126.16C166.768 126.175 166.61 126.041 166.596 125.862L165.688 114.541L165.663 114.223C165.588 113.288 164.858 112.544 163.925 112.453C161.576 112.224 158.059 111.969 154.644 112.057C150.444 112.166 147.622 112.759 146.255 113.821C145.801 114.173 145.295 114.68 145.463 115.093C145.721 115.725 147.324 116.287 149.752 116.595C151.837 116.86 154.153 116.896 155.187 116.778C156.876 116.586 157.976 116.748 158.647 117.288C159.066 117.626 159.311 118.115 159.374 118.742C159.448 119.468 159.312 123.904 158.924 128.314C158.406 134.209 157.679 137.759 156.764 138.866C156.545 139.131 156.302 139.277 156.041 139.301C154.806 139.41 153.345 138.838 152.135 137.77C150.615 136.429 149.702 134.511 149.629 132.508C149.598 131.64 149.624 130.531 149.652 129.357C149.73 126.047 149.836 121.513 148.551 120.191C148.314 119.947 148.04 119.827 147.715 119.826C147.71 119.826 147.704 119.826 147.699 119.826C144.56 119.826 143.757 124.904 143.636 129.168C143.618 129.826 143.573 130.498 143.525 131.209C143.205 136.007 142.806 141.979 150.341 150.385C158.197 159.15 197.62 195.866 205.444 203.137L206.923 204.512C207.054 204.634 207.062 204.84 206.94 204.971C206.876 205.04 206.789 205.075 206.702 205.075Z" fill="#071F4D"/>
<path d="M172.625 127.643C172.473 127.643 172.337 127.536 172.306 127.382C172.296 127.33 172.296 127.294 172.299 126.914C172.308 125.789 172.332 122.8 171.98 120.124C171.535 116.725 170.736 115.919 170.3 115.741C168.913 115.175 167.188 114.938 165.986 114.839C165.807 114.824 165.674 114.667 165.689 114.488C165.703 114.309 165.861 114.177 166.039 114.191C167.287 114.294 169.082 114.542 170.545 115.139C171.567 115.556 172.247 117.159 172.624 120.039C172.982 122.76 172.958 125.782 172.949 126.919C172.948 127.084 172.947 127.24 172.948 127.282C172.967 127.448 172.855 127.603 172.689 127.636C172.667 127.641 172.646 127.643 172.625 127.643ZM172.944 127.254C172.945 127.262 172.946 127.27 172.947 127.278C172.946 127.267 172.945 127.259 172.944 127.254Z" fill="#071F4D"/>
<path d="M249.163 173.806L214.075 223.694L200.429 207.016L202.777 203.982L225.881 174.122L228.082 171.278L249.163 173.806Z" fill="#33DA82"/>
<path d="M207.423 136.667L204.926 141.294L201.575 147.497L140.82 122.48L138.427 117.499H144.286L207.423 136.667Z" fill="#071F4D"/>
<path d="M207.423 136.667L204.926 141.294L143.021 119.805L144.286 117.499L207.423 136.667Z" fill="white"/>
<path d="M201.576 147.822C201.534 147.822 201.492 147.814 201.452 147.797L140.697 122.78C140.623 122.75 140.563 122.693 140.528 122.621L138.133 117.639C138.085 117.538 138.091 117.42 138.151 117.325C138.21 117.231 138.314 117.173 138.426 117.173H144.287C144.319 117.173 144.35 117.178 144.381 117.187L207.518 136.356C207.611 136.384 207.687 136.453 207.724 136.543C207.761 136.633 207.756 136.735 207.71 136.821L201.862 147.651C201.803 147.759 201.692 147.822 201.576 147.822ZM141.06 122.227L201.429 147.085L206.949 136.862L144.238 117.823H138.943L141.06 122.227Z" fill="#071F4D"/>
<path d="M207.314 143.512C206.024 146.56 203.192 148.181 201.576 147.497C199.96 146.813 200.173 144.084 201.463 141.036C202.752 137.988 205.808 135.983 207.424 136.667C209.04 137.351 208.604 140.464 207.314 143.512Z" fill="white"/>
<path d="M202.39 147.975C202.051 147.975 201.734 147.917 201.449 147.796C200.826 147.532 200.086 146.859 200.105 145.149C200.118 143.982 200.484 142.516 201.164 140.909C201.786 139.438 202.869 138.081 204.133 137.187C205.407 136.286 206.653 135.988 207.55 136.368C208.17 136.63 208.886 137.337 208.783 139.221C208.716 140.446 208.3 142.014 207.613 143.638C206.448 146.392 204.143 147.975 202.39 147.975ZM206.707 136.856C206.082 136.856 205.303 137.156 204.509 137.717C203.34 138.544 202.339 139.799 201.762 141.163C200.441 144.285 200.417 146.654 201.702 147.198C202.395 147.491 203.4 147.279 204.389 146.632C205.505 145.902 206.438 144.749 207.015 143.385C207.673 141.829 208.071 140.337 208.134 139.185C208.18 138.354 208.071 137.294 207.297 136.966C207.123 136.893 206.925 136.856 206.707 136.856Z" fill="#071F4D"/>
<path d="M213.925 227.731C213.919 227.731 213.913 227.731 213.907 227.73C213.795 227.724 213.693 227.66 213.64 227.561L202.485 206.984C202.425 206.873 202.435 206.737 202.51 206.636L229.801 169.923C229.908 169.779 230.111 169.749 230.255 169.856C230.399 169.963 230.429 170.167 230.322 170.311L203.155 206.857L213.96 226.789C225.582 210.17 246.714 179.836 249.14 175.935C246.773 175.732 238.18 174.526 235.323 174.121C235.145 174.096 235.021 173.931 235.046 173.753C235.072 173.576 235.236 173.453 235.414 173.477C240.803 174.241 249.016 175.358 249.612 175.319C249.738 175.299 249.87 175.356 249.94 175.464C250.075 175.67 249.99 175.805 249.578 176.453C249.332 176.84 248.958 177.409 248.466 178.144C247.554 179.509 246.201 181.498 244.445 184.057C241.489 188.365 237.352 194.347 232.147 201.837C223.286 214.588 214.281 227.464 214.192 227.592C214.131 227.679 214.031 227.731 213.925 227.731ZM249.608 175.32C249.605 175.32 249.602 175.321 249.6 175.321C249.603 175.321 249.605 175.32 249.608 175.32Z" fill="#071F4D"/>
<path d="M234.646 182.093C236.096 182.093 237.272 180.917 237.272 179.467C237.272 178.016 236.096 176.841 234.646 176.841C233.196 176.841 232.02 178.016 232.02 179.467C232.02 180.917 233.196 182.093 234.646 182.093Z" fill="white"/>
</svg>
