<svg width="110" height="99" viewBox="0 0 110 99" fill="none" xmlns="http://www.w3.org/2000/svg">
<path d="M72.7953 66.0933L72.9172 30.7977C72.9172 30.7254 72.8704 30.6531 72.7953 30.621L69.6271 29.0462C69.5521 29.0141 69.4583 29.0141 69.3927 29.0462L68.5397 29.472L68.5866 12.8245C68.5959 8.46987 65.0152 3.151 60.5909 0.957585C58.3881 -0.135098 56.3072 -0.295782 54.7418 0.491628L13.7229 20.9233C11.9538 21.8002 11.2952 23.6643 11.2952 25.4307L11.2578 43.4521L0.234425 48.9477C0.196871 48.9637 0.168756 48.9878 0.14998 49.02C0.140591 49.0361 0.140591 49.0522 0.131202 49.0682C0.131202 49.0843 0.112427 49.1004 0.112427 49.1164L6.88448e-05 84.42C-0.0298124 92.2303 9.67441 101.199 15.5601 98.3197C15.5601 98.3117 15.5695 98.3117 15.5695 98.3117L70.077 71.163C71.8298 70.2873 72.7953 68.4876 72.7953 66.0933ZM54.9761 0.83705C56.3915 0.130025 58.3037 0.290708 60.3565 1.30301C64.6497 3.43217 68.1272 8.59836 68.1179 12.8245L68.0053 54.0978L27.4552 74.2885C27.4626 71.5743 27.4218 86.4765 27.5676 33.2562C27.577 29.8416 25.3836 25.8484 22.3091 23.2292C18.6408 20.085 15.7142 20.4757 15.6163 20.4412L54.9761 0.83705ZM11.7639 25.4306C11.7898 19.9593 17.3467 19.4053 22.1873 23.6872C25.065 26.2341 27.1085 30.0184 27.0991 33.2482C26.9409 86.5105 26.9853 71.5717 26.9772 74.2965L23.9496 72.794L24.0714 31.5208C24.0714 29.0702 22.0561 26.0734 19.5627 24.8361C16.8844 23.5069 14.801 24.768 14.801 27.1661C14.7935 41.7761 14.7132 69.249 14.6603 89.2969L11.6515 87.8025L11.7639 25.4306ZM23.6027 31.5208L23.5371 51.8883L15.2134 56.0341C15.2904 16.4732 15.2639 30.1178 15.2696 27.1661C15.2696 25.0404 16.9831 24.0213 19.3284 25.1897C21.6905 26.3546 23.6027 29.1988 23.6027 31.5208ZM11.2578 43.9181V46.6096L3.52454 50.4582L0.815442 49.1164L11.2578 43.9181ZM9.23295 97.4359C4.3869 95.0336 0.450004 89.2005 0.46878 84.42L0.581137 49.4699L3.29023 50.8117C3.27973 53.843 3.33182 38.8151 3.16823 85.9948C3.15884 88.4854 4.77122 91.402 7.02089 93.3142C10.7928 96.5479 15.0948 95.8406 15.1196 91.6751C15.1767 76.7763 15.232 56.7974 15.2322 56.717L17.941 58.0587C17.9414 58.1491 17.9898 94.0182 17.463 95.4996C17.4536 95.5076 17.4536 95.5076 17.4536 95.5156C16.4883 98.1678 13.4828 99.53 9.23295 97.4359ZM69.8427 70.8176L17.1069 97.0824C17.2436 96.8479 17.9822 96.0715 18.2129 94.2944C18.3216 93.5121 18.4096 58.1417 18.4097 58.0587L23.5277 55.5038L23.4809 72.9145C23.4809 72.9869 23.5277 73.0512 23.6027 73.0833L27.0897 74.8107C27.0897 74.8187 27.0897 74.8187 27.0897 74.8187C27.1179 74.8268 27.146 74.8268 27.1648 74.8348C27.2209 74.8429 27.2771 74.8429 27.3334 74.8187C27.3334 74.8187 27.3334 74.8107 27.3428 74.8107L68.3616 54.387C68.4273 54.3548 68.4741 54.2906 68.4741 54.2183L68.5302 33.0955L72.4485 31.1512L72.3266 66.0932C72.3266 68.3429 71.4456 70.0141 69.8427 70.8176Z" fill="#3353F8"/>
<path d="M33.4787 46.3568C42.5323 41.8766 53.196 36.5996 62.5084 31.9912C63.5277 31.4871 64.4602 30.2073 64.4568 29.0976L64.4101 15.0301C64.4063 13.8763 63.394 13.3634 62.2155 13.9481L33.1862 28.3137C32.1037 28.8496 31.2263 30.1529 31.2295 31.2192L31.2762 45.2874C31.28 46.4313 32.2955 46.9416 33.4787 46.3568ZM62.2777 31.6407C62.2768 31.6411 62.276 31.6418 62.2751 31.6422C56.4465 34.5266 41.8635 41.7432 34.8319 45.2229C36.7296 43.2959 38.9289 40.4587 40.2201 36.7665C40.583 35.741 41.4746 34.7327 42.4389 34.2573C42.7927 34.0823 43.1351 33.9928 43.4381 33.9928C43.5919 33.9928 43.7356 34.0156 43.8656 34.0619C44.202 34.1819 44.4446 34.4534 44.5672 34.8488C44.6048 34.965 44.6501 35.0874 44.7018 35.2074C44.9681 35.861 45.4634 36.3192 46.1344 36.5319C46.987 36.8026 48.0494 36.6535 49.1291 36.1145C50.8042 35.2898 52.3059 33.6657 53.0474 31.8775C53.5696 30.6237 53.912 29.3683 54.0644 28.1474C54.2479 26.6966 55.4686 25.0662 56.903 24.3546C57.5978 24.0109 58.2504 23.9332 58.7388 24.1373C59.1622 24.3138 59.4336 24.6896 59.5233 25.2255C59.849 27.1568 60.7248 29.71 63.0399 31.0783C62.8278 31.2884 62.5615 31.5016 62.2777 31.6407ZM33.4206 28.6621L62.4499 14.2965C63.3064 13.8728 63.9386 14.1783 63.9415 15.0317L63.9882 29.0991C63.99 29.637 63.7307 30.2404 63.3335 30.7478C61.1448 29.4636 60.2999 27.023 59.9875 25.1674C59.8758 24.5044 59.5051 24.0101 58.944 23.7763C58.3119 23.5142 57.5041 23.595 56.6683 24.0062C55.1167 24.7767 53.7967 26.5381 53.5986 28.1042C53.4498 29.2945 53.1162 30.5185 52.6063 31.7425C51.9106 33.4192 50.4542 34.9987 48.8948 35.7668C47.9369 36.2439 47.0156 36.3836 46.2969 36.1552C45.7615 35.9857 45.3628 35.6122 45.1431 35.0724C45.095 34.9595 45.0534 34.8472 45.0195 34.7429C44.8584 34.2242 44.522 33.861 44.0456 33.6915C43.5219 33.504 42.8679 33.5816 42.2052 33.9088C41.1283 34.44 40.173 35.5157 39.7716 36.6503C38.2838 40.9044 35.5693 44.0033 33.5429 45.8607L33.2445 46.0084C32.3982 46.4281 31.748 46.1387 31.7451 45.2858L31.6984 31.2175C31.695 30.28 32.4681 29.1337 33.4206 28.6621Z" fill="#3353F8"/>
<path d="M34.7622 31.6213C34.802 31.6213 34.8423 31.6127 34.8793 31.5946L51.7733 23.2345C51.8855 23.1787 51.9239 23.0556 51.8589 22.9599C51.7949 22.8633 51.6507 22.8312 51.539 22.8861L34.645 31.2462C34.5329 31.302 34.4945 31.4251 34.5594 31.5209C34.6024 31.5852 34.6816 31.6213 34.7622 31.6213Z" fill="#3353F8"/>
<path d="M34.7622 34.7391C34.802 34.7391 34.8423 34.7304 34.8793 34.7124L45.4347 29.4884C45.5468 29.4327 45.5852 29.3095 45.5203 29.2138C45.4557 29.1173 45.312 29.0851 45.2004 29.14L34.645 34.364C34.5329 34.4197 34.4945 34.5429 34.5594 34.6386C34.6024 34.703 34.6816 34.7391 34.7622 34.7391Z" fill="#3353F8"/>
<path d="M38.3095 49.5424C34.3914 51.4787 31.2137 56.1869 31.2325 60.0435C31.2325 63.8358 34.3886 65.705 38.5814 63.643C40.4842 62.7029 42.2652 61.088 43.5963 59.1115C43.5963 59.1115 43.5963 59.1115 43.5963 59.1035C44.9273 57.119 45.6585 54.9979 45.6585 53.1338C45.639 49.1874 42.3248 47.5473 38.3095 49.5424ZM37.4566 57.6492L33.4447 63.6188C32.3199 62.9681 31.7012 61.7146 31.7012 60.0435C31.6824 56.428 34.5695 52.0411 38.1878 50.0727L38.2065 56.5324L37.4566 57.6492ZM43.3057 58.7339L38.6752 56.4681L38.6658 53.0213L38.6564 49.8316C42.2704 48.1087 45.1703 49.5046 45.1898 53.1338C45.1898 54.8773 44.5243 56.8618 43.3057 58.7339Z" fill="#3353F8"/>
<path d="M64.105 40.444L48.2839 48.3208C48.1717 48.3765 48.1338 48.4989 48.1987 48.5954C48.2422 48.659 48.3209 48.6951 48.4015 48.6951C48.4418 48.6951 48.482 48.6864 48.5191 48.6676L64.3402 40.7908C64.4524 40.7351 64.4903 40.6127 64.4254 40.5162C64.3604 40.4205 64.2162 40.3867 64.105 40.444Z" fill="#3353F8"/>
<path d="M64.105 44.3815L48.2839 52.2591C48.1717 52.3148 48.1338 52.4372 48.1987 52.5337C48.2422 52.5972 48.3209 52.6333 48.4015 52.6333C48.4418 52.6333 48.482 52.6247 48.5191 52.6059L64.3402 44.7283C64.4524 44.6726 64.4903 44.5502 64.4254 44.4537C64.3604 44.358 64.2162 44.3242 64.105 44.3815Z" fill="#3353F8"/>
<path d="M64.105 48.3226L48.2839 56.1994C48.1717 56.2551 48.1338 56.3775 48.1987 56.474C48.2422 56.5375 48.3209 56.5736 48.4015 56.5736C48.4418 56.5736 48.482 56.565 48.5191 56.5461L64.3402 48.6694C64.4524 48.6136 64.4903 48.4912 64.4254 48.3947C64.3604 48.2991 64.2162 48.2661 64.105 48.3226Z" fill="#3353F8"/>
<path d="M41.0697 74.1354C39.9011 74.7137 38.9552 76.118 38.959 77.2689C38.9628 78.4262 39.915 78.8913 41.0835 78.313C42.2584 77.7315 43.2045 76.3272 43.2006 75.1699C43.1967 74.019 42.2447 73.5539 41.0697 74.1354Z" fill="#3353F8"/>
<path d="M48.991 70.2174C47.8226 70.7957 46.8702 72.2032 46.874 73.3541C46.8778 74.5114 47.8364 74.9733 49.0049 74.395C50.1798 73.8135 51.1258 72.4092 51.122 71.252C51.1182 70.1011 50.1662 69.636 48.991 70.2174Z" fill="#3353F8"/>
<path d="M56.9126 66.2961C55.7441 66.8744 54.7917 68.2819 54.7954 69.4328C54.7993 70.5901 55.7579 71.0519 56.9264 70.4737C58.0949 69.8954 59.0471 68.4879 59.0435 67.3307C59.0396 66.1797 58.081 65.7179 56.9126 66.2961Z" fill="#3353F8"/>
<path d="M103.663 76.2038L103.672 69.0371C103.672 68.9969 103.663 68.9647 103.635 68.9326C103.616 68.9085 103.588 68.8764 103.55 68.8603C99.6978 66.9561 94.636 66 89.5931 66C84.5406 66 79.4978 66.9561 75.6639 68.8603H75.6545C75.6357 68.8683 75.6263 68.8844 75.6171 68.9005C75.5702 68.9326 75.5422 68.9808 75.5422 69.0371C75.5422 69.0371 75.5422 69.0371 75.5422 69.0451L75.5328 73.1266C71.8863 74.9746 69.8711 77.4251 69.8523 80.0363C69.8523 80.0444 69.8523 80.0444 69.8523 80.0444C69.8523 80.1247 69.8335 88.6252 69.8335 88.7136C69.8241 91.3971 71.9238 93.9199 75.7296 95.8C75.7296 95.8 75.739 95.8 75.7483 95.808C83.4534 99.6164 95.9671 99.6244 103.635 95.808C107.365 93.9521 109.418 91.4694 109.428 88.818L109.446 83.2501C109.446 83.234 109.456 83.226 109.456 83.21C109.446 80.5586 107.394 78.0759 103.663 76.2038ZM81.6255 76.011C81.6255 76.003 81.6162 75.995 81.6162 75.9869L81.6255 71.9375C86.0498 69.7923 93.1362 69.7843 97.6168 71.9375L97.5981 84.3348C93.0988 82.278 86.1623 82.2699 81.6723 84.3027C81.5693 82.5431 81.6349 78.6705 81.6255 76.011ZM81.6723 84.7687C86.1436 82.6314 93.2862 82.6556 97.7199 84.849C98.4229 85.1945 99.0229 85.5882 99.5103 85.9979C99.0323 86.3916 98.4699 86.7692 97.795 87.1067C93.3705 89.3082 86.1623 89.3242 81.6629 87.1549L81.6723 84.7687ZM98.0855 71.9295L103.204 69.3826L103.194 76.2119L98.0762 78.7508L98.0855 71.9295ZM76.0108 69.3826L81.1569 71.9295L81.1475 75.6575L76.0014 73.1106L76.0108 69.3826ZM75.6077 95.2778C72.1769 93.4861 70.2928 91.1641 70.3022 88.7136L70.321 82.2217C71.2208 84.2866 73.3955 85.9497 75.6263 87.0746C75.6263 87.171 75.6171 95.1653 75.6077 95.2778ZM75.7765 73.4641L80.9319 76.011C78.6728 77.2323 77.8949 78.5741 77.7823 79.964V80.1007C77.7823 81.8602 79.2259 83.2421 80.9787 84.1822L75.87 86.7291C68.5493 83.0412 68.4275 77.1841 75.7765 73.4641ZM76.095 87.0746C76.2825 86.9861 80.9038 84.6802 80.9131 84.6802L81.2037 84.8168L81.1943 87.1629L76.095 89.7018V87.0746ZM108.987 83.226L108.978 83.2341C108.968 86.1586 106.353 88.4163 103.419 89.8786C95.9671 93.5906 83.8658 93.5745 76.3481 90.0393L81.438 87.5084C86.0687 89.734 93.4737 89.718 98.0294 87.4522C100.288 86.3274 101.535 84.8169 101.526 83.202C101.526 81.4665 100.026 80.0203 98.3105 79.0964L103.438 76.5494C107.009 78.3491 108.978 80.7112 108.987 83.21C108.987 83.218 108.987 83.226 108.987 83.226Z" fill="#3353F8"/>
</svg>
