<svg width="87" height="98" viewBox="0 0 87 98" fill="none" xmlns="http://www.w3.org/2000/svg">
<path d="M86.7511 3.74718C86.432 2.45016 85.5741 1.33285 84.4566 0.674489C83.3391 -0.044073 81.9025 -0.0240766 80.8449 0.015874C80.6452 0.0162959 12.4873 0.127119 11.2066 0.654534C9.67426 1.19465 8.61956 2.49222 8.35311 3.98663C8.27346 4.58534 8.33315 4.88444 8.33315 4.88444C8.43301 4.88444 8.1936 3.44782 9.75002 1.8914C10.548 1.09344 11.865 0.614584 13.5211 0.774133C82.4889 1.6058 82.0956 0.517723 83.8779 1.65224C86.2306 3.07426 85.6414 5.34541 85.7135 7.39867C85.6029 80.5629 85.6415 42.8107 85.6341 87.6727C85.6341 92.1443 82.2407 95.5166 77.9785 95.6574C73.8351 95.4628 71.0811 92.5214 70.453 89.3673C70.1963 88.0313 70.3249 86.4745 70.2898 84.9773C70.2287 83.1065 70.5045 81.6946 69.7729 80.2921C69.0339 78.7496 67.4628 77.6895 65.7963 77.5375C62.5397 77.4427 26.2917 77.6668 8.85099 77.8607C8.73337 39.87 8.62892 4.88453 8.33315 4.88453C7.98596 9.843 7.92825 45.9215 7.79582 77.8724C4.69415 77.9067 3.28601 77.7281 1.89592 78.8241C1.15348 79.3821 0.730393 80.068 0.490732 80.6373C0.0349918 81.8106 0.224493 82.4782 0.224493 82.4782C0.30026 82.4892 0.230105 81.8144 0.738451 80.75C1.21271 79.7392 2.61132 78.2589 4.88656 78.4304C39.9107 78.8173 63.841 78.7855 65.6696 78.8399C66.8924 78.9576 68.0469 79.7402 68.5848 80.8752C69.1383 81.9961 68.9009 82.7675 68.954 84.9773C68.9935 86.4721 68.8342 87.9655 69.1362 89.6354C69.6263 92.1191 71.2368 94.3544 73.4319 95.6895C12.834 95.8878 17.7931 95.8606 10.0911 95.9255C8.27059 96.002 6.70463 95.8734 5.31041 95.1926C2.52121 93.9221 1.02785 91.4007 0.631086 89.3173C0.428929 88.3927 0.470946 88.0621 0.35852 84.26C0.270392 81.8852 0.178764 81.8834 0.0905942 84.26C-0.0163907 87.878 -0.0544431 88.4182 0.122023 89.4126C0.656947 92.8982 3.56726 96.1269 7.73474 96.6604V96.9513C73.3132 97.061 76.9985 97.0211 78.1885 97.0248V96.9922C83.2011 96.7751 87.035 92.6058 86.9709 87.6727C86.9708 87.4723 87.0149 4.83441 86.7511 3.74718ZM78.1884 96.3524V96.3522C78.1894 96.3522 78.1899 96.3524 78.1909 96.3524H78.1884Z" fill="#3353F8" fill-opacity="0.4"/>
<path d="M18.9437 24.5104C18.9632 26.0271 20.469 27.2606 21.8489 27.1303C88.8229 26.9529 93.0835 26.0261 21.8489 25.8218C20.9871 25.8856 20.3017 25.2321 20.2656 24.4439C20.2699 19.4327 20.2733 14.8389 20.2739 14.1051C20.1694 13.131 20.8706 12.44 21.7051 12.4254C76.7512 12.4254 73.9243 11.8936 74.6875 12.5126C75.1502 12.8465 75.404 13.3753 75.3904 13.947C75.4378 17.3438 75.5074 21.1499 75.5843 24.5511C75.5463 25.1658 75.2272 25.6377 74.9062 25.9166C74.2251 26.4753 73.6693 26.4008 73.6888 26.476C73.6884 26.4931 73.8111 26.5311 74.0552 26.5121C75.0094 26.4337 75.8497 25.6484 75.9848 24.5886C76.0648 23.2629 76.185 14.9806 76.1986 13.947C76.272 12.7019 75.3506 11.5188 74.0206 11.3312C72.7267 11.192 36.3466 11.0743 21.7052 11.0743C20.1021 11.0649 18.7743 12.4815 18.9247 14.1051C18.9274 18.499 18.9246 16.4465 18.9437 24.5104Z" fill="#3353F8" fill-opacity="0.4"/>
<path d="M33.3415 62.9101C44.6197 63.4871 51.5475 50.7796 45.1761 42.0165C42.6123 38.3543 38.5639 36.6026 35.73 36.576C33.5684 36.5131 36.032 36.8004 37.9239 37.4582C47.7912 40.9089 49.3711 54.1913 40.7392 59.636C36.408 62.4912 30.3822 62.1625 26.3826 58.7849C18.5974 52.4754 21.4287 39.3924 31.798 37.095C33.763 36.6636 36.2325 36.6712 34.0806 36.478C33.5403 36.4191 32.7285 36.4247 31.7004 36.5784C24.2475 37.617 18.9804 45.4955 21.2571 53.2558C22.7116 58.3865 27.3308 62.5046 33.3415 62.9101Z" fill="#3353F8"/>
<path d="M31.3283 46.0858C28.5381 46.454 28.9773 46.3952 27.4837 46.5998C26.5952 46.7393 25.9681 47.9305 26.9059 48.8356C27.8697 49.7855 28.506 50.414 29.5361 51.427C29.5487 51.4387 29.5563 51.4567 29.555 51.4755C28.9039 55.286 28.8586 55.4031 28.9283 55.6986C29.0796 56.4332 29.9584 56.7964 30.5668 56.4439C34.1373 54.5125 34.0857 54.493 34.1754 54.602C38.7907 56.866 38.8682 56.5815 34.5094 53.9522C34.106 53.6455 33.4647 53.9378 33.2603 54.0593C32.1141 54.59 32.67 54.3295 30.1959 55.4935C30.1065 55.5417 29.9908 55.4725 29.9918 55.3793C31.029 50.3591 31.2177 51.3935 29.2761 49.3958C28.8034 48.9107 28.3191 48.4132 27.8249 47.9059C27.8213 47.893 27.8422 47.8852 27.8422 47.8852C32.9903 47.2471 31.9009 47.9331 33.7209 44.3755L34.2073 43.4195L34.2185 43.4114C36.4049 47.913 35.6357 47.2845 38.409 47.6943C39.1161 47.7966 39.8018 47.8954 40.464 47.9912C40.5505 47.9812 40.617 48.1057 40.5468 48.1777C37.3319 51.3673 37.4306 50.8792 37.728 52.4147C38.0129 53.844 37.8661 53.1375 38.3389 55.334C38.5111 55.7761 38.2765 55.9763 38.0734 56.0599C37.8688 56.1288 37.7261 56.0694 37.7068 56.1139C37.6866 56.1351 37.7847 56.2983 38.1118 56.3027C38.5388 56.2935 38.9347 55.8755 38.8104 55.2607C38.6274 53.3588 38.6435 53.4648 38.4331 51.6692C38.4022 51.4492 38.2876 51.6889 41.4203 48.8318C42.047 48.2321 41.6933 47.0201 40.7534 46.8868C39.1292 46.5982 38.624 46.5078 37.0001 46.2243C36.9863 46.2189 36.9768 46.2072 36.9731 46.1948C35.2524 42.4764 35.256 42.3555 34.8155 42.1531C34.2112 41.8129 33.3572 42.063 33.0513 42.7421C32.6604 43.4999 31.8376 45.0951 31.4883 45.7736L31.3283 46.0858Z" fill="#3353F8"/>
<path d="M64.4993 35.8945C50.8285 35.8945 50.6877 37.2454 64.4993 37.2454C70.1912 37.2454 78.311 35.8945 64.4993 35.8945Z" fill="#3353F8" fill-opacity="0.4"/>
<path d="M74.805 48.371C74.805 47.4784 54.1934 47.4774 54.1934 48.371C54.1934 48.7438 74.805 49.2639 74.805 48.371Z" fill="#3353F8" fill-opacity="0.4"/>
<path d="M74.805 60.1735C74.805 59.2809 54.1934 59.2805 54.1934 60.1735C54.1934 61.066 74.805 61.067 74.805 60.1735Z" fill="#3353F8" fill-opacity="0.4"/>
<path d="M47.3208 70.145C10.3491 70.0542 10.9916 71.4069 47.3174 71.4961C84.2891 71.5868 83.6466 70.2341 47.3208 70.145Z" fill="#3353F8" fill-opacity="0.4"/>
<path d="M27.1973 18.9159C27.1973 19.8086 68.1976 19.8086 68.1976 18.9159C68.1976 18.0233 27.1973 18.0223 27.1973 18.9159Z" fill="#3353F8" fill-opacity="0.4"/>
</svg>
