<svg width="80" height="94" viewBox="0 0 80 94" fill="none" xmlns="http://www.w3.org/2000/svg">
<path d="M35.8424 82.4348H8.42402C5.42429 82.4348 2.98407 79.9946 2.98407 76.9949V8.42402C2.98407 5.42429 5.42429 2.98407 8.42402 2.98407H63.0712C66.0709 2.98407 68.5111 5.42429 68.5111 8.42402V49.8167C68.8633 50.1286 69.2079 50.4531 69.5436 50.7888C70.2456 51.4908 70.8977 52.2301 71.4952 53.0022V8.42402C71.4952 3.77932 67.7159 0 63.0712 0H8.42402C3.77932 0 0 3.77932 0 8.42402V76.9949C0 81.6395 3.77932 85.4189 8.42402 85.4189H39.0167C38.2572 84.828 37.5298 84.1857 36.8383 83.4941C36.4936 83.1495 36.1616 82.7966 35.8424 82.4348Z" fill="#D4DBFF"/>
<path d="M79.1845 88.4158L68.8907 78.1537C71.316 74.9343 72.6271 71.0381 72.6271 66.9402C72.6271 64.1895 72.0359 61.529 70.9133 59.1035C70.1976 57.5552 69.2649 56.1026 68.1311 54.7837C67.8119 54.4121 67.4773 54.0515 67.1268 53.7021C63.5796 50.1658 58.8639 48.2188 53.8477 48.2188C48.8315 48.2188 44.1158 50.1658 40.5686 53.7021C37.0214 57.2383 35.0684 61.9395 35.0684 66.9402C35.0684 71.9409 37.0214 76.6421 40.5686 80.1784C40.9101 80.5188 41.2621 80.844 41.6244 81.1547C42.9404 82.2828 44.3885 83.2126 45.9333 83.9282C48.3801 85.064 51.0677 85.6617 53.8477 85.6617C57.8901 85.6617 61.7378 84.3969 64.9359 82.0547L75.2506 92.3376C75.7938 92.8791 76.5053 93.1503 77.2176 93.1503C77.9298 93.1503 78.6413 92.8791 79.1845 92.3376C80.2716 91.2545 80.2716 89.4989 79.1845 88.4158ZM63.855 75.5354C63.3918 76.0707 62.8861 76.5686 62.3436 77.0235C60.0449 78.9518 57.0798 80.1146 53.8477 80.1146C46.5606 80.1146 40.6326 74.2048 40.6326 66.9402C40.6326 59.6756 46.5606 53.7658 53.8477 53.7658C61.1348 53.7658 67.0628 59.6756 67.0628 66.9402C67.0628 70.2213 65.8533 73.2265 63.855 75.5354Z" fill="#3353F8"/>
<path d="M54.9875 56.9863C54.2752 56.9863 53.6982 57.5633 53.6982 58.2756C53.6982 58.9879 54.2752 59.5649 54.9875 59.5649C58.8973 59.5649 62.0786 62.7462 62.0786 66.6559C62.0786 67.3683 62.6555 67.9452 63.3679 67.9452C64.0802 67.9452 64.6571 67.3683 64.6571 66.6559C64.6571 61.3241 60.3194 56.9863 54.9875 56.9863Z" fill="#3353F8"/>
<path d="M28.7962 67.8867H15.4559C14.6319 67.8867 13.9639 68.5547 13.9639 69.3788C13.9639 70.2028 14.6319 70.8708 15.4559 70.8708H28.7962C29.6202 70.8708 30.2882 70.2028 30.2882 69.3788C30.2882 68.5547 29.6202 67.8867 28.7962 67.8867Z" fill="#D4DBFF"/>
<path d="M39.315 48.0448C39.315 47.2207 38.647 46.5527 37.823 46.5527H15.4559C14.6319 46.5527 13.9639 47.2207 13.9639 48.0448C13.9639 48.8688 14.6319 49.5368 15.4559 49.5368H37.823C38.647 49.5368 39.315 48.8688 39.315 48.0448Z" fill="#D4DBFF"/>
<path d="M31.4072 58.7108C31.4072 57.8867 30.7392 57.2188 29.9152 57.2188H15.4559C14.6319 57.2188 13.9639 57.8867 13.9639 58.7108C13.9639 59.5348 14.6319 60.2028 15.4559 60.2028H29.9152C30.7392 60.2028 31.4072 59.5348 31.4072 58.7108Z" fill="#D4DBFF"/>
<path d="M56.0392 25.2168H15.4559C14.6319 25.2168 13.9639 25.8848 13.9639 26.7088C13.9639 27.5329 14.6319 28.2009 15.4559 28.2009H56.0392C56.8632 28.2009 57.5312 27.5329 57.5312 26.7088C57.5312 25.8848 56.8632 25.2168 56.0392 25.2168Z" fill="#D4DBFF"/>
<path d="M56.0392 14.5469H15.4559C14.6319 14.5469 13.9639 15.2149 13.9639 16.0389C13.9639 16.863 14.6319 17.5309 15.4559 17.5309H56.0392C56.8632 17.5309 57.5312 16.863 57.5312 16.0389C57.5312 15.2149 56.8632 14.5469 56.0392 14.5469Z" fill="#D4DBFF"/>
<path d="M57.5312 37.3748C57.5312 36.5508 56.8632 35.8828 56.0392 35.8828H15.4559C14.6319 35.8828 13.9639 36.5508 13.9639 37.3748C13.9639 38.1989 14.6319 38.8669 15.4559 38.8669H56.0392C56.8632 38.8669 57.5312 38.1989 57.5312 37.3748Z" fill="#D4DBFF"/>
</svg>
