<svg width="96" height="120" viewBox="0 0 96 120" fill="none" xmlns="http://www.w3.org/2000/svg">
<path d="M28.6885 0.21497L75.177 0.207375C78.698 0.200974 90.0482 -0.332522 92.8029 0.337334C94.178 0.671666 94.9409 1.90122 95.6541 3.01385L95.6765 3.24525C96.289 10.0191 95.8481 18.9668 95.8239 25.918L95.8588 63.3915L95.8355 98.087L95.8692 109.103C95.8762 111.071 96.0056 113.154 95.8314 115.109C95.7517 116.003 95.3305 117.001 94.714 117.66C94.0255 118.396 92.6827 118.645 91.7148 118.78C88.9393 119.166 85.8621 118.943 83.056 118.935L67.6624 118.87L19.8968 118.809C16.2961 118.806 5.72382 119.355 2.83922 118.679C1.57897 118.384 0.831797 117.191 0.167495 116.178C-0.138149 110.058 0.143073 103.816 0.144264 97.6817L0.140765 61.1972L0.127363 37.1711C0.112248 32.7124 -0.219307 27.9905 0.251854 23.56C0.371357 22.4378 0.994111 21.5626 1.68633 20.7079C4.48486 17.2508 8.66083 14.2981 12.0355 11.389C15.4867 8.41386 20.0248 3.854 23.9162 1.62577C25.4289 0.75994 26.9705 0.402905 28.6885 0.214825V0.21497Z" fill="#3353F8"/>
<path d="M27.7552 1.72134C40.2348 1.50885 52.7354 1.64632 65.2179 1.6385C73.5169 1.63329 81.9302 1.35269 90.2152 1.67192C90.9147 1.69894 92.6171 1.68704 93.1891 2.12341C94.1777 2.87759 94.1861 4.25042 94.2388 5.37355C94.5572 12.1616 94.3173 19.0713 94.3173 25.8716L94.3138 64.9141L94.3062 97.3504C94.3193 102.979 94.6733 108.803 94.312 114.411C94.2594 115.225 94.0518 116.118 93.4413 116.706C92.8569 117.268 91.6078 117.376 90.8257 117.442C88.0077 117.682 85.0559 117.501 82.2242 117.496L66.1358 117.463L26.7797 117.462C19.6132 117.475 12.2883 117.806 5.13724 117.455C4.23706 117.411 3.2392 117.384 2.41407 116.994C1.90337 116.455 1.59854 115.96 1.52379 115.212C1.20616 112.035 1.44963 108.603 1.45603 105.402L1.45894 87.1114L1.46996 24.5338C10.4394 25.3705 19.4393 25.836 28.4468 25.9284C28.5553 17.8826 27.9122 9.77285 27.7551 1.72149L27.7552 1.72134Z" fill="#FEFEFE"/>
<path d="M70.0016 33.6504C75.7525 36.7543 80.2048 41.5825 84.2563 46.5849C69.4766 56.0202 56.821 69.651 47.9246 84.7399C45.8655 88.2329 44.4147 91.9682 42.4721 95.4948C37.6813 87.6359 32.3908 80.9298 25.2264 75.1067C21.8872 72.4287 18.379 69.9685 14.7236 67.7412C18.94 62.9647 23.9798 58.6862 28.7154 54.4377C35.1783 61.502 38.7496 69.5952 42.4697 78.3001C43.6101 74.2775 45.3846 70.4017 47.1579 66.6239C52.9504 54.2821 60.0727 43.1315 70.0016 33.6504Z" fill="#3353F8"/>
<path d="M24.5949 2.91602C24.7208 2.96112 24.8567 3.09509 24.964 3.17741C24.5731 9.28552 24.2846 15.4229 23.5263 21.4979C16.6658 21.5909 9.80829 21.8279 2.95799 22.209L2.66455 22.1276L2.71109 21.7311C5.30486 18.7466 8.66211 16.3269 11.6444 13.7361C15.6761 10.2342 20.1484 5.77481 24.5949 2.91602Z" fill="#FEFEFE"/>
</svg>
