<svg width="175" height="99" viewBox="0 0 175 99" fill="none" xmlns="http://www.w3.org/2000/svg">
<path d="M12.4791 99C9.90407 99 7.33392 98.9155 4.79257 98.8319C3.44541 98.7876 2.05239 98.7419 0.694159 98.7103C0.301733 98.7012 -0.00893017 98.3757 0.000196031 97.9833C0.00932223 97.591 0.3348 97.2808 0.727151 97.2894C2.09227 97.3211 3.48872 97.367 4.83932 97.4115C12.3263 97.6576 20.0683 97.9123 27.3254 95.9557C32.0989 94.6688 35.9769 91.9396 40.0828 89.0501C41.072 88.3539 42.0948 87.6341 43.1206 86.9443C46.5754 84.6212 50.1188 82.3005 53.5455 80.0562C60.2685 75.653 67.219 71.1008 73.8257 66.3174C70.4978 68.27 65.8183 71.2295 61.2327 74.1297C55.179 77.9584 48.9191 81.9173 43.7459 84.9129C40.9239 86.5469 38.7439 87.7092 37.0812 88.4661C34.3772 89.6971 33.5246 89.6302 33.0058 89.3746C32.6446 89.1964 32.416 88.8583 32.3786 88.4466C32.0607 84.9498 33.2516 54.5596 33.7783 41.656C33.8185 40.6689 34.34 39.7625 35.1731 39.2315C36.0065 38.7003 37.0486 38.6102 37.9608 38.9909L82.127 57.4092C82.4592 57.5479 82.8325 57.57 83.1784 57.4722C85.3206 56.8661 92.8583 54.7157 99.9142 52.4957C103.867 51.2519 107.066 50.177 109.421 49.3005C111.56 48.5042 112.71 47.9782 113.327 47.6483C111.421 47.1729 109.531 46.5964 107.696 46.0369C104.829 45.1628 101.864 44.2588 98.8763 43.755C96.3726 43.3329 93.9106 43.3494 91.3039 43.3673C90.2045 43.3747 89.0675 43.3824 87.9393 43.3534C85.0359 43.2787 81.2719 43.0641 77.9073 42.0585C74 40.8909 71.2839 38.8388 69.8344 35.9595C69.5554 35.4055 69.3227 34.8084 69.1429 34.1852C68.1086 30.6001 67.4104 25.3593 69.9578 20.7518C71.5513 17.8695 74.4238 15.4343 77.8388 14.0706C81.4492 12.6289 85.0948 12.5857 88.104 13.9491C90.0581 14.8345 92.1832 16.3809 93.9343 18.1919C95.2813 19.585 97.0491 21.7857 97.8208 24.3584C98.7015 27.2945 98.4087 31.5041 96.145 33.8688C94.1251 35.9788 91.6476 35.3629 89.4616 34.8195C88.3507 34.5434 87.3014 34.2829 86.3134 34.3301C85.9996 34.3452 85.6761 34.366 85.3634 34.3862C83.9302 34.4782 82.448 34.5735 80.9888 34.2076C79.2916 33.782 77.7757 32.6921 76.7201 31.1388C75.6646 29.5854 75.2095 27.7747 75.4386 26.0401C75.6677 24.3055 76.5775 22.6751 78.0002 21.4492C79.3921 20.2497 81.0945 19.5932 82.8059 19.5932C82.8438 19.5932 82.8815 19.5935 82.9193 19.5942C84.6688 19.6239 86.3924 20.3416 87.7726 21.6151C89.1529 22.8886 90.0067 24.5489 90.1769 26.2903C90.2518 27.057 90.1094 28.1399 89.4852 28.8796C89.1244 29.3072 88.6525 29.5534 88.1207 29.5915C86.9906 29.6738 86.1187 28.7615 85.7552 27.8227C85.5953 27.4098 85.5091 26.9972 85.4258 26.5981C85.3533 26.2516 85.285 25.9242 85.1743 25.6279C84.6519 24.229 82.8868 23.3877 81.471 23.8625C80.0553 24.3375 79.1548 26.0732 79.5818 27.5041C79.9562 28.759 81.2501 29.8015 82.8778 30.1598C83.7129 30.3436 84.5578 30.2774 85.4522 30.2073C86.2519 30.1445 87.079 30.0796 87.9313 30.1978C88.5391 30.282 89.1085 30.4868 89.6593 30.6848C90.4944 30.9852 91.283 31.2689 92.0578 31.0636C92.6742 30.9003 93.117 30.5265 93.4116 29.9209C94.0539 28.6003 93.8271 26.3925 93.2367 25.0211C91.2618 20.4329 88.3994 18.2778 83.9557 18.0331C78.958 17.7576 76.1039 19.1619 74.1066 22.8792C72.2586 26.3186 72.0002 30.521 73.4322 33.8465C74.2766 35.8075 75.5896 37.1171 77.129 37.534C82.3005 38.9345 87.7895 39.6834 93.4437 39.7601C96.8896 39.8067 100.038 39.9167 103.672 40.7942C106.672 41.5185 109.836 42.4099 113.345 43.5194C113.659 43.6187 114.048 43.7179 114.459 43.8231C115.722 44.1456 117.147 44.5091 118.037 45.2323C118.663 44.9672 119.998 44.2466 121.869 43.0355C123.17 42.1935 124.148 41.4905 124.792 40.9852C123.054 40.8793 120.243 40.6541 117.881 40.4566C116.311 40.3254 115.094 38.9878 115.112 37.4116L115.447 7.27156C115.452 6.84068 115.287 6.43464 114.984 6.12824C114.681 5.82184 114.277 5.65308 113.846 5.65308H53.4472C52.5776 5.65308 51.8597 6.36013 51.8466 7.22922C51.8029 10.156 51.6697 19.0626 51.4205 26.8777C51.2865 31.0794 51.1373 34.3921 50.977 36.7237C50.8838 38.0792 50.7848 39.129 50.6827 39.8441C50.5714 40.6238 50.4329 41.5943 49.6412 41.5943C48.9029 41.5943 45.553 40.5301 43.0084 39.5752C41.3841 38.9656 39.9931 38.3718 38.986 37.8582C37.5005 37.1005 36.8393 36.54 36.7039 35.9233C36.6161 35.5236 36.7541 34.9897 37.4047 34.6894C39.3013 33.8141 44.1056 30.9689 46.0831 29.7862C46.5446 29.5102 46.8351 29.0244 46.86 28.4868L48.047 2.88201C48.122 1.26592 49.4479 0 51.0657 0H116.95C118.616 0 119.972 1.35561 119.972 3.02189V30.9712C119.972 31.5288 120.255 32.0371 120.728 32.3311L129.7 37.8999C130.594 38.4549 131.128 39.4148 131.128 40.4674V82.8896C131.128 84.013 130.512 85.0368 129.518 85.5617C128.526 86.0865 127.333 86.0193 126.405 85.3869C121.766 82.2246 112.782 76.1341 104.728 70.8753C100.304 67.9868 96.7045 65.7042 94.0299 64.0911C92.5919 63.2239 91.5307 62.6168 90.7483 62.1921C91.28 62.6837 91.9872 63.3096 92.9281 64.1055C94.9971 65.8557 97.8927 68.1714 101.534 70.9882C108.185 76.1325 116.051 81.9662 121.478 85.9542C122.104 86.4141 123.329 87.0794 124.514 87.7228C125.385 88.1959 126.208 88.6427 126.833 89.0269C127.487 89.4288 128.301 89.9289 128.098 90.6475C127.972 91.0956 127.562 91.3045 126.886 91.2694C108.82 90.3244 90.404 89.8897 72.5945 89.4693C65.7315 89.3073 58.6348 89.1398 51.6591 88.9454C49.6726 88.8901 47.3038 89.3735 47.1672 90.9185C47.0907 91.7835 47.8435 92.5905 48.6266 92.9404C49.5855 93.3689 50.7205 93.3771 51.818 93.3851C84.4785 93.6226 117.704 93.8603 150.571 94.0915C158.196 94.1452 165.822 94.1991 173.447 94.2537L173.51 94.2542C173.903 94.2569 174.219 94.5772 174.216 94.9697C174.214 95.3605 173.896 95.6755 173.506 95.6755H173.501L173.437 95.675C165.812 95.6204 158.186 95.5665 150.561 95.5128C117.694 95.2815 84.4685 95.0438 51.8077 94.8064C50.6218 94.7978 49.2776 94.788 48.0469 94.238C46.8423 93.6997 45.6102 92.392 45.7515 90.7931C45.9751 88.2671 48.9703 87.4477 51.6988 87.5246C58.6715 87.7189 65.7666 87.8864 72.6282 88.0483C89.8941 88.4559 107.731 88.877 125.274 89.7633C124.789 89.4896 124.268 89.2068 123.836 88.9719C122.609 88.3057 121.341 87.6169 120.636 87.0996C115.185 83.0939 107.286 77.2356 100.616 72.0745C88.4523 62.6639 88.0086 61.4805 87.819 60.9752C87.646 60.5134 87.8303 60.1556 88.0608 59.9747C88.5344 59.6029 89.214 59.8262 90.3818 60.4001C91.2349 60.8193 92.43 61.4845 93.9338 62.3773C96.5521 63.9315 100.187 66.2221 104.738 69.1854C112.973 74.5476 122.349 80.9022 127.206 84.2127C127.704 84.5527 128.321 84.5875 128.855 84.3053C129.389 84.0231 129.707 83.4939 129.707 82.8899V40.4672C129.707 39.9096 129.425 39.4012 128.951 39.1072L119.979 33.5385C119.085 32.9833 118.551 32.0235 118.551 30.9709V3.02167C118.551 2.13912 117.833 1.42107 116.95 1.42107H51.0659C50.209 1.42107 49.5067 2.09162 49.467 2.94761L48.2799 28.5524C48.233 29.5673 47.6844 30.4845 46.8127 31.0057C44.4693 32.4072 40.3741 34.822 38.3364 35.8196C38.9097 36.2597 40.447 37.1058 43.6894 38.3121C46.135 39.2219 48.2798 39.8681 49.209 40.0894C49.399 39.1031 49.7233 35.9389 50.0285 25.9245C50.2591 18.3573 50.3846 9.96551 50.4258 7.20783C50.4504 5.56676 51.8059 4.23164 53.4475 4.23164H113.847C114.66 4.23164 115.423 4.55023 115.995 5.1287C116.567 5.70716 116.877 6.47369 116.868 7.28719L116.533 37.4272C116.524 38.2621 117.169 38.9706 118 39.0401C122.512 39.4173 125.42 39.625 126.186 39.625C126.67 39.625 126.931 39.919 127.015 40.194C127.187 40.7626 126.764 41.2266 125.81 41.9915C125.194 42.486 124.309 43.122 123.32 43.7823C122.11 44.5899 120.852 45.3632 119.867 45.9038C118.236 46.7997 117.633 46.9508 117.18 46.5785C117.067 46.4856 116.967 46.3486 116.92 46.1781C116.225 45.7407 115.065 45.4445 114.108 45.2001C113.676 45.0898 113.268 44.9859 112.916 44.8745C109.44 43.7751 106.307 42.8923 103.339 42.1758C99.8477 41.3328 96.7834 41.2266 93.4246 41.1812C87.6515 41.103 82.0439 40.3375 76.7576 38.9059C74.791 38.3732 73.1465 36.776 72.127 34.4086C70.5276 30.6943 70.8065 26.0188 72.8548 22.2064C74.0582 19.9665 75.6013 18.4447 77.572 17.5539C79.3151 16.7658 81.3688 16.4671 84.0341 16.6139C86.6226 16.7564 88.7419 17.497 90.5131 18.8781C92.1609 20.1629 93.4789 21.9885 94.5424 24.4591C95.1286 25.821 95.6517 28.565 94.69 30.5425C94.2174 31.5143 93.4331 32.1696 92.4221 32.4376C91.2196 32.7563 90.1353 32.3664 89.1786 32.0223C88.6742 31.8409 88.1978 31.6695 87.7367 31.6057C87.037 31.5088 86.3214 31.5648 85.5638 31.6242C84.6053 31.6994 83.6141 31.7771 82.5728 31.548C80.8822 31.1758 78.8511 30.0249 78.2202 27.9106C77.5764 25.7526 78.8843 23.2315 81.0194 22.5152C83.1544 21.7988 85.7182 23.0211 86.5061 25.1307C86.6546 25.5281 86.7374 25.9244 86.8174 26.3076C86.8924 26.6664 86.9632 27.0052 87.081 27.3095C87.2512 27.7491 87.6409 28.2011 88.0194 28.174C88.1117 28.1674 88.2516 28.1383 88.3994 27.9631C88.6702 27.6421 88.8196 27.0111 88.7627 26.4286C88.4808 23.5436 85.794 21.0645 82.8956 21.0153C82.8663 21.0149 82.8368 21.0146 82.8075 21.0146C79.9413 21.0146 77.2238 23.3816 76.848 26.2263C76.4684 29.1002 78.523 32.1238 81.3347 32.829C82.5789 33.141 83.8873 33.0569 85.2726 32.9679C85.591 32.9474 85.9201 32.9262 86.2454 32.9106C87.4426 32.8526 88.6433 33.1514 89.8049 33.4403C91.8782 33.9557 93.6687 34.4008 95.1187 32.886C96.9865 30.935 97.2037 27.2466 96.4598 24.7669C95.2707 20.8032 90.9795 16.8122 87.5178 15.2438C81.7124 12.6133 73.9801 16.4145 71.2021 21.4395C68.8903 25.6209 69.5491 30.4644 70.5089 33.7912C70.6643 34.3301 70.8647 34.8446 71.1043 35.3205C72.3888 37.8721 74.7473 39.6307 78.3147 40.6968C81.5186 41.6543 85.1609 41.8602 87.9762 41.9326C89.0814 41.9611 90.2065 41.9534 91.2946 41.9461C93.8474 41.9289 96.4871 41.9108 99.1129 42.3535C102.192 42.8726 105.201 43.79 108.111 44.6773C110.171 45.3057 112.302 45.9555 114.423 46.451C115.269 46.6489 115.372 47.1872 115.377 47.4094C115.392 48.0429 114.783 48.4919 113.863 48.9712C113.145 49.3456 112.094 49.7999 110.739 50.3217C108.436 51.2079 105.189 52.3163 101.087 53.6161C93.8134 55.921 85.8372 58.1972 83.5659 58.84C82.9124 59.0248 82.2075 58.9825 81.5805 58.7212L37.4142 40.3027C36.9237 40.098 36.3854 40.1446 35.9375 40.4301C35.4897 40.7155 35.2206 41.1835 35.1989 41.7141C34.7961 51.5795 33.5224 83.6309 33.7789 88.1009C34.0812 88.0844 34.8701 87.929 36.7358 87.0608C38.3767 86.2972 40.5156 85.1466 43.275 83.5433C48.3817 80.5759 54.5288 76.6882 60.4735 72.9286C70.2014 66.7763 76.2509 62.9897 77.971 62.6769C78.3226 62.6127 78.6634 62.7899 78.7991 63.1077C79.0224 63.6305 78.6049 64.0367 78.1632 64.4667C77.8707 64.7513 77.4654 65.1208 76.9585 65.565C76.062 66.3507 75.0887 67.1578 74.8174 67.3545C68.1364 72.1995 61.115 76.7981 54.3246 81.2454C50.9015 83.4873 47.3618 85.8056 43.9141 88.124C42.9008 88.8053 41.8843 89.5207 40.9011 90.2126C36.875 93.0461 32.7118 95.9759 27.6957 97.3283C22.7315 98.6662 17.596 99 12.4791 99ZM117.211 46.3958C117.272 46.4494 117.334 46.4875 117.395 46.5143C117.33 46.4852 117.268 46.4458 117.211 46.3958Z" fill="#3353F8"/>
</svg>
