<svg width="118" height="120" viewBox="0 0 118 120" fill="none" xmlns="http://www.w3.org/2000/svg">
<path d="M100.484 95.6852C99.8775 91.9564 99.2535 88.2305 98.6121 84.5077C97.3562 77.2175 96.0338 69.9393 94.6453 62.6741C93.2568 55.4094 91.7795 48.1626 90.2412 40.9292C88.7534 33.933 87.6278 26.4807 85.0596 19.7931C85.0169 19.682 84.8625 19.7469 84.8713 19.8526C85.4627 26.9877 87.5464 34.1468 88.9967 41.1443C90.4973 48.3847 91.9267 55.6404 93.3127 62.9044C94.6696 70.0153 95.963 77.1388 97.1928 84.2738C97.8078 87.8414 98.4069 91.4118 98.99 94.985C99.5877 98.6476 99.8252 102.611 100.904 106.155C101.061 106.673 101.98 106.792 101.973 106.116C101.936 102.655 101.039 99.0959 100.484 95.6852Z" fill="#3353F8" fill-opacity="0.7"/>
<path d="M100.211 105.654C94.9312 105.683 89.5329 107.169 84.3405 108.093C78.8038 109.079 73.2679 110.069 67.7292 111.042C62.3442 111.988 56.9593 112.934 51.5744 113.88C46.2965 114.807 40.6303 115.297 35.5132 116.941C34.9807 113.521 33.7532 110.115 32.9176 106.759C32.0499 103.274 31.2313 99.7765 30.4553 96.2692C28.9013 89.2463 27.5181 82.1846 26.2476 75.1023C24.9751 68.0094 23.8378 60.8929 22.6992 53.7763C21.5718 46.7297 21.0024 39.3405 19.1785 32.4482C19.076 32.0611 18.5698 32.1618 18.5822 32.5521C18.8086 39.69 20.3734 46.9453 21.4201 53.9992C22.5011 61.2833 23.701 68.5502 25.0006 75.7963C26.2707 82.8783 27.6556 89.9392 29.212 96.9611C29.9892 100.468 30.8088 103.965 31.6783 107.449C32.5094 110.779 33.1385 114.375 34.4775 117.533C34.6323 117.898 35.0235 117.925 35.2914 117.753C35.3463 117.792 35.4087 117.82 35.4852 117.818C40.7459 117.666 46.1527 116.236 51.3398 115.339C56.8811 114.381 62.4224 113.423 67.9636 112.465C73.351 111.534 78.7411 110.62 84.1304 109.7C89.4767 108.789 95.2226 108.359 100.358 106.547C100.783 106.398 100.66 105.652 100.211 105.654Z" fill="#3353F8" fill-opacity="0.7"/>
<path d="M19.3417 31.7603C19.5463 31.9812 19.862 31.6489 19.6256 31.4512C20.3673 32.0716 23.1725 31.2242 24.0052 31.1122C25.5503 30.9044 27.0954 30.6968 28.6404 30.4888C31.7008 30.0768 34.8838 29.824 37.8858 29.0913C38.2271 29.0079 38.1349 28.5487 37.7981 28.563C34.7099 28.695 31.5838 29.3354 28.5246 29.791C25.4602 30.2474 22.3063 30.5384 19.2911 31.2598C19.1563 31.292 19.0667 31.4634 19.1735 31.5787C19.2296 31.6392 19.2856 31.6997 19.3417 31.7603Z" fill="#3353F8" fill-opacity="0.7"/>
<path d="M38.1048 27.6648C38.2177 29.2293 38.453 30.7769 38.8848 32.2962C38.9151 32.4031 38.9464 32.5157 38.9775 32.6271C34.6091 32.8752 29.6388 33.8557 25.4101 35.0045C25.2459 35.049 25.2838 35.2805 25.4533 35.267C29.8193 34.9197 34.8333 34.1618 39.0405 32.9147C39.0479 32.9125 39.0495 32.9061 39.0562 32.9032C39.3911 34.0801 39.8325 35.3829 40.9313 35.9394C42.4649 36.7159 44.7923 36.0937 46.4084 35.9839C49.3081 35.7869 52.2068 35.5853 55.0959 35.2543C57.8249 34.9418 60.547 34.5362 63.2296 33.9276C64.8418 33.5618 66.6859 33.2058 67.8787 31.9343C68.7347 31.022 69.0878 29.892 69.1442 28.6814C69.1909 28.5541 69.1908 28.4088 69.1509 28.2689C69.1411 26.9462 68.811 25.5493 68.398 24.2393C71.0056 24.0685 73.6223 23.5522 76.1693 23.0148C78.9532 22.4274 82.1664 21.97 84.6869 20.5863C84.8574 20.4928 84.7785 20.2462 84.5883 20.264C81.7438 20.5303 78.8609 21.699 76.0508 22.2963C73.4556 22.8479 70.8219 23.1877 68.2223 23.6955C68.0083 23.0583 67.7843 22.4497 67.5786 21.8894C67.645 21.8188 67.6747 21.7201 67.6147 21.6214C67.5341 21.4887 67.4458 21.3744 67.3532 21.2701C67.3498 21.2605 67.3458 21.2499 67.3424 21.2404C67.3221 21.1837 67.2766 21.1517 67.2247 21.1372C66.4225 20.3769 65.2612 20.4839 64.1232 20.6844C61.6356 21.1228 59.171 21.7502 56.6864 22.2313C56.7248 22.1615 56.7585 22.0862 56.7776 21.9957C56.7844 21.9637 56.7475 21.9292 56.7166 21.938C55.8844 22.1724 55.4245 21.8703 55.205 21.0505C55.1872 20.984 55.1727 20.9164 55.1564 20.8494C55.1611 20.8376 55.169 20.8291 55.1723 20.8161C55.9614 17.6735 58.6888 15.6379 57.5073 12.1425C56.6175 9.51019 54.1098 7.94798 51.4055 7.94871C48.5058 7.94949 45.3616 9.893 44.7857 12.9263C44.1276 16.3931 47.1732 18.1498 49.5663 19.8713C49.5348 19.9167 49.5227 19.9777 49.5449 20.0543C49.7503 20.7629 50.1661 21.4033 50.1344 22.172C50.119 22.5467 50.0047 22.9291 49.769 23.2243C49.6832 23.3319 49.6258 23.3864 49.5808 23.4293C49.5685 23.4288 49.5582 23.4246 49.545 23.4257C46.6281 23.6806 43.1807 23.6346 40.3707 24.4405C39.4305 24.7101 38.6009 25.2149 38.1571 25.9644C38.1478 25.8636 38.1336 25.7637 38.1252 25.6627C38.1203 25.6036 38.0202 25.6062 38.0209 25.6665C38.023 25.8456 38.0287 26.0243 38.0334 26.2031C37.8557 26.5962 37.7773 27.0482 37.8325 27.5613C37.8479 27.7038 38.0103 27.733 38.1048 27.6648ZM38.2672 27.0039C38.9415 24.4902 42.5035 24.769 44.5916 24.5665C46.2756 24.4031 47.9627 24.2393 49.6258 23.9158C49.7312 23.8953 49.7884 23.8293 49.8108 23.7533C50.1983 23.5741 50.4447 23.0203 50.5423 22.6358C50.7539 21.8025 50.5084 20.7911 50.0947 20.0427C50.171 19.96 50.1923 19.8194 50.0788 19.7275C47.6354 17.7484 44.1628 15.5255 45.9229 11.8663C47.3811 8.83485 51.78 7.83893 54.5295 9.60938C57.0822 11.2532 57.5573 14.3881 56.0478 16.9153C55.5803 17.6982 55.0759 18.3875 54.7859 19.1587C54.7842 19.1517 54.7828 19.1446 54.7811 19.1376C54.7421 18.9818 54.5314 18.9863 54.503 19.1477C54.3264 20.1509 54.3227 21.4578 55.0679 22.2522C55.3079 22.5082 55.697 22.6504 56.0462 22.6225C56.0736 22.7282 56.1606 22.8155 56.2973 22.7886C58.0283 22.4485 59.7583 22.0999 61.4855 21.7398C62.9946 21.4251 65.6618 20.3281 66.9714 21.6443C67.0177 22.3555 67.1823 23.1026 67.3818 23.8624C67.1789 23.9334 67.172 24.2959 67.4182 24.2885C67.4439 24.2878 67.4697 24.2855 67.4954 24.2847C68.2834 27.1538 69.3567 30.148 66.3534 32.0719C64.7164 33.1205 62.29 33.3428 60.4086 33.7018C58.6084 34.0452 56.7994 34.3327 54.9832 34.5703C51.3539 35.0452 47.6865 35.4169 44.033 35.6086C42.4835 35.6899 41.2556 35.7116 40.1667 34.3661C39.6087 33.6767 39.3881 32.2536 39.1499 31.4071C38.7423 29.9589 38.4536 28.4918 38.2672 27.0039Z" fill="#3353F8" fill-opacity="0.7"/>
<path d="M49.5715 10.6986C49.4697 10.7419 49.4201 10.8418 49.4134 10.9453C48.1217 11.4009 47.6913 13.187 48.0232 14.554C48.4517 16.3183 50.0331 17.7729 51.8986 17.4976C56.7178 16.7864 53.8353 8.88431 49.5715 10.6986ZM49.4755 11.1626C49.5182 11.2184 49.5798 11.2577 49.6635 11.2568C51.1283 11.2422 52.5096 11.3251 53.3589 12.7416C54.2684 14.2585 53.9196 16.5334 51.9756 16.9655C48.7866 17.6742 46.9066 12.5646 49.4755 11.1626Z" fill="#3353F8" fill-opacity="0.7"/>
<path d="M41.0859 28.104C40.6844 29.8064 40.2422 32.5025 42.3477 33.2927C43.6372 33.7767 45.1557 32.7405 46.3171 32.3333C48.6849 31.5032 51.165 31.0712 53.6445 30.7779C56.039 30.4946 58.932 29.8771 61.2319 30.6722C62.1083 30.9752 62.6878 31.3418 63.641 30.9793C66.2728 29.9785 65.6521 26.3632 65.0671 24.3057C64.9695 23.9628 64.4915 24.1082 64.6021 24.4534C64.6196 24.508 64.6373 24.5654 64.655 24.6232C60.9348 24.4549 56.9685 25.304 53.2859 25.8068C49.2097 26.3632 45.1062 26.9583 41.0757 27.7989C40.9427 27.8266 40.9759 28.0256 41.1103 28.0086C45.0498 27.5104 48.9759 26.8827 52.9149 26.3711C56.7779 25.8695 60.9454 25.8006 64.718 24.8356C65.3719 27.1031 65.9549 31.2804 61.9322 30.4946C61.27 30.3652 60.7535 29.9404 60.0514 29.8376C58.1418 29.5579 55.9133 30.0478 54.0132 30.2681C51.6566 30.5413 49.3057 30.9307 47.0337 31.6427C46.2405 31.8913 45.2887 32.474 44.4831 32.5993C40.4287 33.2302 40.6968 30.6371 41.2213 28.1358C41.2376 28.0579 41.1044 28.0258 41.0859 28.104Z" fill="#3353F8" fill-opacity="0.7"/>
<path d="M62.8108 25.851C63.0618 25.8099 62.9971 25.4221 62.746 25.4604C55.8338 26.5145 48.9208 27.5595 41.9869 28.4557C41.9306 28.463 41.9457 28.5482 42.0013 28.5426C48.9605 27.833 55.9042 26.9824 62.8108 25.851Z" fill="#3353F8" fill-opacity="0.7"/>
<path d="M82.1284 25.6476C77.9808 25.8641 73.3303 26.6992 69.3081 27.745C69.1329 27.7906 69.1738 28.039 69.3543 28.023C73.4921 27.6573 78.1523 26.881 82.1356 25.6911C82.1627 25.6829 82.1567 25.6462 82.1284 25.6476Z" fill="#3353F8" fill-opacity="0.7"/>
<path d="M37.7864 111.604C37.8182 111.761 38.0495 111.721 38.0292 111.562C38.0279 111.552 38.0263 111.541 38.025 111.531C38.0362 111.532 38.0463 111.535 38.0587 111.533C56.6397 109.046 75.1417 105.259 93.5874 101.925C93.7067 101.903 93.76 101.812 93.7641 101.718C93.9273 101.751 94.1257 101.638 94.0901 101.421C90.0084 76.5493 86.3233 51.5633 81.7211 26.7875C81.6751 26.54 81.3038 26.6044 81.3397 26.854C84.9298 51.7949 89.4522 76.6239 93.5646 101.479C93.5477 101.478 93.5325 101.474 93.5137 101.477C75.0296 104.578 56.3472 107.271 38.0066 111.217C37.9976 111.219 37.9917 111.224 37.9837 111.227C36.3727 98.7503 33.9506 86.3648 31.9672 73.9449C29.9666 61.4177 28.0914 48.8186 25.7051 36.3628C25.6589 36.1212 25.2987 36.1835 25.3324 36.4277C27.0696 48.9966 29.3352 61.5278 31.4594 74.0333C33.5844 86.5429 35.2739 99.171 37.7864 111.604Z" fill="#3353F8" fill-opacity="0.7"/>
<path d="M38.368 61.9703C38.3125 61.9807 38.3266 62.0656 38.3824 62.0569C44.8775 61.0415 51.3311 59.8013 57.8109 58.694C64.2565 57.5924 70.8976 56.9679 77.2572 55.4386C77.4221 55.399 77.3828 55.1609 77.214 55.1788C70.7144 55.8682 64.2424 57.5062 57.7999 58.6283C51.3236 59.7564 44.8291 60.7503 38.368 61.9703Z" fill="#3353F8" fill-opacity="0.7"/>
<path d="M69.6152 63.8406C64.4244 64.5718 59.2652 65.4734 54.0996 66.3687C49.3249 67.1963 44.1574 67.5738 39.5376 69.0435C39.5093 69.0525 39.5177 69.103 39.5473 69.102C44.3815 68.939 49.3884 67.5603 54.1613 66.7395C59.328 65.851 64.4907 64.9705 69.6282 63.9186C69.678 63.9084 69.6656 63.8335 69.6152 63.8406Z" fill="#3353F8" fill-opacity="0.7"/>
<path d="M54.1599 76.5209C52.6464 76.7886 51.1328 77.0565 49.6192 77.324C47.7989 77.6457 45.629 78.3128 43.7981 77.9579C42.8643 77.7768 43.1459 79.5076 43.9747 79.0198C46.6295 77.4573 50.7794 77.4776 53.7678 76.9739C56.9506 76.4373 60.1341 75.9054 63.3149 75.3568C66.3442 74.8343 69.3735 74.3118 72.4028 73.7893C75.5522 73.2461 78.854 72.9217 81.9257 72.026C82.0563 71.988 82.027 71.8101 81.8911 71.8179C78.8482 71.9952 75.7884 72.7526 72.7843 73.2721C69.6038 73.8222 66.4232 74.3723 63.2427 74.9223C60.2136 75.4462 57.1871 75.9855 54.1599 76.5209Z" fill="#3353F8" fill-opacity="0.7"/>
<path d="M72.728 83.2735C75.7599 82.8224 79.0525 82.7321 81.9355 81.6296C82.1907 81.532 82.1192 81.1009 81.8465 81.0944C78.7668 81.0214 75.6307 82.0387 72.6217 82.6339C69.4355 83.264 66.2398 83.8478 63.0436 84.4226C56.4983 85.5996 49.9459 86.722 43.3902 87.8373C43.1732 87.8742 43.2292 88.2135 43.4465 88.1755C49.9966 87.0273 56.5462 85.8869 63.1065 84.8006C66.3101 84.2701 69.5163 83.7512 72.728 83.2735Z" fill="#3353F8" fill-opacity="0.7"/>
<path d="M58.8819 93.6789C59.0296 93.6394 58.9955 93.4319 58.843 93.4443C54.9255 93.7624 50.3356 94.4198 46.5921 95.6636C46.5719 95.6703 46.5778 95.7059 46.599 95.7055C50.5347 95.6203 55.0805 94.6966 58.8819 93.6789Z" fill="#3353F8" fill-opacity="0.7"/>
<path d="M84.9012 89.8912C80.7981 90.2268 76.3882 91.0257 72.4269 92.1613C72.3778 92.1754 72.3889 92.2428 72.4398 92.2395C76.5476 91.9791 80.9701 91.2494 84.9503 90.1866C85.1362 90.137 85.0932 89.8755 84.9012 89.8912Z" fill="#3353F8" fill-opacity="0.7"/>
<path d="M75.0084 96.2326C74.8616 96.2765 74.8942 96.4752 75.0473 96.4672C78.4471 96.2913 82.1726 95.5708 85.4572 94.6607C85.5991 94.6214 85.5667 94.4241 85.4197 94.4347C82.0261 94.6808 78.276 95.2542 75.0084 96.2326Z" fill="#3353F8" fill-opacity="0.7"/>
<path d="M45.635 101.37C45.595 101.385 45.6063 101.453 45.6489 101.454C47.443 101.479 49.2701 101.102 50.9949 100.61C51.1476 100.566 51.113 100.356 50.9545 100.366C49.168 100.483 47.3198 100.742 45.635 101.37Z" fill="#3353F8" fill-opacity="0.7"/>
<path d="M33.9449 47.8411C34.0994 51.9299 37.9902 54.7514 41.8303 54.6605C45.7215 54.5683 50.9558 51.112 50.117 46.5725C49.4457 42.9391 44.0949 38.4217 40.3906 40.2932C40.2571 40.3606 40.2266 40.5499 40.2978 40.665C36.7678 41.1028 33.7941 43.8486 33.9449 47.8411ZM42.033 40.8323C44.6374 41.1115 46.8052 42.2282 48.4259 44.6385C51.404 49.0679 46.6343 53.4115 42.4174 53.8784C39.0156 54.255 35.1811 52.0493 34.6396 48.4389C33.9747 44.0061 37.9823 40.8681 42.033 40.8323Z" fill="#3353F8"/>
<path d="M57.3281 51.2661C57.3848 51.4008 57.5955 51.3321 57.5711 51.1892C56.9503 47.566 55.7219 44.0084 54.9749 40.3968C54.9217 40.1395 54.521 40.2073 54.5735 40.4664C55.2944 44.0289 55.9156 47.9108 57.3281 51.2661Z" fill="#3353F8" fill-opacity="0.7"/>
<path d="M76.2491 36.462C72.7783 36.7729 69.3114 37.4636 65.8661 37.9953C64.2127 38.2505 62.5588 38.5022 60.9072 38.7696C59.0758 39.0661 56.3984 39.9503 54.5829 39.5032C54.4701 39.4755 54.4062 39.6284 54.5173 39.6765C55.7546 40.2126 56.9735 39.8797 58.2849 39.6898C60.2417 39.4064 62.1959 39.1041 64.1489 38.7948C68.1886 38.1551 72.313 37.6972 76.3054 36.8006C76.5221 36.7519 76.4671 36.4424 76.2491 36.462Z" fill="#3353F8" fill-opacity="0.7"/>
<path d="M78.9027 47.4652C75.185 47.9583 71.4732 48.509 67.7722 49.1203C64.5551 49.6517 60.6121 49.7396 57.6519 51.1717C57.6324 51.1811 57.6373 51.2111 57.6589 51.2135C60.9287 51.572 64.6534 50.3306 67.8764 49.7483C71.5682 49.0814 75.2507 48.3535 78.92 47.5694C78.9863 47.5552 78.97 47.4563 78.9027 47.4652Z" fill="#3353F8" fill-opacity="0.7"/>
<path d="M76.4757 36.3515C76.5197 40.0059 77.3692 43.777 78.1945 47.3153C78.2323 47.4773 78.4647 47.4374 78.4481 47.2714C78.0859 43.6518 77.6715 39.8058 76.5347 36.3413C76.5253 36.3127 76.4753 36.3213 76.4757 36.3515Z" fill="#3353F8" fill-opacity="0.7"/>
<path d="M36.934 46.5948C36.963 46.5986 36.9938 46.6003 37.0252 46.6005C37.0192 46.6536 37.0135 46.7065 37.0104 46.7594C36.9605 46.7318 36.8969 46.7297 36.8372 46.7776C36.3219 47.1905 35.8835 47.9795 36.1393 48.6537C36.2436 48.9288 36.4694 49.1199 36.766 49.1346C37.0206 49.1472 37.2462 49.0311 37.2632 48.7573C37.2676 48.6855 37.1909 48.6136 37.1202 48.6546C36.9836 48.734 36.8356 48.7947 36.6824 48.7412C36.4043 48.6441 36.412 48.2631 36.4596 48.0238C36.5329 47.6551 36.7411 47.3269 37.0079 47.0687C37.0281 47.5969 37.1665 48.0994 37.3022 48.5091C37.5377 49.2201 37.9068 49.9587 38.4012 50.5863C38.3163 50.6214 38.233 50.6618 38.1396 50.6731C37.9472 50.6964 37.7479 50.6143 37.6035 50.4911C37.2171 50.1615 37.2758 49.5499 37.4283 49.117C37.4332 49.1031 37.4136 49.0915 37.4053 49.1046C37.0836 49.6104 36.9186 50.3674 37.4188 50.82C37.6689 51.0463 38.4175 51.2195 38.6394 50.8688C39.0749 51.35 39.5948 51.7395 40.1957 51.9649C39.9368 52.2297 39.5055 52.4301 39.1598 52.2913C38.6995 52.1066 38.5703 51.4624 38.7416 51.0345C38.7563 50.9979 38.7088 50.9627 38.6794 50.9898C38.1624 51.4666 38.3335 52.3512 38.9452 52.6597C39.5036 52.9414 40.2658 52.6693 40.4083 52.0399C40.4666 52.0574 40.5273 52.0695 40.5871 52.0837C40.5773 52.3385 40.593 52.5774 40.7385 52.8164C40.9039 53.0881 41.1964 53.295 41.5067 53.3536C42.0185 53.4503 42.7001 52.9922 42.4255 52.4093C42.4052 52.3661 42.3362 52.3653 42.3204 52.4136C42.1891 52.8149 41.8038 53.0754 41.3954 52.8848C41.1231 52.7577 40.8982 52.4381 40.7662 52.126C40.8847 52.1473 41.0057 52.1624 41.1296 52.1706L41.1389 52.0351C41.7818 52.2002 42.4599 52.2287 43.1081 52.1157C43.3327 52.0765 43.5535 52.0206 43.7682 51.9474C45.4544 51.3726 46.6313 49.7537 46.631 48.0105C46.6309 47.4634 46.5049 46.9229 46.2933 46.4105C46.7725 46.2885 47.4079 46.4475 47.6344 46.9091C47.9469 47.5459 47.4016 48.137 46.8865 48.4248C46.8178 48.4631 46.8324 48.5652 46.9115 48.577C46.9935 48.5891 47.0713 48.587 47.1469 48.5787C47.1572 48.939 47.3199 49.318 47.2293 49.6662C47.092 50.1945 46.4258 50.2043 45.9959 50.1806C45.9877 50.1802 45.982 50.1919 45.9899 50.1968C46.1372 50.2887 46.3019 50.363 46.4701 50.4128C46.7214 50.693 46.5928 51.2052 46.3301 51.4324C46.0308 51.6913 45.486 51.7467 45.1252 51.6259C45.116 51.6229 45.1083 51.6357 45.1169 51.6415C45.3583 51.8036 45.6099 51.9529 45.9096 51.9308C46.189 51.9103 46.4654 51.8022 46.6405 51.572C46.9205 51.204 46.8774 50.7484 46.5871 50.4434C46.9713 50.5252 47.3604 50.4494 47.6043 50.0503C47.8893 49.5838 47.7338 48.9006 47.3573 48.5306C47.9738 48.2996 48.2845 47.399 48.0033 46.7917C47.6896 46.114 46.8346 45.8651 46.2388 46.2739C45.9212 45.5701 45.4203 44.9382 44.7888 44.4433C45.2524 44.211 45.8074 44.2502 46.2 44.6164C46.6168 45.0051 46.5388 45.4825 46.5873 45.9964C46.5953 46.0821 46.6991 46.0835 46.7453 46.0326C47.1968 45.5356 46.8343 44.66 46.3976 44.2838C45.8721 43.8311 45.096 43.8738 44.5443 44.2537C44.9515 43.63 44.4502 42.7063 43.8638 42.4112C43.1798 42.0669 42.3345 42.3601 41.9258 42.9927C41.8484 43.1124 42.0238 43.2398 42.1044 43.121C42.4737 42.5765 43.2336 42.3262 43.8129 42.6894C44.3581 43.031 44.3781 43.5848 44.382 44.1505C44.2195 44.0478 44.0535 43.9493 43.878 43.8656C42.7513 43.3288 41.4255 43.2317 40.2137 43.5393C40.1774 43.1865 40.31 42.7838 40.6875 42.6848C41.074 42.5835 41.333 42.8566 41.5757 43.1084C41.6272 43.1618 41.7014 43.1206 41.699 43.0505C41.6811 42.5263 40.9995 42.2931 40.5684 42.441C40.1121 42.5977 39.844 43.1364 39.9907 43.592C39.5618 43.7204 39.1501 43.9011 38.7708 44.1348C37.885 44.6799 37.2803 45.4566 37.0829 46.2817C37.0366 46.2939 36.9877 46.3006 36.9313 46.2926C36.6999 46.26 36.5146 46.0932 36.4763 45.856C36.3777 45.2469 37.1444 44.5943 37.7156 44.7061C37.7471 44.7123 37.7507 44.6551 37.7142 44.659C37.2467 44.7078 36.8633 44.6822 36.5237 45.0727C36.2893 45.3423 36.152 45.7319 36.2768 46.0824C36.3769 46.3641 36.6435 46.5572 36.934 46.5948ZM37.5111 46.5007C37.647 45.7595 38.1943 45.0457 39.0129 44.5414C40.3853 43.696 42.2156 43.6005 43.6762 44.2968C45.1621 45.0052 46.1607 46.4985 46.1611 48.0131C46.1612 49.5292 45.093 50.9938 43.6203 51.4961C42.5614 51.8555 41.3369 51.7531 40.3406 51.2177L40.2117 51.4617C38.9937 50.9287 38.1586 49.5944 37.7481 48.355C37.5751 47.8331 37.3919 47.1508 37.5111 46.5007Z" fill="#3353F8"/>
<path d="M37.8711 44.4649C37.8794 44.296 37.8245 44.1445 37.8494 43.9735C37.8851 43.7272 38.0305 43.4932 38.2471 43.3686C38.6148 43.1572 39.2927 43.1608 39.5518 43.5375C39.6337 43.6566 39.8433 43.5244 39.7672 43.3984C39.4421 42.8599 38.609 42.7986 38.1024 43.1005C37.7153 43.3311 37.2574 44.1783 37.7674 44.5128C37.8066 44.5385 37.8686 44.5173 37.8711 44.4649Z" fill="#3353F8"/>
<path d="M44.6513 51.792C44.5848 52.6736 43.68 52.5932 43.0441 52.4911C43.0183 52.487 43.0125 52.5241 43.034 52.534C43.4882 52.7438 43.99 52.9391 44.4536 52.6322C44.7412 52.4417 44.9452 52.0995 44.7514 51.7745C44.7266 51.733 44.6556 51.7348 44.6513 51.792Z" fill="#3353F8"/>
<path d="M82.3136 63.4492C81.2297 63.4165 80.1699 63.6021 79.0924 63.7103C78.0818 63.8118 77.117 63.7509 76.1349 63.7365C76.556 62.2223 76.9048 60.6724 76.9864 59.1024C76.9885 59.0616 76.9301 59.0444 76.9155 59.0857C76.3751 60.6131 75.968 62.1876 75.4939 63.7396C75.4092 63.741 75.326 63.738 75.2408 63.7408C74.2906 63.7729 73.4485 64.2013 73.4172 65.2461C73.4154 65.3061 73.498 65.3143 73.5085 65.2553C73.6291 64.5757 74.3909 64.3521 75.3106 64.316C75.2457 64.5186 75.1858 64.7229 75.1171 64.9242C74.8427 65.7283 74.6329 66.7643 74.1987 67.492C73.4493 68.7481 72.8986 68.2597 72.4098 67.4737C72.8357 67.7139 73.2957 67.8556 73.8479 67.8404C74.0379 67.8352 74.1486 67.5512 73.9322 67.4811C73.1286 67.2207 72.4304 67.0067 71.7845 66.4176C71.6084 66.257 71.3278 66.513 71.4336 66.7143C71.9745 67.7432 72.9356 70.9517 74.2544 69.0137C75.1211 67.7399 75.5499 65.8141 75.9722 64.317C76.3173 64.3307 76.6663 64.3601 77.0021 64.3948C76.3105 65.5376 75.9779 66.7645 75.882 68.1063C75.8605 68.4076 76.2139 68.5129 76.3947 68.3002C76.9363 67.6633 77.3933 66.9582 77.805 66.2285C77.8388 66.7918 77.871 67.3875 78.053 67.854C78.1449 68.0897 78.2682 68.3002 78.5456 68.335C78.9561 68.3865 79.3107 67.8836 79.5574 67.6362C80.0209 67.1714 80.5501 66.7591 80.8186 66.1513C80.9066 65.952 80.6765 65.7647 80.4952 65.8476C79.7813 66.1738 79.4797 66.9247 78.8431 67.3363C78.6353 67.6811 78.5487 67.7009 78.5833 67.3958C78.5845 67.2027 78.5568 67.0135 78.5001 66.8282C78.4171 66.3394 78.3006 65.8562 78.2141 65.3679C78.18 65.1755 77.8886 65.0759 77.7796 65.2683C77.396 65.9451 76.9638 66.5732 76.5107 67.1927C76.6214 66.2434 76.8689 65.3198 77.2032 64.4155C77.8876 64.4905 78.4871 64.5748 78.8054 64.5616C80.0282 64.5105 81.2368 64.3459 82.3922 63.9264C82.6217 63.8431 82.5514 63.4564 82.3136 63.4492Z" fill="#3353F8"/>
</svg>
