<svg width="18" height="15" viewBox="0 0 18 15" fill="none" xmlns="http://www.w3.org/2000/svg">
<path d="M-8.87662e-05 14.7266L8.66753 -0.000711203L17.3351 14.7266H-8.87662e-05ZM8.66753 13.0774C8.99565 13.0774 9.27477 12.9624 9.50488 12.7322C9.73926 12.4979 9.85645 12.2166 9.85645 11.8885C9.85645 11.5604 9.73926 11.2812 9.50488 11.0511C9.27477 10.8168 8.99565 10.6996 8.66753 10.6996C8.3394 10.6996 8.05815 10.8168 7.82378 11.0511C7.59366 11.2812 7.4786 11.5604 7.4786 11.8885C7.4786 12.2166 7.59366 12.4979 7.82378 12.7322C8.05815 12.9624 8.3394 13.0774 8.66753 13.0774ZM7.8877 9.25497H9.44735L9.56241 4.90838H7.77264L7.8877 9.25497Z" fill="#92400E"/>
</svg>
