<svg width="120" height="110" viewBox="0 0 120 110" fill="none" xmlns="http://www.w3.org/2000/svg">
<path d="M21.23 109.286H0.845271C0.61423 109.286 0.393835 109.191 0.234624 109.025C0.0743994 108.858 -0.00976739 108.632 0.00104947 108.403L4.40385 11.4359C4.42447 10.9845 4.79664 10.6289 5.24807 10.6289H12.97C13.4371 10.6289 13.815 11.0068 13.815 11.474C13.815 11.9411 13.4371 12.319 12.97 12.319H6.05596L1.72989 107.595H21.23C21.6971 107.595 22.0751 107.973 22.0751 108.441C22.0751 108.908 21.6971 109.286 21.23 109.286Z" fill="#3353F8"/>
<path d="M101.537 109.286H38.2741C37.807 109.286 37.4291 108.908 37.4291 108.441C37.4291 107.973 37.807 107.595 38.2741 107.595H100.729L105.055 12.319H88.6819C88.2148 12.319 87.8368 11.9411 87.8368 11.474C87.8368 11.0068 88.2148 10.6289 88.6819 10.6289H105.94C106.171 10.6289 106.391 10.7229 106.551 10.8905C106.711 11.0572 106.795 11.2816 106.784 11.5118L102.381 108.478C102.361 108.931 101.989 109.286 101.537 109.286Z" fill="#3353F8"/>
<path d="M79.6357 12.319H66.5403C66.0733 12.319 65.6953 11.9411 65.6953 11.474C65.6953 11.0068 66.0733 10.6289 66.5403 10.6289H79.6357C80.1026 10.6289 80.4807 11.0068 80.4807 11.474C80.4807 11.9411 80.1026 12.319 79.6357 12.319Z" fill="#3353F8"/>
<path d="M57.1692 12.319H44.399C43.932 12.319 43.554 11.9411 43.554 11.474C43.554 11.0068 43.932 10.6289 44.399 10.6289H57.1692C57.6363 10.6289 58.0142 11.0068 58.0142 11.474C58.0142 11.9411 57.6363 12.319 57.1692 12.319Z" fill="#3353F8"/>
<path d="M35.8495 12.319H22.2575C21.7905 12.319 21.4124 11.9411 21.4124 11.474C21.4124 11.0068 21.7905 10.6289 22.2575 10.6289H35.8495C36.3167 10.6289 36.6946 11.0068 36.6946 11.474C36.6946 11.9411 36.3167 12.319 35.8495 12.319Z" fill="#3353F8"/>
<path d="M119.155 104.891H106.741C106.274 104.891 105.896 104.513 105.896 104.046C105.896 103.579 106.274 103.201 106.741 103.201H118.18L113.004 67.3369C112.938 66.8748 113.258 66.4474 113.721 66.3796C114.179 66.3235 114.61 66.6338 114.678 67.0959L119.992 103.926C120.026 104.168 119.955 104.414 119.794 104.599C119.634 104.784 119.4 104.891 119.155 104.891Z" fill="#3353F8"/>
<path d="M111.885 54.5163C111.471 54.5163 111.11 54.2126 111.049 53.7918L108.458 35.829C108.392 35.3669 108.712 34.9387 109.174 34.8717C109.63 34.8065 110.064 35.1259 110.131 35.5882L112.722 53.5508C112.789 54.0128 112.468 54.4411 112.006 54.5081C111.966 54.5138 111.925 54.5163 111.885 54.5163Z" fill="#3353F8"/>
<path d="M13.6229 28.6726H4.4946C4.02745 28.6726 3.64954 28.2945 3.64954 27.8275C3.64954 27.3603 4.02745 26.9824 4.4946 26.9824H13.6229C14.0898 26.9824 14.4679 27.3603 14.4679 27.8275C14.4679 28.2945 14.0898 28.6726 13.6229 28.6726Z" fill="#3353F8"/>
<path d="M30.0952 28.6726H24.0112C23.5442 28.6726 23.1661 28.2945 23.1661 27.8275C23.1661 27.3603 23.5442 26.9824 24.0112 26.9824H30.0952C30.5622 26.9824 30.9403 27.3603 30.9403 27.8275C30.9403 28.2945 30.5622 28.6726 30.0952 28.6726Z" fill="#3353F8"/>
<path d="M105.197 28.6726H43.5171C43.0499 28.6726 42.672 28.2945 42.672 27.8275C42.672 27.3603 43.0499 26.9824 43.5171 26.9824H105.197C105.664 26.9824 106.042 27.3603 106.042 27.8275C106.042 28.2945 105.664 28.6726 105.197 28.6726Z" fill="#3353F8"/>
<path d="M62.7307 91.4012H26.7617C26.5224 91.4012 26.2946 91.3007 26.1345 91.1224C25.9736 90.9441 25.8969 90.7081 25.9207 90.4688L26.5785 84.1059C26.6232 83.6751 26.9862 83.3484 27.4194 83.3484C31.0094 83.3484 34.2188 80.5078 34.5744 77.017L36.314 60.0513C37.2739 50.6688 45.8946 43.0352 55.5319 43.0352C61.062 43.0352 66.0969 45.6167 69.0019 49.9411C69.2619 50.3281 69.1586 50.8537 68.7716 51.1137C68.3837 51.3753 67.8597 51.2697 67.599 50.8835C64.9705 46.97 60.5719 44.7253 55.5319 44.7253C46.7363 44.7253 38.8699 51.6773 37.9961 60.223L36.2564 77.1886C35.8405 81.2655 32.2993 84.6275 28.1853 85.0039L27.6984 89.7111H62.7307C63.1978 89.7111 63.5758 90.0892 63.5758 90.5562C63.5758 91.0233 63.1978 91.4012 62.7307 91.4012Z" fill="#3353F8"/>
<path d="M75.0131 91.4003H70.914C70.447 91.4003 70.0689 91.0224 70.0689 90.5552C70.0689 90.0882 70.447 89.7101 70.914 89.7101H74.2447L74.6953 84.9864C72.8583 84.7817 71.2185 83.963 70.0096 82.6327C68.6363 81.1192 67.9917 79.127 68.1956 77.0209L69.8353 60.0552C69.8799 59.5897 70.2934 59.2696 70.758 59.2943C71.2217 59.3406 71.5627 59.7532 71.5174 60.2169L69.8774 77.1827C69.7207 78.8084 70.2117 80.3402 71.2606 81.4956C72.345 82.6905 73.8932 83.3475 75.6205 83.3475C75.859 83.3475 76.086 83.448 76.246 83.6246C76.4061 83.7997 76.4845 84.0357 76.4613 84.2733L75.8541 90.6362C75.8128 91.0685 75.4488 91.4003 75.0131 91.4003Z" fill="#3353F8"/>
<path d="M50.2639 97.6713C48.4977 97.6713 46.8513 97.0424 45.6266 95.8987C45.2857 95.5801 45.2676 95.0454 45.5854 94.7053C45.9048 94.3637 46.4387 94.3472 46.7803 94.6641C47.6906 95.514 48.9276 95.9812 50.2639 95.9812C53.3774 95.9812 56.1545 93.5104 56.4525 90.4751C56.4978 90.0113 56.9105 89.6944 57.3759 89.7159C57.8406 89.762 58.1798 90.1763 58.1343 90.64C57.7539 94.5172 54.2225 97.6713 50.2639 97.6713Z" fill="#3353F8"/>
<path d="M49.6821 45.7538C49.6541 45.7538 49.6252 45.7521 49.5963 45.7497C49.1317 45.7026 48.7933 45.2883 48.8404 44.8237L48.8932 44.3013C49.2447 40.8105 52.4492 37.9707 56.0375 37.9707C57.8325 37.9707 59.4384 38.65 60.5583 39.8821C60.8718 40.2279 60.8463 40.7626 60.5014 41.0762C60.1564 41.389 59.6225 41.3658 59.3071 41.0192C58.5116 40.1429 57.3504 39.6608 56.0375 39.6608C53.2928 39.6608 50.8417 41.819 50.575 44.4713L50.5223 44.9937C50.4777 45.4294 50.1104 45.7538 49.6821 45.7538Z" fill="#3353F8"/>
<path d="M21.2937 19.2044C21.2625 19.2044 21.231 19.2027 21.1989 19.1995C18.2939 18.8743 16.5534 14.5078 17.1502 9.04212C17.5447 5.44805 18.9145 2.31454 20.7252 0.864572C21.5413 0.212687 22.4385 -0.0721012 23.3025 0.0154478C25.5629 0.263053 27.1877 3.00952 27.4411 7.01193C27.4708 7.47824 27.1168 7.87931 26.6515 7.90906C26.186 7.93052 25.7832 7.58472 25.7543 7.11925C25.5645 4.12281 24.4553 1.84181 23.1167 1.69561C22.6942 1.64457 22.2453 1.81206 21.7815 2.18423C20.3307 3.3462 19.1721 6.10991 18.8304 9.22618C18.3211 13.8881 19.7687 17.3385 21.387 17.5192C21.8508 17.5712 22.1843 17.9897 22.1331 18.4535C22.0844 18.885 21.7188 19.2044 21.2937 19.2044Z" fill="#3353F8"/>
<path d="M43.4522 19.2044C43.4208 19.2044 43.3895 19.2027 43.3572 19.1995C40.4524 18.8743 38.7119 14.5078 39.3085 9.04212C39.703 5.44805 41.073 2.31454 42.8836 0.864572C43.7007 0.212687 44.5976 -0.0721012 45.4609 0.0154478C47.7213 0.263053 49.3462 3.00952 49.5996 7.01193C49.6293 7.47824 49.2752 7.87931 48.8098 7.90906C48.3526 7.93052 47.9415 7.58472 47.9126 7.11925C47.7228 4.12281 46.6138 1.84181 45.2752 1.69561C44.8486 1.64457 44.4029 1.81206 43.94 2.18423C42.4892 3.3462 41.3304 6.10991 40.9888 9.22618C40.4796 13.8881 41.927 17.3385 43.5455 17.5192C44.0093 17.5712 44.3426 17.9897 44.2915 18.4535C44.2429 18.885 43.8771 19.2044 43.4522 19.2044Z" fill="#3353F8"/>
<path d="M65.6094 19.2044C65.5781 19.2044 65.5467 19.2027 65.5146 19.1995C62.6104 18.8743 60.8699 14.5078 61.4667 9.04212C61.8612 5.44805 63.231 2.31454 65.0417 0.864572C65.8587 0.212687 66.7567 -0.0721012 67.619 0.0154478C69.8794 0.263053 71.5042 3.00952 71.7576 7.01193C71.7873 7.47824 71.4333 7.87931 70.968 7.90906C70.4983 7.93052 70.0997 7.58472 70.0708 7.11925C69.881 4.12281 68.7718 1.84181 67.4332 1.69561C67.0092 1.64457 66.5609 1.81206 66.098 2.18423C64.6472 3.3462 63.4886 6.10991 63.1469 9.22618C62.6376 13.8881 64.0852 17.3385 65.7027 17.5192C66.1665 17.5712 66.4999 17.9897 66.4487 18.4535C66.4 18.885 66.0345 19.2044 65.6094 19.2044Z" fill="#3353F8"/>
<path d="M87.7674 19.2044C87.736 19.2044 87.7047 19.2027 87.6724 19.1995C84.7684 18.8743 83.0279 14.5078 83.6237 9.04212C84.0182 5.44805 85.3882 2.31454 87.1988 0.864572C88.0159 0.212687 88.9079 -0.0721012 89.7761 0.0154478C92.0365 0.263053 93.6623 3.00952 93.9156 7.01193C93.9454 7.47824 93.5913 7.87931 93.1258 7.90906C92.6646 7.93052 92.2576 7.58472 92.2287 7.11925C92.0389 4.12281 90.9298 1.84181 89.5904 1.69561C89.1629 1.64457 88.7181 1.81206 88.2552 2.18423C86.8044 3.3462 85.6456 6.10991 85.304 9.22618C84.7956 13.8881 86.2431 17.3385 87.8607 17.5192C88.3245 17.5712 88.6579 17.9897 88.6067 18.4535C88.558 18.885 88.1925 19.2044 87.7674 19.2044Z" fill="#3353F8"/>
<path d="M20.9472 22.2681C19.6836 22.2681 18.4928 21.6533 17.7599 20.6233C17.49 20.2437 17.5792 19.7155 17.9597 19.4449C18.3418 19.175 18.8675 19.2649 19.1381 19.6445C19.5532 20.2288 20.2299 20.578 20.9472 20.578C22.171 20.578 23.1662 19.5827 23.1662 18.3589C23.1662 17.7671 22.9351 17.2101 22.5151 16.7901C22.1859 16.4591 22.1859 15.9244 22.516 15.5943C22.846 15.2657 23.3816 15.2649 23.7117 15.595C24.4495 16.3344 24.8563 17.3166 24.8563 18.3589C24.8563 20.5145 23.1026 22.2681 20.9472 22.2681Z" fill="#3353F8"/>
<path d="M43.2333 22.2684C41.9698 22.2684 40.7782 21.6535 40.0469 20.6235C39.7772 20.2431 39.8663 19.7149 40.2467 19.4452C40.6288 19.1727 41.1553 19.2643 41.4252 19.6448C41.8403 20.2291 42.5162 20.5782 43.2333 20.5782C44.4572 20.5782 45.4525 19.5829 45.4525 18.3591C45.4525 17.7665 45.2214 17.2095 44.8021 16.7903C44.472 16.4602 44.472 15.9255 44.8021 15.5952C45.1322 15.2651 45.667 15.2651 45.997 15.5952C46.7358 16.334 47.1426 17.3151 47.1426 18.3591C47.1426 20.5147 45.3889 22.2684 43.2333 22.2684Z" fill="#3353F8"/>
<path d="M65.2283 22.2684C63.9656 22.2684 62.7748 21.6535 62.0419 20.6235C61.772 20.2439 61.8613 19.7158 62.2417 19.4452C62.6237 19.1753 63.1503 19.2652 63.4201 19.6448C63.8352 20.2291 64.5119 20.5782 65.2283 20.5782C66.4522 20.5782 67.4482 19.5829 67.4482 18.3591C67.4482 17.7674 67.2171 17.2103 66.7971 16.7903C66.467 16.4602 66.467 15.9255 66.7971 15.5952C67.1272 15.2651 67.662 15.2651 67.992 15.5952C68.7315 16.3347 69.1383 17.3159 69.1383 18.3591C69.1383 20.5147 67.3846 22.2684 65.2283 22.2684Z" fill="#3353F8"/>
<path d="M87.3629 22.0795C86.1004 22.0795 84.9087 21.4646 84.1758 20.434C83.9059 20.0542 83.9952 19.5261 84.3756 19.2555C84.7576 18.9856 85.2834 19.0755 85.554 19.4552C85.9699 20.0402 86.6458 20.3894 87.3629 20.3894C88.5869 20.3894 89.5821 19.3932 89.5821 18.1694C89.5821 17.5777 89.351 17.0206 88.931 16.6006C88.6018 16.2697 88.6018 15.7349 88.9319 15.4048C89.262 15.0763 89.7976 15.0754 90.1277 15.4057C90.8654 16.1451 91.2722 17.1271 91.2722 18.1694C91.2722 20.3258 89.5185 22.0795 87.3629 22.0795Z" fill="#3353F8"/>
</svg>
