<svg width="250" height="250" viewBox="0 0 250 250" fill="none" xmlns="http://www.w3.org/2000/svg">
<path d="M102.53 22.0703C102.53 22.0703 125.89 17.3353 147.145 22.0703C160.145 24.9653 187.52 31.8303 193.985 47.3903C200.45 62.9503 169.335 76.2253 184.62 92.0103C191.215 98.8203 222.86 107.8 221.08 151.97C219.3 196.14 172.935 223.065 108.5 221.865C44.0651 220.665 6.86505 162.07 31.7851 133.215C56.7051 104.36 67.4351 104.275 56.1401 80.7753C44.8451 57.2753 60.5251 28.7953 102.53 22.0703Z" fill="#407BFF"/>
<path opacity="0.7" d="M102.53 22.0703C102.53 22.0703 125.89 17.3353 147.145 22.0703C160.145 24.9653 187.52 31.8303 193.985 47.3903C200.45 62.9503 169.335 76.2253 184.62 92.0103C191.215 98.8203 222.86 107.8 221.08 151.97C219.3 196.14 172.935 223.065 108.5 221.865C44.0651 220.665 6.86505 162.07 31.7851 133.215C56.7051 104.36 67.4351 104.275 56.1401 80.7753C44.8451 57.2753 60.5251 28.7953 102.53 22.0703Z" fill="white"/>
<path d="M57.9696 94.0952L62.3196 106.815L41.4596 113.95L36.2996 98.8552L57.1596 91.7202L57.9696 94.0952Z" stroke="#263238" stroke-width="0.5" stroke-linecap="round" stroke-linejoin="round"/>
<path d="M60.1399 100.43L62.3199 106.815L41.4599 113.95L40.3899 110.82L44.5949 104.45L51.4399 107.115L56.3249 98.8755L60.1399 100.43Z" stroke="#263238" stroke-width="0.5" stroke-linecap="round" stroke-linejoin="round"/>
<path d="M47.1095 99.6249C47.2556 100.05 47.2723 100.508 47.1577 100.943C47.043 101.377 46.8021 101.767 46.4654 102.065C46.1287 102.362 45.7114 102.553 45.2663 102.613C44.8211 102.673 44.3682 102.599 43.9647 102.402C43.5613 102.204 43.2255 101.892 42.9999 101.503C42.7743 101.115 42.6691 100.668 42.6974 100.22C42.7257 99.7716 42.8864 99.3418 43.1592 98.9849C43.4319 98.628 43.8044 98.36 44.2295 98.2149C44.5111 98.118 44.8091 98.0777 45.1064 98.0962C45.4037 98.1146 45.6944 98.1915 45.9619 98.3225C46.2294 98.4535 46.4685 98.6359 46.6654 98.8594C46.8623 99.0829 47.0132 99.343 47.1095 99.6249Z" stroke="#263238" stroke-width="0.5" stroke-linecap="round" stroke-linejoin="round"/>
<path d="M182.279 198.499L179.404 211.634L157.869 206.914L161.279 191.334L182.819 196.049L182.279 198.499Z" stroke="#263238" stroke-width="0.5" stroke-linecap="round" stroke-linejoin="round"/>
<path d="M162.139 203.555L176.934 206.795" stroke="#263238" stroke-width="0.5" stroke-linecap="round" stroke-linejoin="round"/>
<path d="M163.35 196.649C163.35 196.649 161.85 203.524 169.53 205.209C177.21 206.894 178.715 199.999 178.715 199.999" stroke="#263238" stroke-width="0.5" stroke-linecap="round" stroke-linejoin="round"/>
<path d="M163.999 196.795C163.959 196.964 163.853 197.112 163.706 197.205C163.558 197.299 163.38 197.331 163.209 197.295C163.08 197.266 162.963 197.201 162.872 197.106C162.78 197.01 162.719 196.89 162.696 196.76C162.673 196.631 162.69 196.497 162.743 196.376C162.796 196.256 162.884 196.154 162.996 196.083C163.107 196.013 163.237 195.977 163.369 195.98C163.501 195.984 163.628 196.026 163.736 196.103C163.843 196.179 163.926 196.285 163.973 196.409C164.02 196.532 164.029 196.666 163.999 196.795Z" fill="white" stroke="#263238" stroke-width="0.5" stroke-linecap="round" stroke-linejoin="round"/>
<path d="M179.365 200.16C179.352 200.251 179.321 200.338 179.273 200.416C179.225 200.494 179.161 200.561 179.086 200.614C179.011 200.666 178.925 200.702 178.835 200.72C178.746 200.738 178.653 200.737 178.563 200.717C178.474 200.698 178.389 200.66 178.315 200.606C178.241 200.552 178.179 200.483 178.132 200.404C178.086 200.325 178.057 200.237 178.046 200.146C178.035 200.055 178.043 199.963 178.07 199.875C178.118 199.715 178.226 199.579 178.37 199.494C178.515 199.409 178.686 199.382 178.849 199.418C179.013 199.454 179.157 199.551 179.252 199.688C179.348 199.826 179.388 199.994 179.365 200.16Z" fill="white" stroke="#263238" stroke-width="0.5" stroke-linecap="round" stroke-linejoin="round"/>
<path d="M162.549 203.08L161.411 202.831L161.162 203.969L162.3 204.218L162.549 203.08Z" fill="white" stroke="#263238" stroke-width="0.5" stroke-linecap="round" stroke-linejoin="round"/>
<path d="M170.227 204.758L169.089 204.509L168.84 205.647L169.978 205.896L170.227 204.758Z" fill="white" stroke="#263238" stroke-width="0.5" stroke-linecap="round" stroke-linejoin="round"/>
<path d="M177.915 206.443L176.777 206.194L176.527 207.332L177.665 207.581L177.915 206.443Z" fill="white" stroke="#263238" stroke-width="0.5" stroke-linecap="round" stroke-linejoin="round"/>
<path d="M82.6245 55.635L77.1845 67.93L57.0195 59L63.4795 44.415L83.6395 53.34L82.6245 55.635Z" stroke="#263238" stroke-width="0.5" stroke-linecap="round" stroke-linejoin="round"/>
<path d="M72.0395 60.705C71.6545 61.575 70.2595 61.805 68.9295 61.205C67.5995 60.605 66.8345 59.43 67.2195 58.555C67.6045 57.68 68.9995 57.455 70.3295 58.055C71.6595 58.655 72.4245 59.83 72.0395 60.705Z" fill="#263238"/>
<path d="M73.0597 51.1001L67.6797 58.7751L67.2197 58.5701L71.1547 52.9601L72.1547 51.5001C72.467 51.4156 72.764 51.2823 73.0347 51.1051L73.0597 51.1001Z" fill="#263238"/>
<path d="M73.0546 51.105L71.7496 52.955C71.5518 52.9759 71.3524 52.9759 71.1546 52.955C70.5644 52.9067 69.9906 52.7364 69.4696 52.455C69.1159 52.2646 68.7155 52.1781 68.3147 52.2056C67.9139 52.233 67.5291 52.3732 67.2046 52.61C67.2696 52.53 68.5396 50.945 70.2896 51.5C70.903 51.6937 71.5612 51.6937 72.1746 51.5C72.4869 51.4155 72.7839 51.2822 73.0546 51.105Z" fill="#263238"/>
<path d="M217.015 155.305L212.32 167.905L191.66 160.21L197.23 145.255L217.89 152.955L217.015 155.305Z" stroke="#263238" stroke-width="0.5" stroke-linecap="round" stroke-linejoin="round"/>
<path d="M203.11 152.535L197.93 154.905L200.3 160.09" stroke="#263238" stroke-width="0.5" stroke-linecap="round" stroke-linejoin="round"/>
<path d="M205.864 162.16L211.049 159.795L208.679 154.61" stroke="#263238" stroke-width="0.5" stroke-linecap="round" stroke-linejoin="round"/>
<path d="M206.8 153.9L202.175 160.795" stroke="#263238" stroke-width="0.5" stroke-linecap="round" stroke-linejoin="round"/>
<path d="M196.4 38.2352L191.795 50.8702L171.08 43.3152L176.545 28.3252L197.26 35.8802L196.4 38.2352Z" stroke="#263238" stroke-width="0.5" stroke-linecap="round" stroke-linejoin="round"/>
<path d="M181.725 39.1848C181.725 39.1848 181.475 37.7698 179.385 38.0798C177.455 38.3698 176.885 40.5398 178.535 41.1348C180.45 41.8348 181.95 40.2148 183.815 38.6348C185.76 36.9698 187.525 35.1748 187.75 34.9648C187.75 34.9648 183.365 42.8098 182.795 43.8448C182.225 44.8798 183.94 44.4998 184.25 44.0398" stroke="#263238" stroke-width="0.5" stroke-linecap="round" stroke-linejoin="round"/>
<path d="M189.129 41.5003C188.581 41.1345 187.913 40.9918 187.263 41.1015C186.612 41.2111 186.028 41.5648 185.629 42.0903C185.019 42.8253 185.339 43.5903 185.864 43.7953C187.214 44.2953 188.049 43.6953 189.469 41.6303C189.469 41.6303 187.504 44.3903 187.924 44.5453C188.112 44.6081 188.313 44.6185 188.506 44.5753C188.699 44.5321 188.877 44.437 189.019 44.3003" stroke="#263238" stroke-width="0.5" stroke-linecap="round" stroke-linejoin="round"/>
<path d="M183.219 39.3652L186.689 40.6302" stroke="#263238" stroke-width="0.5" stroke-linecap="round" stroke-linejoin="round"/>
<path d="M59.6796 184.22L38.1396 179.51L41.0797 166.07L62.6896 170.8L59.6796 184.22Z" stroke="#263238" stroke-width="0.5" stroke-linecap="round" stroke-linejoin="round"/>
<path d="M45.9595 169.435L58.5495 172.19" stroke="#263238" stroke-width="0.5" stroke-linecap="round" stroke-linejoin="round"/>
<path d="M43.9246 170.255L58.2846 173.4" stroke="#263238" stroke-width="0.5" stroke-linecap="round" stroke-linejoin="round"/>
<path d="M43.6597 171.465L58.0197 174.605" stroke="#263238" stroke-width="0.5" stroke-linecap="round" stroke-linejoin="round"/>
<path d="M43.3948 172.675L57.7548 175.815" stroke="#263238" stroke-width="0.5" stroke-linecap="round" stroke-linejoin="round"/>
<path d="M43.1299 173.88L57.4899 177.02" stroke="#263238" stroke-width="0.5" stroke-linecap="round" stroke-linejoin="round"/>
<path d="M42.8699 175.089L57.2299 178.229" stroke="#263238" stroke-width="0.5" stroke-linecap="round" stroke-linejoin="round"/>
<path d="M42.6045 176.295L56.9645 179.435" stroke="#263238" stroke-width="0.5" stroke-linecap="round" stroke-linejoin="round"/>
<path d="M42.3396 177.505L54.9296 180.26" stroke="#263238" stroke-width="0.5" stroke-linecap="round" stroke-linejoin="round"/>
<path d="M165.29 83.9848H84.71L74.655 33.9648H175.345L165.29 83.9848Z" fill="#263238"/>
<path d="M82.215 35.5898L67.375 136.505H182.625L167.785 35.5898" fill="#407BFF"/>
<mask id="mask0_1128_1430" style="mask-type:luminance" maskUnits="userSpaceOnUse" x="67" y="35" width="116" height="102">
<path d="M82.215 35.5898L67.375 136.505H182.625L167.785 35.5898" fill="white"/>
</mask>
<g mask="url(#mask0_1128_1430)">
<path opacity="0.3" d="M182.625 136.505H67.3755L73.5805 94.3052H176.42L182.625 136.505Z" fill="black" fill-opacity="0.7"/>
</g>
<path d="M82.215 35.5898L67.375 136.505H182.625L167.785 35.5898" stroke="#263238" stroke-width="0.5" stroke-linecap="round" stroke-linejoin="round"/>
<path d="M164.65 35.5898H85.3499L71.5999 136.505H178.4L164.65 35.5898Z" fill="#263238"/>
<path d="M156.815 43.2802H113.77L113.27 42.1802C113.136 41.8816 112.918 41.6283 112.643 41.4509C112.368 41.2734 112.048 41.1794 111.72 41.1802H101.96C101.695 41.1802 101.441 41.2855 101.253 41.4731C101.066 41.6606 100.96 41.915 100.96 42.1802V43.3002H93.1852C93.045 43.3004 92.9065 43.3318 92.7797 43.3919C92.653 43.4521 92.5412 43.5396 92.4522 43.6481C92.3633 43.7566 92.2995 43.8834 92.2655 44.0195C92.2314 44.1556 92.2279 44.2976 92.2552 44.4352L98.6152 76.0602H151.385L157.745 44.4352C157.776 44.2962 157.775 44.152 157.743 44.0134C157.71 43.8748 157.647 43.7453 157.558 43.6344C157.468 43.5235 157.355 43.4341 157.227 43.3728C157.098 43.3115 156.958 43.2798 156.815 43.2802Z" fill="#BFBFBF" stroke="#263238" stroke-width="0.5" stroke-linecap="round" stroke-linejoin="round"/>
<path d="M158.44 45.7054L157.89 48.4353L152.24 76.5303C152.159 76.9522 151.933 77.3327 151.602 77.6064C151.271 77.8801 150.855 78.03 150.425 78.0303H99.5749C99.1452 78.03 98.7291 77.8801 98.3979 77.6064C98.0667 77.3327 97.8412 76.9522 97.7599 76.5303L91.9999 47.7703L91.5849 45.7054C91.5578 45.569 91.5609 45.4283 91.5941 45.2933C91.6274 45.1583 91.6898 45.0322 91.7771 44.924C91.8643 44.8157 91.9743 44.7279 92.0992 44.6668C92.2241 44.6057 92.3609 44.5728 92.4999 44.5703H157.5C157.641 44.5691 157.781 44.5994 157.909 44.6589C158.037 44.7184 158.15 44.8057 158.24 44.9144C158.33 45.0231 158.394 45.1504 158.429 45.2873C158.464 45.4241 158.467 45.5669 158.44 45.7054Z" fill="white"/>
<mask id="mask1_1128_1430" style="mask-type:luminance" maskUnits="userSpaceOnUse" x="91" y="44" width="68" height="35">
<path d="M158.44 45.7054L157.89 48.4353L152.24 76.5303C152.159 76.9522 151.933 77.3327 151.602 77.6064C151.271 77.8801 150.855 78.03 150.425 78.0303H99.5749C99.1452 78.03 98.7291 77.8801 98.3979 77.6064C98.0667 77.3327 97.8412 76.9522 97.7599 76.5303L91.9999 47.7703L91.5849 45.7054C91.5578 45.569 91.5609 45.4283 91.5941 45.2933C91.6274 45.1583 91.6898 45.0322 91.7771 44.924C91.8643 44.8157 91.9743 44.7279 92.0992 44.6668C92.2241 44.6057 92.3609 44.5728 92.4999 44.5703H157.5C157.641 44.5691 157.781 44.5994 157.909 44.6589C158.037 44.7184 158.15 44.8057 158.24 44.9144C158.33 45.0231 158.394 45.1504 158.429 45.2873C158.464 45.4241 158.467 45.5669 158.44 45.7054Z" fill="white"/>
</mask>
<g mask="url(#mask1_1128_1430)">
<path opacity="0.4" d="M157.89 48.435L152.24 76.53C152.158 76.9519 151.933 77.3323 151.601 77.606C151.27 77.8797 150.854 78.0296 150.425 78.03H99.5745C99.1449 78.0296 98.7287 77.8797 98.3976 77.606C98.0664 77.3323 97.8408 76.9519 97.7595 76.53L91.9995 47.77L157.89 48.435Z" fill="#407BFF"/>
</g>
<path d="M158.44 45.7054L157.89 48.4353L152.24 76.5303C152.159 76.9522 151.933 77.3327 151.602 77.6064C151.271 77.8801 150.855 78.03 150.425 78.0303H99.5749C99.1452 78.03 98.7291 77.8801 98.3979 77.6064C98.0667 77.3327 97.8412 76.9522 97.7599 76.5303L91.9999 47.7703L91.5849 45.7054C91.5578 45.569 91.5609 45.4283 91.5941 45.2933C91.6274 45.1583 91.6898 45.0322 91.7771 44.924C91.8643 44.8157 91.9743 44.7279 92.0992 44.6668C92.2241 44.6057 92.3609 44.5728 92.4999 44.5703H157.5C157.641 44.5691 157.781 44.5994 157.909 44.6589C158.037 44.7184 158.15 44.8057 158.24 44.9144C158.33 45.0231 158.394 45.1504 158.429 45.2873C158.464 45.4241 158.467 45.5669 158.44 45.7054Z" stroke="#263238" stroke-width="0.5" stroke-linecap="round" stroke-linejoin="round"/>
<path d="M157.58 50.5652H113.5L113 49.4702C112.859 49.1697 112.634 48.9158 112.354 48.7386C112.073 48.5614 111.747 48.4683 111.415 48.4702H101.415C101.15 48.4702 100.895 48.5756 100.708 48.7631C100.52 48.9507 100.415 49.205 100.415 49.4702V50.5902H92.4149C92.2732 50.5884 92.1329 50.6182 92.0041 50.6773C91.8754 50.7365 91.7614 50.8235 91.6704 50.9322C91.5795 51.0409 91.5139 51.1684 91.4783 51.3056C91.4428 51.4427 91.4382 51.5861 91.4649 51.7252L97.9649 83.2552H152L158.5 51.7252C158.53 51.5868 158.53 51.4433 158.498 51.3052C158.466 51.1671 158.403 51.0378 158.315 50.9267C158.227 50.8157 158.116 50.7256 157.988 50.6631C157.861 50.6005 157.722 50.5671 157.58 50.5652Z" fill="#BFBFBF" stroke="#263238" stroke-width="0.5" stroke-linecap="round" stroke-linejoin="round"/>
<path d="M159.24 53.075L158.69 55.745L152.895 83.81C152.806 84.2365 152.572 84.6189 152.233 84.8924C151.894 85.1658 151.471 85.3134 151.035 85.31H98.965C98.5294 85.3134 98.1061 85.1658 97.767 84.8924C97.4279 84.6189 97.194 84.2365 97.1051 83.81L91.2901 55.65L90.7601 53.075C90.7333 52.9359 90.7379 52.7925 90.7735 52.6553C90.809 52.5182 90.8746 52.3906 90.9656 52.282C91.0565 52.1733 91.1705 52.0863 91.2993 52.0271C91.4281 51.968 91.5684 51.9382 91.71 51.94H158.29C158.432 51.9382 158.572 51.968 158.701 52.0271C158.83 52.0863 158.944 52.1733 159.035 52.282C159.125 52.3906 159.191 52.5182 159.227 52.6553C159.262 52.7925 159.267 52.9359 159.24 53.075Z" fill="white"/>
<mask id="mask2_1128_1430" style="mask-type:luminance" maskUnits="userSpaceOnUse" x="90" y="51" width="70" height="35">
<path d="M159.24 53.075L158.69 55.745L152.895 83.81C152.806 84.2365 152.572 84.6189 152.233 84.8924C151.894 85.1658 151.471 85.3134 151.035 85.31H98.965C98.5294 85.3134 98.1061 85.1658 97.767 84.8924C97.4279 84.6189 97.194 84.2365 97.1051 83.81L91.2901 55.65L90.7601 53.075C90.7333 52.9359 90.7379 52.7925 90.7735 52.6553C90.809 52.5182 90.8746 52.3906 90.9656 52.282C91.0565 52.1733 91.1705 52.0863 91.2993 52.0271C91.4281 51.968 91.5684 51.9382 91.71 51.94H158.29C158.432 51.9382 158.572 51.968 158.701 52.0271C158.83 52.0863 158.944 52.1733 159.035 52.282C159.125 52.3906 159.191 52.5182 159.227 52.6553C159.262 52.7925 159.267 52.9359 159.24 53.075Z" fill="white"/>
</mask>
<g mask="url(#mask2_1128_1430)">
<path opacity="0.4" d="M158.69 55.7454L152.895 83.8104C152.806 84.2368 152.572 84.6193 152.233 84.8928C151.894 85.1662 151.47 85.3138 151.035 85.3104H98.9648C98.5292 85.3138 98.1058 85.1662 97.7668 84.8928C97.4277 84.6193 97.1938 84.2368 97.1048 83.8104L91.2898 55.6504L158.69 55.7454Z" fill="#407BFF"/>
</g>
<path d="M159.24 53.075L158.69 55.745L152.895 83.81C152.806 84.2365 152.572 84.6189 152.233 84.8924C151.894 85.1658 151.471 85.3134 151.035 85.31H98.965C98.5294 85.3134 98.1061 85.1658 97.767 84.8924C97.4279 84.6189 97.194 84.2365 97.1051 83.81L91.2901 55.65L90.7601 53.075C90.7333 52.9359 90.7379 52.7925 90.7735 52.6553C90.809 52.5182 90.8746 52.3906 90.9656 52.282C91.0565 52.1733 91.1705 52.0863 91.2993 52.0271C91.4281 51.968 91.5684 51.9382 91.71 51.94H158.29C158.432 51.9382 158.572 51.968 158.701 52.0271C158.83 52.0863 158.944 52.1733 159.035 52.282C159.125 52.3906 159.191 52.5182 159.227 52.6553C159.262 52.7925 159.267 52.9359 159.24 53.075Z" stroke="#263238" stroke-width="0.5" stroke-linecap="round" stroke-linejoin="round"/>
<path d="M158.34 57.8498H113.235L112.735 56.7548C112.588 56.4515 112.357 56.1964 112.07 56.0193C111.783 55.8422 111.452 55.7505 111.115 55.7548H100.855C100.721 55.7508 100.588 55.7737 100.463 55.8222C100.338 55.8706 100.224 55.9437 100.128 56.0369C100.032 56.1302 99.9559 56.2418 99.9038 56.3651C99.8517 56.4884 99.8249 56.621 99.8249 56.7548V57.8698H91.6599C91.517 57.8653 91.3748 57.8928 91.2438 57.9503C91.1128 58.0079 90.9963 58.0939 90.9028 58.2022C90.8094 58.3105 90.7413 58.4384 90.7036 58.5764C90.6659 58.7144 90.6595 58.8591 90.6849 58.9998L97.3499 90.4348H152.65L159.315 58.9998C159.344 58.8576 159.34 58.7107 159.304 58.5702C159.268 58.4296 159.2 58.2991 159.106 58.1884C159.012 58.0777 158.895 57.9898 158.762 57.9311C158.629 57.8725 158.485 57.8447 158.34 57.8498Z" fill="#BFBFBF" stroke="#263238" stroke-width="0.5" stroke-linecap="round" stroke-linejoin="round"/>
<path d="M159.07 59.3156H90.9299C90.7876 59.3111 90.646 59.3384 90.5156 59.3957C90.3852 59.4529 90.2693 59.5386 90.1763 59.6465C90.0833 59.7544 90.0156 59.8816 89.9782 60.019C89.9407 60.1564 89.9345 60.3005 89.9599 60.4406L96.4599 91.0856C96.5554 91.5162 96.7967 91.9006 97.1428 92.1739C97.489 92.4472 97.9189 92.5926 98.3599 92.5856H151.645C152.086 92.5926 152.516 92.4472 152.862 92.1739C153.208 91.9006 153.449 91.5162 153.545 91.0856L160.045 60.4406C160.07 60.3 160.064 60.1556 160.026 60.0178C159.989 59.88 159.921 59.7524 159.827 59.6445C159.733 59.5365 159.617 59.4509 159.486 59.394C159.355 59.3371 159.213 59.3103 159.07 59.3156Z" fill="white" stroke="#263238" stroke-width="0.5" stroke-linecap="round" stroke-linejoin="round"/>
<path d="M159.105 63.6355H112.965L112.44 62.5455C112.285 62.2405 112.048 61.9851 111.755 61.8083C111.463 61.6315 111.127 61.5404 110.785 61.5455H100.285C100.149 61.538 100.013 61.5583 99.8851 61.6052C99.7573 61.6521 99.6405 61.7246 99.5417 61.8182C99.443 61.9118 99.3643 62.0246 99.3107 62.1496C99.257 62.2747 99.2295 62.4094 99.2297 62.5455V63.6605H90.8947C90.7504 63.6532 90.6063 63.6784 90.4731 63.7343C90.3398 63.7901 90.2208 63.8752 90.1249 63.9831C90.0289 64.0911 89.9584 64.2193 89.9185 64.3581C89.8787 64.497 89.8705 64.643 89.8947 64.7855L96.7097 96.1305H153.285L160.1 64.7855C160.128 64.6416 160.123 64.4933 160.085 64.3516C160.048 64.2099 159.978 64.0787 159.883 63.9679C159.787 63.857 159.667 63.7695 159.532 63.7119C159.397 63.6543 159.251 63.6281 159.105 63.6355Z" fill="#BFBFBF" stroke="#263238" stroke-width="0.5" stroke-linecap="round" stroke-linejoin="round"/>
<path d="M159.85 65.1853H90.15C90.0058 65.178 89.8617 65.2033 89.7284 65.2591C89.5952 65.315 89.4762 65.4 89.3802 65.508C89.2842 65.616 89.2137 65.7441 89.1739 65.883C89.1341 66.0218 89.1259 66.1679 89.15 66.3103L95.795 96.8653C95.9039 97.2949 96.1559 97.6745 96.5095 97.9417C96.863 98.209 97.297 98.3478 97.74 98.3353H152.24C152.683 98.3478 153.117 98.209 153.471 97.9417C153.824 97.6745 154.076 97.2949 154.185 96.8653L160.83 66.3103C160.854 66.1696 160.846 66.0254 160.807 65.888C160.769 65.7507 160.7 65.6236 160.606 65.516C160.512 65.4084 160.396 65.323 160.265 65.2658C160.134 65.2086 159.993 65.1811 159.85 65.1853Z" fill="white" stroke="#263238" stroke-width="0.5" stroke-linecap="round" stroke-linejoin="round"/>
<path d="M159.865 69.4204H112.695L112.16 68.3304C111.998 68.023 111.753 67.7667 111.454 67.5901C111.155 67.4136 110.812 67.3236 110.465 67.3304H99.7499C99.4788 67.3168 99.2134 67.4113 99.0118 67.5931C98.8103 67.775 98.6891 68.0293 98.6749 68.3004V69.4104H90.1349C89.9929 69.4094 89.8522 69.4386 89.7223 69.4962C89.5925 69.5538 89.4764 69.6384 89.3817 69.7443C89.2871 69.8503 89.2162 69.9752 89.1736 70.1108C89.1311 70.2463 89.1179 70.3894 89.1349 70.5304L96.1049 101.78H153.915L160.885 70.5304C160.901 70.3884 160.886 70.2447 160.841 70.109C160.797 69.9732 160.724 69.8486 160.627 69.7434C160.531 69.6383 160.413 69.555 160.281 69.4993C160.15 69.4436 160.008 69.4167 159.865 69.4204Z" fill="#BFBFBF" stroke="#263238" stroke-width="0.5" stroke-linecap="round" stroke-linejoin="round"/>
<path d="M160.624 71.0601H89.3744C89.2308 71.0539 89.0877 71.0797 88.9553 71.1356C88.823 71.1915 88.7047 71.276 88.609 71.3832C88.5133 71.4904 88.4426 71.6175 88.402 71.7553C88.3615 71.8931 88.352 72.0382 88.3744 72.1801L90.0444 79.6801L95.1644 102.645C95.2835 103.08 95.5457 103.461 95.9087 103.728C96.2717 103.995 96.7142 104.131 97.1644 104.115H152.864C153.315 104.131 153.757 103.995 154.12 103.728C154.483 103.461 154.745 103.08 154.864 102.645L157.364 91.3801L161.644 72.1851C161.668 72.0411 161.659 71.8936 161.617 71.7536C161.576 71.6136 161.504 71.4847 161.406 71.3766C161.308 71.2684 161.187 71.1838 161.051 71.129C160.916 71.0742 160.77 71.0507 160.624 71.0601Z" fill="white"/>
<mask id="mask3_1128_1430" style="mask-type:luminance" maskUnits="userSpaceOnUse" x="88" y="71" width="74" height="34">
<path d="M160.624 71.0601H89.3744C89.2308 71.0539 89.0877 71.0797 88.9553 71.1356C88.823 71.1915 88.7047 71.276 88.609 71.3832C88.5133 71.4904 88.4426 71.6175 88.402 71.7553C88.3615 71.8931 88.352 72.0382 88.3744 72.1801L90.0444 79.6801L95.1644 102.645C95.2835 103.08 95.5457 103.461 95.9087 103.728C96.2717 103.995 96.7142 104.131 97.1644 104.115H152.864C153.315 104.131 153.757 103.995 154.12 103.728C154.483 103.461 154.745 103.08 154.864 102.645L157.364 91.3801L161.644 72.1851C161.668 72.0411 161.659 71.8936 161.617 71.7536C161.576 71.6136 161.504 71.4847 161.406 71.3766C161.308 71.2684 161.187 71.1838 161.051 71.129C160.916 71.0742 160.77 71.0507 160.624 71.0601Z" fill="white"/>
</mask>
<g mask="url(#mask3_1128_1430)">
<path opacity="0.4" d="M90.0251 79.6753L95.1451 102.64C95.2642 103.075 95.5265 103.456 95.8895 103.723C96.2525 103.99 96.6949 104.126 97.1451 104.11H152.865C153.315 104.126 153.758 103.99 154.121 103.723C154.484 103.456 154.746 103.075 154.865 102.64L157.365 91.3753L90.0251 79.6753Z" fill="#407BFF"/>
</g>
<path d="M160.624 71.0601H89.3744C89.2308 71.0539 89.0877 71.0797 88.9553 71.1356C88.823 71.1915 88.7047 71.276 88.609 71.3832C88.5133 71.4904 88.4426 71.6175 88.402 71.7553C88.3615 71.8931 88.352 72.0382 88.3744 72.1801L90.0444 79.6801L95.1644 102.645C95.2835 103.08 95.5457 103.461 95.9087 103.728C96.2717 103.995 96.7142 104.131 97.1644 104.115H152.864C153.315 104.131 153.757 103.995 154.12 103.728C154.483 103.461 154.745 103.08 154.864 102.645L157.364 91.3801L161.644 72.1851C161.668 72.0411 161.659 71.8936 161.617 71.7536C161.576 71.6136 161.504 71.4847 161.406 71.3766C161.308 71.2684 161.187 71.1838 161.051 71.129C160.916 71.0742 160.77 71.0507 160.624 71.0601Z" stroke="#263238" stroke-width="0.5" stroke-linecap="round" stroke-linejoin="round"/>
<path d="M110.885 105.195L110.255 104.145C110.049 103.842 109.765 103.599 109.434 103.441C109.103 103.283 108.736 103.215 108.37 103.245L96.7301 103.78C96.4497 103.769 96.1758 103.867 95.966 104.054C95.7562 104.24 95.6269 104.5 95.6051 104.78L95.6551 105.88L86.3751 106.305C85.6651 106.335 85.1551 106.895 85.3251 107.46L94.3251 137.96L157.145 135.07L163.3 103.885C163.41 103.305 162.855 102.795 162.14 102.83L110.885 105.195Z" fill="#BFBFBF" stroke="#263238" stroke-width="0.5" stroke-linecap="round" stroke-linejoin="round"/>
<path d="M164.2 105.835L163.5 109.425L158.215 136.24C158.084 136.693 157.808 137.09 157.43 137.37C157.051 137.65 156.591 137.798 156.12 137.79L95.5849 140.57C95.1165 140.621 94.6443 140.517 94.2413 140.273C93.8382 140.029 93.5267 139.659 93.3549 139.22L84.9999 110.87L84.5949 109.495C84.4299 108.93 84.9399 108.37 85.6499 108.34L163.055 104.78C163.76 104.75 164.315 105.26 164.2 105.835Z" fill="white"/>
<mask id="mask4_1128_1430" style="mask-type:luminance" maskUnits="userSpaceOnUse" x="84" y="104" width="81" height="37">
<path d="M164.2 105.835L163.5 109.425L158.215 136.24C158.084 136.693 157.808 137.09 157.43 137.37C157.051 137.65 156.591 137.798 156.12 137.79L95.5849 140.57C95.1165 140.621 94.6443 140.517 94.2413 140.273C93.8382 140.029 93.5267 139.659 93.3549 139.22L84.9999 110.87L84.5949 109.495C84.4299 108.93 84.9399 108.37 85.6499 108.34L163.055 104.78C163.76 104.75 164.315 105.26 164.2 105.835Z" fill="white"/>
</mask>
<g mask="url(#mask4_1128_1430)">
<path opacity="0.4" d="M163.5 109.425L158.215 136.24C158.084 136.693 157.809 137.09 157.43 137.37C157.051 137.65 156.591 137.798 156.12 137.79L95.585 140.57C95.1166 140.621 94.6444 140.517 94.2414 140.273C93.8383 140.029 93.5268 139.659 93.355 139.22L85 110.87L163.5 109.425Z" fill="#407BFF"/>
</g>
<path d="M164.2 105.835L163.5 109.425L158.215 136.24C158.084 136.693 157.808 137.09 157.43 137.37C157.051 137.65 156.591 137.798 156.12 137.79L95.5849 140.57C95.1165 140.621 94.6443 140.517 94.2413 140.273C93.8382 140.029 93.5267 139.659 93.3549 139.22L84.9999 110.87L84.5949 109.495C84.4299 108.93 84.9399 108.37 85.6499 108.34L163.055 104.78C163.76 104.75 164.315 105.26 164.2 105.835Z" stroke="#263238" stroke-width="0.5" stroke-linecap="round" stroke-linejoin="round"/>
<path d="M112.221 112.155L111.685 111.055C111.501 110.731 111.235 110.461 110.914 110.271C110.593 110.082 110.228 109.98 109.856 109.975L98.0005 109.355C97.7165 109.311 97.4268 109.381 97.1932 109.548C96.9596 109.715 96.8007 109.967 96.7505 110.25L96.6955 111.345L87.2355 110.845C86.5105 110.805 85.9405 111.31 86.0505 111.885L92.1655 143.03L156.23 146.38L165.555 116.045C165.725 115.48 165.21 114.92 164.485 114.885L112.221 112.155Z" fill="#BFBFBF" stroke="#263238" stroke-width="0.5" stroke-linecap="round" stroke-linejoin="round"/>
<path d="M166.28 118.16L164.78 123.1L157.21 147.73C157.028 148.17 156.706 148.539 156.294 148.779C155.882 149.019 155.403 149.118 154.93 149.06L93.1949 145.835C92.7185 145.842 92.2528 145.693 91.8684 145.412C91.484 145.13 91.2019 144.731 91.0649 144.275L85.8399 117.64L85.1099 113.915C84.9949 113.34 85.5699 112.835 86.2949 112.875L165.21 117C165.935 117.04 166.455 117.6 166.28 118.16Z" fill="white"/>
<mask id="mask5_1128_1430" style="mask-type:luminance" maskUnits="userSpaceOnUse" x="85" y="112" width="82" height="38">
<path d="M166.28 118.16L164.78 123.1L157.21 147.73C157.028 148.17 156.706 148.539 156.294 148.779C155.882 149.019 155.403 149.118 154.93 149.06L93.1949 145.835C92.7185 145.842 92.2528 145.693 91.8684 145.412C91.484 145.13 91.2019 144.731 91.0649 144.275L85.8399 117.64L85.1099 113.915C84.9949 113.34 85.5699 112.835 86.2949 112.875L165.21 117C165.935 117.04 166.455 117.6 166.28 118.16Z" fill="white"/>
</mask>
<g mask="url(#mask5_1128_1430)">
<path opacity="0.4" d="M164.76 123.1L157.19 147.73C157.007 148.171 156.686 148.539 156.274 148.779C155.862 149.02 155.383 149.118 154.91 149.06L93.1746 145.835C92.6982 145.842 92.2325 145.694 91.8481 145.412C91.4637 145.131 91.1816 144.731 91.0446 144.275L85.8196 117.64L164.76 123.1Z" fill="#407BFF"/>
</g>
<path d="M166.28 118.16L164.78 123.1L157.21 147.73C157.028 148.17 156.706 148.539 156.294 148.779C155.882 149.019 155.403 149.118 154.93 149.06L93.1949 145.835C92.7185 145.842 92.2528 145.693 91.8684 145.412C91.484 145.13 91.2019 144.731 91.0649 144.275L85.8399 117.64L85.1099 113.915C84.9949 113.34 85.5699 112.835 86.2949 112.875L165.21 117C165.935 117.04 166.455 117.6 166.28 118.16Z" stroke="#263238" stroke-width="0.5" stroke-linecap="round" stroke-linejoin="round"/>
<path d="M111.08 120.13L110.5 119.06C110.294 118.741 110.01 118.482 109.674 118.307C109.339 118.131 108.963 118.046 108.585 118.06H96.4396C96.1519 118.028 95.8633 118.111 95.6354 118.289C95.4075 118.468 95.2583 118.728 95.2196 119.015V120.105H85.5596C84.8196 120.105 84.2646 120.635 84.4096 121.205L92.2896 151.89H157.71L165.59 121.205C165.735 120.635 165.18 120.105 164.44 120.105L111.08 120.13Z" fill="#BFBFBF" stroke="#263238" stroke-width="0.5" stroke-linecap="round" stroke-linejoin="round"/>
<path d="M156.5 154.745H93.5C92.41 154.745 91.465 154.14 91.25 153.305L83.55 123.39C83.4 122.82 83.955 122.29 84.7 122.29H165.3C166.045 122.29 166.6 122.82 166.45 123.39L158.77 153.305C158.555 154.14 157.61 154.745 156.5 154.745Z" fill="white" stroke="#263238" stroke-width="0.5" stroke-linecap="round" stroke-linejoin="round"/>
<path d="M110.81 127.415L110.195 126.35C109.979 126.035 109.686 125.78 109.344 125.609C109.002 125.438 108.622 125.358 108.24 125.375H95.8896C95.5986 125.341 95.3056 125.422 95.0731 125.6C94.8406 125.778 94.6868 126.04 94.6446 126.33V127.415H84.7996C84.0396 127.415 83.4746 127.945 83.6246 128.515L91.6596 159.105H158.34L166.375 128.5C166.525 127.93 165.96 127.4 165.2 127.4L110.81 127.415Z" fill="#BFBFBF" stroke="#263238" stroke-width="0.5" stroke-linecap="round" stroke-linejoin="round"/>
<path d="M157.13 162H92.87C91.76 162 90.8 161.395 90.58 160.56L82.745 130.74C82.6 130.17 83.165 129.64 83.92 129.64H166.08C166.835 129.64 167.4 130.17 167.255 130.74L159.42 160.56C159.2 161.415 158.24 162 157.13 162Z" fill="white" stroke="#263238" stroke-width="0.5" stroke-linecap="round" stroke-linejoin="round"/>
<path d="M170.185 196.485H79.8149L60.0349 140.39H189.965L170.185 196.485Z" fill="#407BFF"/>
<mask id="mask6_1128_1430" style="mask-type:luminance" maskUnits="userSpaceOnUse" x="60" y="140" width="130" height="57">
<path d="M170.185 196.485H79.8149L60.0349 140.39H189.965L170.185 196.485Z" fill="white"/>
</mask>
<g mask="url(#mask6_1128_1430)">
<path opacity="0.3" d="M170.185 196.485H79.8149L60.0349 140.39H189.965L170.185 196.485Z" fill="black" fill-opacity="0.7"/>
</g>
<path d="M170.185 196.485H79.8149L60.0349 140.39H189.965L170.185 196.485Z" stroke="#263238" stroke-width="0.5" stroke-linecap="round" stroke-linejoin="round"/>
<path d="M188.245 133.005H61.7549L60.0349 140.39H189.965L188.245 133.005Z" fill="#407BFF" stroke="#263238" stroke-width="0.5" stroke-linecap="round" stroke-linejoin="round"/>
<path d="M93.6349 166.09L92.3699 178.065H157.63L156.365 166.09H153.485L154.305 174.635H95.6949L96.5149 166.09H93.6349Z" fill="#BFBFBF" stroke="#263238" stroke-width="0.5" stroke-linecap="round" stroke-linejoin="round"/>
<path d="M157.14 180.815H92.8599L92.3699 178.065H157.63L157.14 180.815Z" fill="#757575" stroke="#263238" stroke-width="0.5" stroke-linecap="round" stroke-linejoin="round"/>
<path d="M153.485 166.09L153.085 169.265L153.485 174.635H154.305L153.485 166.09Z" fill="#757575" stroke="#263238" stroke-width="0.5" stroke-linecap="round" stroke-linejoin="round"/>
<path d="M96.5151 166.09L96.9201 169.265L96.5151 174.635H95.6951L96.5151 166.09Z" fill="#757575" stroke="#263238" stroke-width="0.5" stroke-linecap="round" stroke-linejoin="round"/>
<path d="M146.03 160.08H103.97L101.965 149.92H148.035L146.03 160.08Z" fill="white" stroke="#263238" stroke-width="0.5" stroke-linecap="round" stroke-linejoin="round"/>
<path d="M127.815 61.7652L127.405 60.5902C127.272 60.2555 127.05 59.9638 126.763 59.7469C126.475 59.53 126.134 59.3962 125.775 59.3602L114.655 57.9252C114.379 57.8723 114.093 57.931 113.859 58.0884C113.626 58.2458 113.465 58.4891 113.41 58.7652L113.265 59.8902L104.405 58.7502C104.258 58.7193 104.105 58.7221 103.959 58.7583C103.813 58.7945 103.677 58.8633 103.561 58.9594C103.445 59.0555 103.353 59.1766 103.29 59.3135C103.228 59.4504 103.197 59.5997 103.2 59.7502L106.355 92.3202L166.355 100.055L177.665 69.3502C177.706 69.2058 177.714 69.0541 177.688 68.9063C177.662 68.7585 177.603 68.6184 177.516 68.4964C177.428 68.3744 177.314 68.2737 177.183 68.2016C177.051 68.1296 176.905 68.0881 176.755 68.0802L127.815 61.7652Z" fill="white"/>
<mask id="mask7_1128_1430" style="mask-type:luminance" maskUnits="userSpaceOnUse" x="103" y="57" width="75" height="44">
<path d="M127.815 61.7652L127.405 60.5902C127.272 60.2555 127.05 59.9638 126.763 59.7469C126.475 59.53 126.134 59.3962 125.775 59.3602L114.655 57.9252C114.379 57.8723 114.093 57.931 113.859 58.0884C113.626 58.2458 113.465 58.4891 113.41 58.7652L113.265 59.8902L104.405 58.7502C104.258 58.7193 104.105 58.7221 103.959 58.7583C103.813 58.7945 103.677 58.8633 103.561 58.9594C103.445 59.0555 103.353 59.1766 103.29 59.3135C103.228 59.4504 103.197 59.5997 103.2 59.7502L106.355 92.3202L166.355 100.055L177.665 69.3502C177.706 69.2058 177.714 69.0541 177.688 68.9063C177.662 68.7585 177.603 68.6184 177.516 68.4964C177.428 68.3744 177.314 68.2737 177.183 68.2016C177.051 68.1296 176.905 68.0881 176.755 68.0802L127.815 61.7652Z" fill="white"/>
</mask>
<g mask="url(#mask7_1128_1430)">
<path opacity="0.4" d="M127.815 61.7652L127.405 60.5902C127.272 60.2555 127.05 59.9638 126.763 59.7469C126.475 59.53 126.134 59.3962 125.775 59.3602L114.655 57.9252C114.379 57.8723 114.093 57.931 113.859 58.0884C113.626 58.2458 113.465 58.4891 113.41 58.7652L113.265 59.8902L104.405 58.7502C104.258 58.7193 104.105 58.7221 103.959 58.7583C103.813 58.7945 103.677 58.8633 103.561 58.9594C103.445 59.0555 103.353 59.1766 103.29 59.3135C103.228 59.4504 103.197 59.5997 103.2 59.7502L106.355 92.3202L166.355 100.055L177.665 69.3502C177.706 69.2058 177.714 69.0541 177.688 68.9063C177.662 68.7585 177.603 68.6184 177.516 68.4964C177.428 68.3744 177.314 68.2737 177.183 68.2016C177.051 68.1296 176.905 68.0881 176.755 68.0802L127.815 61.7652Z" fill="#407BFF"/>
</g>
<path d="M127.815 61.7652L127.405 60.5902C127.272 60.2555 127.05 59.9638 126.763 59.7469C126.475 59.53 126.134 59.3962 125.775 59.3602L114.655 57.9252C114.379 57.8723 114.093 57.931 113.859 58.0884C113.626 58.2458 113.465 58.4891 113.41 58.7652L113.265 59.8902L104.405 58.7502C104.258 58.7193 104.105 58.7221 103.959 58.7583C103.813 58.7945 103.677 58.8633 103.561 58.9594C103.445 59.0555 103.353 59.1766 103.29 59.3135C103.228 59.4504 103.197 59.5997 103.2 59.7502L106.355 92.3202L166.355 100.055L177.665 69.3502C177.706 69.2058 177.714 69.0541 177.688 68.9063C177.662 68.7585 177.603 68.6184 177.516 68.4964C177.428 68.3744 177.314 68.2737 177.183 68.2016C177.051 68.1296 176.905 68.0881 176.755 68.0802L127.815 61.7652Z" stroke="#263238" stroke-width="0.5" stroke-linecap="round" stroke-linejoin="round"/>
<path d="M178.24 71.1948L168 98.9998L167.21 101.14C167.025 101.566 166.703 101.919 166.294 102.14C165.885 102.361 165.413 102.438 164.955 102.36L107.13 94.8998C106.667 94.8592 106.231 94.6641 105.892 94.3458C105.553 94.0275 105.33 93.6046 105.26 93.1448L102.185 61.3948C102.182 61.2443 102.213 61.095 102.275 60.9581C102.338 60.8212 102.431 60.7001 102.546 60.604C102.662 60.5079 102.798 60.4391 102.944 60.4029C103.091 60.3667 103.243 60.3639 103.39 60.3948L152.6 66.7398L177.33 69.9248C177.48 69.9327 177.626 69.9742 177.758 70.0462C177.89 70.1183 178.003 70.219 178.091 70.341C178.178 70.463 178.237 70.6031 178.263 70.7509C178.289 70.8987 178.281 71.0504 178.24 71.1948Z" fill="white"/>
<mask id="mask8_1128_1430" style="mask-type:luminance" maskUnits="userSpaceOnUse" x="102" y="60" width="77" height="43">
<path d="M178.24 71.1948L168 98.9998L167.21 101.14C167.025 101.566 166.703 101.919 166.294 102.14C165.885 102.361 165.413 102.438 164.955 102.36L107.13 94.8998C106.667 94.8592 106.231 94.6641 105.892 94.3458C105.553 94.0275 105.33 93.6046 105.26 93.1448L102.185 61.3948C102.182 61.2443 102.213 61.095 102.275 60.9581C102.338 60.8212 102.431 60.7001 102.546 60.604C102.662 60.5079 102.798 60.4391 102.944 60.4029C103.091 60.3667 103.243 60.3639 103.39 60.3948L152.6 66.7398L177.33 69.9248C177.48 69.9327 177.626 69.9742 177.758 70.0462C177.89 70.1183 178.003 70.219 178.091 70.341C178.178 70.463 178.237 70.6031 178.263 70.7509C178.289 70.8987 178.281 71.0504 178.24 71.1948Z" fill="white"/>
</mask>
<g mask="url(#mask8_1128_1430)">
<path opacity="0.3" d="M178.24 71.1945L168 98.9995C160.745 97.2845 160.47 92.7645 159.255 90.4245C157.915 87.8445 149.42 86.4745 147.045 86.0595C144.67 85.6445 143.225 83.2395 143.225 83.2395C141.085 77.2395 152.255 71.9895 152.255 71.9895C152.035 71.1645 152.36 68.4595 152.595 66.7495L177.325 69.9345C177.474 69.942 177.62 69.9828 177.751 70.054C177.882 70.1251 177.996 70.2248 178.084 70.3456C178.171 70.4665 178.231 70.6055 178.258 70.7524C178.285 70.8993 178.279 71.0503 178.24 71.1945Z" fill="black" fill-opacity="0.7"/>
</g>
<path d="M178.24 71.1948L168 98.9998L167.21 101.14C167.025 101.566 166.703 101.919 166.294 102.14C165.885 102.361 165.413 102.438 164.955 102.36L107.13 94.8998C106.667 94.8592 106.231 94.6641 105.892 94.3458C105.553 94.0275 105.33 93.6046 105.26 93.1448L102.185 61.3948C102.182 61.2443 102.213 61.095 102.275 60.9581C102.338 60.8212 102.431 60.7001 102.546 60.604C102.662 60.5079 102.798 60.4391 102.944 60.4029C103.091 60.3667 103.243 60.3639 103.39 60.3948L152.6 66.7398L177.33 69.9248C177.48 69.9327 177.626 69.9742 177.758 70.0462C177.89 70.1183 178.003 70.219 178.091 70.341C178.178 70.463 178.237 70.6031 178.263 70.7509C178.289 70.8987 178.281 71.0504 178.24 71.1948Z" stroke="#263238" stroke-width="0.5" stroke-linecap="round" stroke-linejoin="round"/>
<path d="M113.06 69.9502L113.85 89.6002L120.97 90.5202L121.81 70.9402L113.06 69.9502Z" fill="#407BFF" stroke="#263238" stroke-width="0.5" stroke-linecap="round" stroke-linejoin="round"/>
<path d="M117.405 88.1556C117.496 87.808 117.512 87.4453 117.452 87.0912C117.393 86.7371 117.259 86.3995 117.06 86.1006C116.656 85.5068 116.169 84.9732 115.615 84.5156C116.441 84.9893 117.355 85.292 118.3 85.4056C118.3 84.3806 117.3 83.6706 116.445 83.1306C116.641 83.0545 116.851 83.0232 117.06 83.0388C117.27 83.0543 117.473 83.1164 117.655 83.2206C117.668 83.0616 117.642 82.902 117.58 82.755C117.518 82.608 117.422 82.4779 117.3 82.3756C117.41 82.4706 117.58 82.3206 117.575 82.1806C117.548 82.0401 117.488 81.9081 117.4 81.7956C117.266 81.4927 117.213 81.1602 117.245 80.8306C117.245 79.6556 117.28 78.4756 117.295 77.3006C117.312 77.408 117.36 77.5083 117.433 77.5891C117.505 77.6699 117.6 77.7277 117.705 77.7556C117.705 77.2906 117.65 76.8256 117.605 76.3606C117.495 75.1856 117.385 74.0056 117.27 72.8306" stroke="white" stroke-width="0.5" stroke-linecap="round" stroke-linejoin="round"/>
<path d="M230.5 133.84C230.5 133.84 190.15 97.7399 187.58 95.4649C185.01 93.1898 183.13 93.2899 181.745 91.9049C180.36 90.5199 179.665 89.5349 174.03 89.6299C168.395 89.7249 160.875 86.6649 159.195 85.5749C157.515 84.4849 155.14 85.2799 153.555 84.6649C151.97 84.0499 147.92 84.5899 145.445 84.6649C142.97 84.7399 142.775 82.2149 143.765 79.3449C144.755 76.4749 152.265 74.6999 153.265 75.2899C154.265 75.8799 158.21 74.2049 158.21 74.2049C157.615 72.1249 157.815 67.0799 157.815 67.0799C157.815 67.0799 153.66 65.2999 152.08 64.7099C150.863 64.3427 149.587 64.2087 148.32 64.3149C148.32 64.3149 148.82 62.0449 149.605 61.1999C150.39 60.3549 154.155 59.5649 157.815 56.9949C161.475 54.4249 163.75 53.8299 164.315 54.0249C164.88 54.2199 168.965 55.4099 170.055 55.4099C171.145 55.4099 172.725 54.4099 174.305 54.7199C175.885 55.0299 178.755 57.4899 180.04 57.7849C181.325 58.0799 181.72 58.3499 183.405 58.3499C184.145 58.3499 187.165 60.5549 187.165 60.5549C188.43 60.7963 189.659 61.1944 190.825 61.7399C192.7 62.6299 194.68 66.8849 195.57 68.2699C196.46 69.6549 196.57 73.0149 196.57 73.0149C196.57 73.0149 198.945 74.2999 199.835 76.0799C200.725 77.8599 233.5 95.4649 233.5 95.4649C233.5 95.4649 238.665 115.71 230.5 133.84Z" fill="white"/>
<path opacity="0.4" d="M201.77 108.125C194.54 101.655 188.54 96.2949 187.6 95.4649C185.025 93.1898 183.15 93.2899 181.765 91.9049C180.38 90.5199 179.685 89.5349 174.05 89.6299C168.415 89.7249 160.895 86.6649 159.215 85.5749C157.535 84.4849 155.16 85.2799 153.575 84.6649C151.99 84.0499 147.94 84.5899 145.465 84.6649C142.99 84.7399 142.795 82.2149 143.785 79.3449C144.775 76.4749 152.285 74.6999 153.285 75.2899C154.285 75.8799 158.23 74.2049 158.23 74.2049C157.635 72.1249 157.835 67.0799 157.835 67.0799C157.835 67.0799 153.68 65.2999 152.1 64.7099C150.883 64.3427 149.607 64.2087 148.34 64.3149C148.34 64.3149 148.84 62.0449 149.625 61.1999C150.41 60.3549 154.175 59.5649 157.835 56.9949C161.495 54.4249 163.77 53.8299 164.335 54.0249C164.9 54.2199 168.985 55.4099 170.075 55.4099C170.9 55.4099 172.015 54.8399 173.2 54.6949C172.24 55.2299 171.575 56.2499 171.755 56.7949C172.04 57.6549 172.845 59.8449 172.89 59.9849C172.675 59.7749 167.49 54.6549 164.14 54.9199C161.245 55.1449 158.305 60.0199 158.8 63.5999C159.295 67.1799 158.095 67.1799 158.745 69.8499C159.395 72.5199 159.985 76.2799 158.995 77.7649C158.005 79.2499 156.03 76.6099 156.03 76.6099C155.288 77.0168 154.667 77.6118 154.228 78.335C153.789 79.0582 153.548 79.8841 153.53 80.7299C153.53 83.5999 156.53 83.7949 158.3 84.0949C160.07 84.3949 166.6 87.9699 171.06 88.1599L175.52 88.3449C175.52 88.3449 172.945 84.8449 174.02 84.6649C175.095 84.4849 178.37 84.8049 180.52 88.1649C182.67 91.5249 184.32 92.2699 188.305 93.9199C190.66 94.8649 196.87 101.57 201.77 108.125Z" fill="#407BFF"/>
<path opacity="0.4" d="M221.53 88.9498C220.925 88.6648 201.53 79.5248 200.555 78.1598C199.58 76.7948 198.38 76.4598 197.29 75.0848C196.2 73.7098 192.545 72.8198 192.05 70.9398C191.555 69.0598 190.96 63.3548 190.05 62.6498C189.302 62.1009 188.509 61.6159 187.68 61.1998L189.15 64.8648C189.15 64.8648 185.8 60.1198 185.005 59.9898C184.21 59.8598 185.865 63.4398 185.72 63.3298C185.575 63.2198 181.945 59.8298 178.905 57.2598C179.265 57.4775 179.654 57.6456 180.06 57.7598C181.35 58.0548 181.74 58.3248 183.425 58.3248C184.165 58.3248 187.185 60.5298 187.185 60.5298C188.449 60.7712 189.678 61.1693 190.845 61.7148C192.72 62.6048 194.7 66.8598 195.59 68.2448C196.48 69.6298 196.59 72.9898 196.59 72.9898C196.59 72.9898 198.965 74.2748 199.855 76.0548C200.39 77.1348 212.085 83.7398 221.53 88.9498Z" fill="#407BFF"/>
<path d="M230.5 133.84C230.5 133.84 190.15 97.7399 187.58 95.4649C185.01 93.1899 183.13 93.2899 181.745 91.9049C180.36 90.5199 179.665 89.5349 174.03 89.6299C168.395 89.7249 160.875 86.6649 159.195 85.5749C157.515 84.4849 155.14 85.2799 153.555 84.6649C151.97 84.0499 147.92 84.5899 145.445 84.6649C142.97 84.7399 142.775 82.2149 143.765 79.3449C144.755 76.4749 152.265 74.6999 153.265 75.2899C154.265 75.8799 158.21 74.2049 158.21 74.2049C157.615 72.1249 157.815 67.0799 157.815 67.0799C157.815 67.0799 153.66 65.2999 152.08 64.7099C150.863 64.3427 149.587 64.2087 148.32 64.3149C148.32 64.3149 148.82 62.0449 149.605 61.1999C150.39 60.3549 154.155 59.5649 157.815 56.9949C161.475 54.4249 163.75 53.8299 164.315 54.0249C164.88 54.2199 168.965 55.4099 170.055 55.4099C171.145 55.4099 172.725 54.4099 174.305 54.7199C175.885 55.0299 178.755 57.4899 180.04 57.7849C181.325 58.0799 181.72 58.3499 183.405 58.3499C184.145 58.3499 187.165 60.5549 187.165 60.5549C188.43 60.7963 189.659 61.1944 190.825 61.7399C192.7 62.6299 194.68 66.8849 195.57 68.2699C196.46 69.6549 196.57 73.0149 196.57 73.0149C196.57 73.0149 198.945 74.2999 199.835 76.0799C200.725 77.8599 233.5 95.4649 233.5 95.4649" stroke="#263238" stroke-width="0.5" stroke-linecap="round" stroke-linejoin="round"/>
<path d="M157.83 67.0799C157.83 67.0799 158.29 63.1899 157.83 62.6499" stroke="#263238" stroke-width="0.5" stroke-linecap="round" stroke-linejoin="round"/>
<path d="M170.025 57.5552C170.025 57.5552 176.755 63.2502 177.28 63.6002" stroke="#263238" stroke-width="0.5" stroke-linecap="round" stroke-linejoin="round"/>
<path d="M176.345 55.6406C177.27 56.2156 184.73 62.8306 187.17 64.3456" stroke="#263238" stroke-width="0.5" stroke-linecap="round" stroke-linejoin="round"/>
<path d="M196.6 73.0003C195.875 72.5753 193.96 71.6503 193.765 70.9253" stroke="#263238" stroke-width="0.5" stroke-linecap="round" stroke-linejoin="round"/>
<path d="M158.225 74.2051C158.225 74.2051 158.62 75.8201 158.225 76.6101" stroke="#263238" stroke-width="0.5" stroke-linecap="round" stroke-linejoin="round"/>
<path d="M152.29 79.3149C152.29 79.3149 151.37 81.8849 153.545 83.5999" stroke="#263238" stroke-width="0.5" stroke-linecap="round" stroke-linejoin="round"/>
<path d="M161.26 54.9204C160.566 55.6471 160.106 56.5649 159.94 57.5554" stroke="#263238" stroke-width="0.5" stroke-linecap="round" stroke-linejoin="round"/>
<path d="M151 62.6499C151.219 63.2454 151.561 63.7881 152.004 64.2422C152.446 64.6963 152.98 65.0516 153.57 65.2849" stroke="#263238" stroke-width="0.5" stroke-linecap="round" stroke-linejoin="round"/>
<path d="M180.575 90.8045C179.29 88.9404 177.876 87.1678 176.345 85.4995" stroke="#263238" stroke-width="0.5" stroke-linecap="round" stroke-linejoin="round"/>
<path d="M42.2454 222.656C42.2454 222.656 74.5454 201.426 76.5204 198.686C77.5341 197.208 78.7302 195.864 80.0804 194.686C80.0804 194.686 81.0054 186.771 83.3804 182.686C85.7554 178.601 86.6754 175.561 87.7304 173.451C88.7854 171.341 93.7954 169.761 95.2304 168.951C96.6654 168.141 99.1904 166.576 100.64 166.576C101.748 166.664 102.825 166.979 103.805 167.501C103.805 167.501 108.685 165.001 110.925 166.576C110.925 166.576 116.465 166.841 117.78 166.706C119.095 166.571 121.08 167.501 121.08 167.501C121.08 167.501 124.375 165.131 126.615 166.051C128.855 166.971 129.925 167.366 129.985 168.686C130.045 170.006 129.43 174.486 129.43 174.486H128.33C128.33 174.486 124.64 179.291 124.245 180.251C123.85 181.211 121.745 186.486 121.745 186.486C121.745 186.486 124.51 184.376 126.245 182.796C127.98 181.216 130.995 178.181 134.16 177.391C137.325 176.601 139.565 178.366 139.565 180.251C139.565 180.251 135.875 183.191 135.065 184.116C134.255 185.041 132.845 187.411 131.255 189.116C129.665 190.821 126 198.001 122.81 201.426C119.62 204.851 105.81 212.236 102.63 213.291C102.63 213.291 83.3804 226.741 74.9404 238.081C74.9404 238.081 52.0004 238.216 42.2454 222.656Z" fill="white"/>
<path opacity="0.4" d="M104.875 210.39C105.15 210.67 106.275 210.84 107.875 210.89C106.181 211.8 104.434 212.608 102.645 213.31C102.645 213.31 90.0547 222.105 80.7747 231.47C83.9697 226.385 90.1047 220.04 92.3847 218.72C95.5597 216.87 101.66 210.9 101.66 210.9C101.66 210.9 103.96 209.465 104.875 210.39Z" fill="#407BFF"/>
<path opacity="0.4" d="M126.235 182.831C127.586 181.503 129.033 180.278 130.565 179.166C128.938 180.952 127.614 182.992 126.645 185.206C126.035 188.521 120.315 195.356 120.315 195.356C122.16 189.426 120.575 188.236 121.095 186.521C121.615 184.806 121.95 180.601 121.95 180.601C121.95 180.601 122.95 178.876 124.005 178.481C125.06 178.086 127.83 171.096 128.345 170.151C128.86 169.206 124.93 167.651 123.875 167.536C122.82 167.421 122.425 169.246 120.315 170.151C118.205 171.056 115.555 172.716 114.58 173.686C113.605 174.656 111.91 178.946 111.8 179.211C111.875 178.911 113.07 174.096 113.38 173.136C113.64 172.336 116.175 170.861 117.115 170.336C115.555 171.061 114.68 169.686 113.38 168.436C111.985 167.096 109.905 166.671 107.63 167.366C105.355 168.061 103.83 169.776 103.82 169.646C103.81 169.516 100.42 168.921 99.3202 169.246C98.2202 169.571 95.6802 170.721 95.6802 170.721C95.6802 170.721 93.3702 169.391 89.5752 173.136C87.9902 174.701 82.7152 186.636 83.5052 185.206C84.2952 183.776 87.7402 179.506 87.9552 179.241C87.7252 179.801 80.7302 195.501 79.3002 196.501C77.8702 197.501 77.4552 201.041 72.3002 203.946C67.4102 206.701 48.5502 218.556 46.6802 219.731C55.6252 213.786 75.0002 200.791 76.5002 198.686C77.5139 197.208 78.71 195.864 80.0602 194.686C80.0602 194.686 80.9852 186.771 83.3602 182.686C85.7352 178.601 86.6552 175.561 87.7102 173.451C88.7652 171.341 93.7752 169.761 95.2102 168.951C96.6452 168.141 99.1702 166.576 100.62 166.576C101.727 166.664 102.805 166.979 103.785 167.501C103.785 167.501 108.665 165.001 110.905 166.576C110.905 166.576 116.445 166.841 117.76 166.706C119.075 166.571 121.06 167.501 121.06 167.501C121.06 167.501 124.355 165.131 126.595 166.051C128.835 166.971 129.905 167.366 129.965 168.686C130.025 170.006 129.41 174.486 129.41 174.486H128.31C128.31 174.486 124.62 179.291 124.225 180.251C123.83 181.211 121.725 186.486 121.725 186.486C121.725 186.486 124.5 184.411 126.235 182.831Z" fill="#407BFF"/>
<path opacity="0.4" d="M139.555 180.285C139.555 180.285 135.865 183.225 135.055 184.15C134.58 184.705 133.875 185.785 133.055 186.93C133.467 185.593 133.75 184.22 133.9 182.83C134.678 181.695 135.781 180.824 137.065 180.33C137.876 180.091 138.728 180.026 139.565 180.14C139.566 180.188 139.563 180.237 139.555 180.285Z" fill="#407BFF"/>
<path d="M42.2454 222.656C42.2454 222.656 74.5454 201.426 76.5204 198.686C77.5341 197.208 78.7302 195.864 80.0804 194.686C80.0804 194.686 81.0054 186.771 83.3804 182.686C85.7554 178.601 86.6754 175.561 87.7304 173.451C88.7854 171.341 93.7954 169.761 95.2304 168.951C96.6654 168.141 99.1904 166.576 100.64 166.576C101.748 166.664 102.825 166.979 103.805 167.501C103.805 167.501 108.685 165.001 110.925 166.576C110.925 166.576 116.465 166.841 117.78 166.706C119.095 166.571 121.08 167.501 121.08 167.501C121.08 167.501 124.375 165.131 126.615 166.051C128.855 166.971 129.925 167.366 129.985 168.686C130.045 170.006 129.43 174.486 129.43 174.486H128.33C128.33 174.486 124.64 179.291 124.245 180.251C123.85 181.211 121.745 186.486 121.745 186.486C121.745 186.486 124.51 184.376 126.245 182.796C127.98 181.216 130.995 178.181 134.16 177.391C137.325 176.601 139.565 178.366 139.565 180.251C139.565 180.251 135.875 183.191 135.065 184.116C134.255 185.041 132.845 187.411 131.255 189.116C129.665 190.821 126 198.001 122.81 201.426C119.62 204.851 105.81 212.236 102.63 213.291C102.63 213.291 83.3804 226.741 74.9404 238.081" stroke="#263238" stroke-width="0.5" stroke-linecap="round" stroke-linejoin="round"/>
<path d="M121.755 186.5C121.755 186.5 122.545 190.46 120.96 194" stroke="#263238" stroke-width="0.5" stroke-linecap="round" stroke-linejoin="round"/>
<path d="M116.61 170.565C118.267 169.811 119.787 168.787 121.11 167.535" stroke="#263238" stroke-width="0.5" stroke-linecap="round" stroke-linejoin="round"/>
<path d="M128.345 174.5C128.771 173.627 129.061 172.695 129.205 171.735" stroke="#263238" stroke-width="0.5" stroke-linecap="round" stroke-linejoin="round"/>
<path d="M110.94 166.61C109.336 166.574 107.771 167.105 106.52 168.11" stroke="#263238" stroke-width="0.5" stroke-linecap="round" stroke-linejoin="round"/>
<path d="M103.82 167.535C103.82 167.535 99.8653 169.38 98.4803 169.38C97.0953 169.38 94.8503 171.225 94.8503 171.755" stroke="#263238" stroke-width="0.5" stroke-linecap="round" stroke-linejoin="round"/>
<path d="M80.0798 194.7C81.2479 192.904 82.2011 190.978 82.9198 188.96" stroke="#263238" stroke-width="0.5" stroke-linecap="round" stroke-linejoin="round"/>
<path d="M117.465 171.755C117.465 171.755 114.965 172.41 114.105 174.52C113.245 176.63 109.29 183.95 109.29 183.95" stroke="#263238" stroke-width="0.5" stroke-linecap="round" stroke-linejoin="round"/>
<path d="M104.875 170.565C104.345 171.82 98.4099 182.83 98.4099 182.83" stroke="#263238" stroke-width="0.5" stroke-linecap="round" stroke-linejoin="round"/>
</svg>
